AnekTamil-SemiCondensedMedium.ufo
<glyph name="exclam" format="2">
  <advance width="424.0"/>
  <unicode hex="0021"/>
  <outline>
    <contour>
      <point x="287.5" y="392.5" type="line"/>
      <point x="310.5" y="1278.0" type="line"/>
      <point x="113.5" y="1278.0" type="line"/>
      <point x="136.5" y="392.5" type="line"/>
    </contour>
    <contour>
      <point x="213.0" y="-19.5" type="curve" smooth="yes"/>
      <point x="284.0" y="-19.5"/>
      <point x="319.0" y="24.5"/>
      <point x="319.0" y="102.5" type="curve" smooth="yes"/>
      <point x="319.0" y="116.0" type="line" smooth="yes"/>
      <point x="319.0" y="193.0"/>
      <point x="284.0" y="237.0"/>
      <point x="213.0" y="237.0" type="curve" smooth="yes"/>
      <point x="140.0" y="237.0"/>
      <point x="107.0" y="193.0"/>
      <point x="107.0" y="116.0" type="curve" smooth="yes"/>
      <point x="107.0" y="102.5" type="line" smooth="yes"/>
      <point x="107.0" y="24.5"/>
      <point x="140.0" y="-19.5"/>
    </contour>
  </outline>
</glyph>
<glyph name="numbersign" format="2">
  <advance width="1013.5"/>
  <unicode hex="0023"/>
  <outline>
    <contour>
      <point x="169.0" y="0.0" type="line"/>
      <point x="317.0" y="0.0" type="line"/>
      <point x="455.0" y="1278.0" type="line"/>
      <point x="307.0" y="1278.0" type="line"/>
    </contour>
    <contour>
      <point x="51.5" y="328.0" type="line"/>
      <point x="913.5" y="328.0" type="line"/>
      <point x="913.5" y="464.5" type="line"/>
      <point x="51.5" y="464.5" type="line"/>
    </contour>
    <contour>
      <point x="561.5" y="0.0" type="line"/>
      <point x="710.0" y="0.0" type="line"/>
      <point x="845.5" y="1278.0" type="line"/>
      <point x="697.0" y="1278.0" type="line"/>
    </contour>
    <contour>
      <point x="102.5" y="818.0" type="line"/>
      <point x="962.5" y="818.0" type="line"/>
      <point x="962.5" y="954.5" type="line"/>
      <point x="102.5" y="954.5" type="line"/>
    </contour>
  </outline>
</glyph>
<glyph name="dollar" format="2">
  <advance width="835.5"/>
  <unicode hex="0024"/>
  <anchor x="407.0" y="0.0" name="bottom"/>
  <anchor x="407.0" y="1278.0" name="top"/>
  <outline>
    <contour>
      <point x="493.5" y="1197.5" type="line"/>
      <point x="493.5" y="1465.5" type="line"/>
      <point x="330.5" y="1465.5" type="line"/>
      <point x="330.5" y="1197.5" type="line"/>
    </contour>
    <contour>
      <point x="493.5" y="-194.5" type="line"/>
      <point x="493.5" y="69.0" type="line"/>
      <point x="330.5" y="69.0" type="line"/>
      <point x="330.5" y="-194.5" type="line"/>
    </contour>
    <component base="S"/>
  </outline>
</glyph>
<glyph name="percent" format="2">
  <advance width="1325.0"/>
  <unicode hex="0025"/>
  <outline>
    <contour>
      <point x="253.5" y="0.0" type="line"/>
      <point x="422.0" y="0.0" type="line"/>
      <point x="1073.5" y="1278.0" type="line"/>
      <point x="906.0" y="1278.0" type="line"/>
    </contour>
    <contour>
      <point x="1006.5" y="-24.0" type="curve" smooth="yes"/>
      <point x="1171.5" y="-24.0"/>
      <point x="1258.0" y="71.5"/>
      <point x="1258.0" y="240.0" type="curve" smooth="yes"/>
      <point x="1258.0" y="372.5" type="line" smooth="yes"/>
      <point x="1258.0" y="541.0"/>
      <point x="1171.5" y="635.5"/>
      <point x="1006.5" y="635.5" type="curve" smooth="yes"/>
      <point x="842.0" y="635.5"/>
      <point x="756.5" y="540.0"/>
      <point x="756.5" y="372.5" type="curve" smooth="yes"/>
      <point x="756.5" y="240.0" type="line" smooth="yes"/>
      <point x="756.5" y="71.5"/>
      <point x="841.5" y="-24.0"/>
    </contour>
    <contour>
      <point x="1006.5" y="105.5" type="curve" smooth="yes"/>
      <point x="942.0" y="105.5"/>
      <point x="910.0" y="148.5"/>
      <point x="910.0" y="234.0" type="curve" smooth="yes"/>
      <point x="910.0" y="377.5" type="line" smooth="yes"/>
      <point x="910.0" y="463.5"/>
      <point x="941.5" y="506.5"/>
      <point x="1006.5" y="506.5" type="curve" smooth="yes"/>
      <point x="1071.5" y="506.5"/>
      <point x="1103.0" y="463.5"/>
      <point x="1103.0" y="377.5" type="curve" smooth="yes"/>
      <point x="1103.0" y="234.0" type="line" smooth="yes"/>
      <point x="1103.0" y="148.5"/>
      <point x="1072.0" y="105.5"/>
    </contour>
    <contour>
      <point x="317.0" y="642.0" type="curve" smooth="yes"/>
      <point x="482.0" y="642.0"/>
      <point x="568.0" y="737.5"/>
      <point x="568.0" y="904.5" type="curve" smooth="yes"/>
      <point x="568.0" y="1038.0" type="line" smooth="yes"/>
      <point x="568.0" y="1204.5"/>
      <point x="482.0" y="1299.5"/>
      <point x="317.0" y="1299.5" type="curve" smooth="yes"/>
      <point x="151.5" y="1299.5"/>
      <point x="66.0" y="1204.5"/>
      <point x="66.0" y="1038.0" type="curve" smooth="yes"/>
      <point x="66.0" y="904.5" type="line" smooth="yes"/>
      <point x="66.0" y="737.0"/>
      <point x="151.5" y="642.0"/>
    </contour>
    <contour>
      <point x="317.0" y="771.0" type="curve" smooth="yes"/>
      <point x="252.5" y="771.0"/>
      <point x="220.5" y="813.0"/>
      <point x="220.5" y="899.0" type="curve" smooth="yes"/>
      <point x="220.5" y="1043.0" type="line" smooth="yes"/>
      <point x="220.5" y="1128.0"/>
      <point x="252.0" y="1171.5"/>
      <point x="317.0" y="1171.5" type="curve" smooth="yes"/>
      <point x="381.5" y="1171.5"/>
      <point x="413.0" y="1128.0"/>
      <point x="413.0" y="1043.0" type="curve" smooth="yes"/>
      <point x="413.0" y="899.0" type="line" smooth="yes"/>
      <point x="413.0" y="813.0"/>
      <point x="381.5" y="771.0"/>
    </contour>
  </outline>
</glyph>
<glyph name="ampersand" format="2">
  <advance width="1065.5"/>
  <unicode hex="0026"/>
  <outline>
    <contour>
      <point x="878.0" y="0.0" type="curve"/>
      <point x="1083.5" y="0.0" type="line"/>
      <point x="1083.5" y="13.5" type="line"/>
      <point x="999.5" y="120.5"/>
      <point x="901.0" y="245.0"/>
      <point x="820.0" y="342.0" type="curve"/>
      <point x="781.0" y="392.0" type="line"/>
      <point x="442.0" y="786.5" type="line" smooth="yes"/>
      <point x="375.5" y="866.0"/>
      <point x="347.5" y="921.5"/>
      <point x="347.5" y="989.5" type="curve" smooth="yes"/>
      <point x="347.5" y="995.0" type="line" smooth="yes"/>
      <point x="347.5" y="1076.5"/>
      <point x="396.5" y="1129.5"/>
      <point x="513.5" y="1129.5" type="curve" smooth="yes"/>
      <point x="611.5" y="1129.5"/>
      <point x="693.5" y="1099.5"/>
      <point x="759.0" y="1063.0" type="curve"/>
      <point x="744.5" y="1235.5" type="line"/>
      <point x="686.0" y="1270.0"/>
      <point x="598.0" y="1299.5"/>
      <point x="475.5" y="1299.5" type="curve" smooth="yes"/>
      <point x="263.5" y="1299.5"/>
      <point x="154.0" y="1186.5"/>
      <point x="154.0" y="1001.0" type="curve" smooth="yes"/>
      <point x="154.0" y="994.0" type="line" smooth="yes"/>
      <point x="154.0" y="884.5"/>
      <point x="192.0" y="812.0"/>
      <point x="269.0" y="718.0" type="curve"/>
      <point x="299.0" y="677.0" type="line"/>
      <point x="677.5" y="243.5" type="line"/>
      <point x="697.5" y="219.0" type="line"/>
      <point x="730.5" y="179.5"/>
      <point x="842.0" y="45.0"/>
    </contour>
    <contour>
      <point x="434.0" y="-21.5" type="curve" smooth="yes"/>
      <point x="628.5" y="-21.5"/>
      <point x="727.5" y="56.5"/>
      <point x="812.0" y="199.5" type="curve"/>
      <point x="855.5" y="253.5" type="line"/>
      <point x="937.5" y="397.0"/>
      <point x="979.5" y="589.0"/>
      <point x="995.5" y="813.5" type="curve"/>
      <point x="811.5" y="813.5" type="line"/>
      <point x="801.5" y="639.5"/>
      <point x="779.5" y="496.5"/>
      <point x="731.0" y="376.5" type="curve"/>
      <point x="688.0" y="304.0" type="line"/>
      <point x="635.5" y="199.0"/>
      <point x="564.5" y="139.0"/>
      <point x="451.5" y="139.0" type="curve" smooth="yes"/>
      <point x="326.5" y="139.0"/>
      <point x="263.5" y="208.5"/>
      <point x="263.5" y="347.0" type="curve" smooth="yes"/>
      <point x="263.5" y="424.5" type="line" smooth="yes"/>
      <point x="263.5" y="528.5"/>
      <point x="290.0" y="588.0"/>
      <point x="367.0" y="635.5" type="curve"/>
      <point x="268.5" y="769.5" type="line"/>
      <point x="125.0" y="681.0"/>
      <point x="72.0" y="578.0"/>
      <point x="72.0" y="408.5" type="curve" smooth="yes"/>
      <point x="72.0" y="334.0" type="line" smooth="yes"/>
      <point x="72.0" y="104.0"/>
      <point x="189.0" y="-21.5"/>
    </contour>
  </outline>
</glyph>
<glyph name="quotesingle" format="2">
  <advance width="332.0"/>
  <unicode hex="0027"/>
  <outline>
    <contour>
      <point x="239.0" y="851.5" type="line"/>
      <point x="257.0" y="1326.5" type="line"/>
      <point x="75.0" y="1326.5" type="line"/>
      <point x="93.0" y="851.5" type="line"/>
    </contour>
  </outline>
</glyph>
<glyph name="parenleft" format="2">
  <advance width="513.0"/>
  <unicode hex="0028"/>
  <outline>
    <contour>
      <point x="288.5" y="632.5" type="line" smooth="yes"/>
      <point x="288.5" y="929.5"/>
      <point x="345.0" y="1143.5"/>
      <point x="484.0" y="1351.5" type="curve"/>
      <point x="296.0" y="1351.5" type="line"/>
      <point x="167.0" y="1159.5"/>
      <point x="111.0" y="948.0"/>
      <point x="111.0" y="638.5" type="curve" smooth="yes"/>
      <point x="111.0" y="471.0" type="line" smooth="yes"/>
      <point x="111.0" y="160.5"/>
      <point x="165.5" y="-50.5"/>
      <point x="295.0" y="-242.0" type="curve"/>
      <point x="484.0" y="-242.0" type="line"/>
      <point x="345.0" y="-34.0"/>
      <point x="288.5" y="179.5"/>
      <point x="288.5" y="478.0" type="curve" smooth="yes"/>
    </contour>
  </outline>
</glyph>
<glyph name="parenright" format="2">
  <advance width="514.0"/>
  <unicode hex="0029"/>
  <outline>
    <contour>
      <point x="225.5" y="632.5" type="curve" smooth="yes"/>
      <point x="225.5" y="478.0" type="line" smooth="yes"/>
      <point x="225.5" y="179.5"/>
      <point x="169.0" y="-34.0"/>
      <point x="30.0" y="-242.0" type="curve"/>
      <point x="219.0" y="-242.0" type="line"/>
      <point x="348.5" y="-50.5"/>
      <point x="403.0" y="160.5"/>
      <point x="403.0" y="471.0" type="curve" smooth="yes"/>
      <point x="403.0" y="638.5" type="line" smooth="yes"/>
      <point x="403.0" y="948.0"/>
      <point x="347.0" y="1159.5"/>
      <point x="218.0" y="1351.5" type="curve"/>
      <point x="30.0" y="1351.5" type="line"/>
      <point x="169.0" y="1143.5"/>
      <point x="225.5" y="929.5"/>
    </contour>
  </outline>
</glyph>
<glyph name="asterisk" format="2">
  <advance width="698.5"/>
  <unicode hex="002A"/>
  <outline>
    <contour>
      <point x="224.0" y="677.5" type="line"/>
      <point x="346.5" y="866.0" type="line"/>
      <point x="350.5" y="866.0" type="line"/>
      <point x="473.5" y="677.5" type="line"/>
      <point x="599.0" y="760.5" type="line"/>
      <point x="450.5" y="936.0" type="line"/>
      <point x="451.5" y="940.0" type="line"/>
      <point x="655.5" y="983.5" type="line"/>
      <point x="620.5" y="1129.5" type="line"/>
      <point x="414.0" y="1053.5" type="line"/>
      <point x="411.5" y="1055.5" type="line"/>
      <point x="430.0" y="1278.0" type="line"/>
      <point x="268.5" y="1278.0" type="line"/>
      <point x="286.5" y="1055.5" type="line"/>
      <point x="284.0" y="1053.5" type="line"/>
      <point x="77.5" y="1129.5" type="line"/>
      <point x="43.0" y="983.5" type="line"/>
      <point x="246.0" y="940.0" type="line"/>
      <point x="247.0" y="936.0" type="line"/>
      <point x="98.5" y="760.5" type="line"/>
    </contour>
  </outline>
</glyph>
<glyph name="plus" format="2">
  <advance width="837.0"/>
  <unicode hex="002B"/>
  <outline>
    <contour>
      <point x="498.0" y="253.5" type="line"/>
      <point x="498.0" y="1004.0" type="line"/>
      <point x="339.0" y="1004.0" type="line"/>
      <point x="339.0" y="253.5" type="line"/>
    </contour>
    <contour>
      <point x="78.0" y="553.0" type="line"/>
      <point x="759.0" y="553.0" type="line"/>
      <point x="759.0" y="704.5" type="line"/>
      <point x="78.0" y="704.5" type="line"/>
    </contour>
  </outline>
</glyph>
<glyph name="comma" format="2">
  <advance width="355.0"/>
  <unicode hex="002C"/>
  <outline>
    <contour>
      <point x="268.0" y="280.5" type="curve"/>
      <point x="91.0" y="280.5" type="line"/>
      <point x="95.5" y="237.5"/>
      <point x="97.5" y="199.0"/>
      <point x="97.5" y="155.0" type="curve" smooth="yes"/>
      <point x="97.5" y="10.0"/>
      <point x="65.5" y="-105.0"/>
      <point x="6.0" y="-208.5" type="curve"/>
      <point x="134.5" y="-249.0" type="line"/>
      <point x="236.5" y="-125.0"/>
      <point x="277.5" y="6.0"/>
      <point x="277.5" y="162.5" type="curve" smooth="yes"/>
      <point x="277.5" y="209.5"/>
      <point x="272.0" y="253.0"/>
    </contour>
  </outline>
</glyph>
<glyph name="hyphen" format="2">
  <advance width="685.5"/>
  <unicode hex="002D"/>
  <outline>
    <contour>
      <point x="100.5" y="443.0" type="line"/>
      <point x="585.0" y="443.0" type="line"/>
      <point x="585.0" y="596.5" type="line"/>
      <point x="100.5" y="596.5" type="line"/>
    </contour>
  </outline>
</glyph>
<glyph name="period" format="2">
  <advance width="350.0"/>
  <unicode hex="002E"/>
  <outline>
    <contour>
      <point x="175.0" y="-19.5" type="curve" smooth="yes"/>
      <point x="246.0" y="-19.5"/>
      <point x="281.0" y="24.5"/>
      <point x="281.0" y="102.5" type="curve" smooth="yes"/>
      <point x="281.0" y="116.0" type="line" smooth="yes"/>
      <point x="281.0" y="193.0"/>
      <point x="246.0" y="237.0"/>
      <point x="175.0" y="237.0" type="curve" smooth="yes"/>
      <point x="102.0" y="237.0"/>
      <point x="69.0" y="193.0"/>
      <point x="69.0" y="116.0" type="curve" smooth="yes"/>
      <point x="69.0" y="102.5" type="line" smooth="yes"/>
      <point x="69.0" y="24.5"/>
      <point x="102.0" y="-19.5"/>
    </contour>
  </outline>
</glyph>
<glyph name="slash" format="2">
  <advance width="694.5"/>
  <unicode hex="002F"/>
  <outline>
    <contour>
      <point x="23.0" y="-241.0" type="line"/>
      <point x="194.0" y="-241.0" type="line"/>
      <point x="671.5" y="1347.5" type="line"/>
      <point x="501.5" y="1347.5" type="line"/>
    </contour>
  </outline>
</glyph>
<glyph name="zero" format="2">
  <advance width="956.5"/>
  <unicode hex="0030"/>
  <outline>
    <contour>
      <point x="478.0" y="-22.5" type="curve" smooth="yes"/>
      <point x="736.5" y="-22.5"/>
      <point x="867.0" y="126.0"/>
      <point x="867.0" y="408.0" type="curve"/>
      <point x="867.0" y="870.0" type="line"/>
      <point x="867.0" y="1151.5"/>
      <point x="736.5" y="1300.5"/>
      <point x="478.0" y="1300.5" type="curve" smooth="yes"/>
      <point x="219.0" y="1300.5"/>
      <point x="89.5" y="1151.5"/>
      <point x="89.5" y="870.0" type="curve"/>
      <point x="89.5" y="408.0" type="line"/>
      <point x="89.5" y="126.0"/>
      <point x="219.5" y="-22.5"/>
    </contour>
    <contour>
      <point x="478.0" y="137.0" type="curve" smooth="yes"/>
      <point x="343.0" y="137.0"/>
      <point x="281.5" y="225.5"/>
      <point x="281.5" y="396.5" type="curve" smooth="yes"/>
      <point x="281.5" y="881.5" type="line" smooth="yes"/>
      <point x="281.5" y="1052.5"/>
      <point x="342.5" y="1141.5"/>
      <point x="478.0" y="1141.5" type="curve" smooth="yes"/>
      <point x="613.5" y="1141.5"/>
      <point x="675.0" y="1052.5"/>
      <point x="675.0" y="881.5" type="curve" smooth="yes"/>
      <point x="675.0" y="396.5" type="line" smooth="yes"/>
      <point x="675.0" y="225.5"/>
      <point x="613.5" y="137.0"/>
    </contour>
  </outline>
</glyph>
<glyph name="one" format="2">
  <advance width="593.0"/>
  <unicode hex="0031"/>
  <outline>
    <contour>
      <point x="287.5" y="0.0" type="line"/>
      <point x="476.0" y="0.0" type="line"/>
      <point x="476.0" y="1278.0" type="line"/>
      <point x="296.5" y="1278.0" type="line"/>
      <point x="36.5" y="1103.5" type="line"/>
      <point x="34.0" y="910.0" type="line"/>
      <point x="274.5" y="1069.0" type="line"/>
      <point x="287.5" y="1069.0" type="line"/>
    </contour>
  </outline>
</glyph>
<glyph name="two" format="2">
  <advance width="773.5"/>
  <unicode hex="0032"/>
  <outline>
    <contour>
      <point x="53.5" y="0.0" type="line"/>
      <point x="713.0" y="0.0" type="line"/>
      <point x="713.0" y="165.0" type="line"/>
      <point x="188.5" y="165.0" type="line"/>
      <point x="268.0" y="133.0" type="line"/>
      <point x="268.0" y="173.5" type="line"/>
      <point x="464.0" y="431.5" type="line" smooth="yes"/>
      <point x="615.5" y="629.5"/>
      <point x="700.5" y="753.5"/>
      <point x="700.5" y="934.0" type="curve" smooth="yes"/>
      <point x="700.5" y="957.5" type="line" smooth="yes"/>
      <point x="700.5" y="1172.5"/>
      <point x="587.5" y="1298.5"/>
      <point x="355.5" y="1298.5" type="curve" smooth="yes"/>
      <point x="230.5" y="1298.5"/>
      <point x="135.5" y="1258.5"/>
      <point x="75.5" y="1219.5" type="curve"/>
      <point x="60.5" y="1046.5" type="line"/>
      <point x="128.5" y="1090.5"/>
      <point x="214.0" y="1130.0"/>
      <point x="315.0" y="1130.0" type="curve" smooth="yes"/>
      <point x="449.5" y="1130.0"/>
      <point x="509.0" y="1060.0"/>
      <point x="509.0" y="935.0" type="curve" smooth="yes"/>
      <point x="509.0" y="912.5" type="line" smooth="yes"/>
      <point x="509.0" y="787.0"/>
      <point x="443.0" y="688.0"/>
      <point x="307.5" y="513.5" type="curve" smooth="yes"/>
      <point x="53.5" y="181.5" type="line"/>
    </contour>
  </outline>
</glyph>
<glyph name="three" format="2">
  <advance width="800.0"/>
  <unicode hex="0033"/>
  <outline>
    <contour>
      <point x="351.0" y="-20.5" type="curve" smooth="yes"/>
      <point x="613.0" y="-20.5"/>
      <point x="730.0" y="110.0"/>
      <point x="730.0" y="323.0" type="curve" smooth="yes"/>
      <point x="730.0" y="391.0" type="line" smooth="yes"/>
      <point x="730.0" y="545.5"/>
      <point x="669.0" y="634.5"/>
      <point x="511.5" y="664.0" type="curve"/>
      <point x="518.0" y="644.5" type="line"/>
      <point x="518.0" y="672.5" type="line"/>
      <point x="660.5" y="699.5"/>
      <point x="722.0" y="793.5"/>
      <point x="722.0" y="936.5" type="curve" smooth="yes"/>
      <point x="722.0" y="985.5" type="line" smooth="yes"/>
      <point x="722.0" y="1183.5"/>
      <point x="614.5" y="1299.0"/>
      <point x="373.0" y="1299.0" type="curve" smooth="yes"/>
      <point x="239.0" y="1299.0"/>
      <point x="140.5" y="1263.5"/>
      <point x="75.0" y="1224.0" type="curve"/>
      <point x="60.5" y="1056.0" type="line"/>
      <point x="132.5" y="1095.5"/>
      <point x="227.5" y="1132.5"/>
      <point x="334.0" y="1132.5" type="curve" smooth="yes"/>
      <point x="478.5" y="1132.5"/>
      <point x="531.5" y="1069.0"/>
      <point x="531.5" y="950.5" type="curve" smooth="yes"/>
      <point x="531.5" y="917.5" type="line" smooth="yes"/>
      <point x="531.5" y="803.5"/>
      <point x="475.5" y="741.0"/>
      <point x="321.0" y="736.5" type="curve" smooth="yes"/>
      <point x="178.5" y="732.5" type="line"/>
      <point x="178.5" y="576.5" type="line"/>
      <point x="320.0" y="573.0" type="line" smooth="yes"/>
      <point x="477.5" y="568.5"/>
      <point x="537.0" y="514.0"/>
      <point x="537.0" y="387.0" type="curve" smooth="yes"/>
      <point x="537.0" y="339.5" type="line" smooth="yes"/>
      <point x="537.0" y="217.5"/>
      <point x="481.0" y="150.0"/>
      <point x="326.0" y="150.0" type="curve" smooth="yes"/>
      <point x="217.0" y="150.0"/>
      <point x="124.5" y="185.5"/>
      <point x="52.0" y="229.0" type="curve"/>
      <point x="67.5" y="46.0" type="line"/>
      <point x="124.5" y="14.5"/>
      <point x="225.5" y="-20.5"/>
    </contour>
  </outline>
</glyph>
<glyph name="four" format="2">
  <advance width="884.5"/>
  <unicode hex="0034"/>
  <outline>
    <contour>
      <point x="544.5" y="0.0" type="line"/>
      <point x="723.5" y="0.0" type="line"/>
      <point x="723.5" y="1278.0" type="line"/>
      <point x="410.5" y="1278.0" type="line"/>
      <point x="45.0" y="412.5" type="line"/>
      <point x="45.0" y="228.0" type="line"/>
      <point x="855.5" y="228.0" type="line"/>
      <point x="855.5" y="389.5" type="line"/>
      <point x="149.0" y="389.5" type="line"/>
      <point x="226.0" y="326.5" type="line"/>
      <point x="226.0" y="402.0" type="line"/>
      <point x="530.0" y="1144.5" type="line"/>
      <point x="552.5" y="1144.5" type="line"/>
      <point x="544.5" y="837.0" type="line"/>
    </contour>
  </outline>
</glyph>
<glyph name="five" format="2">
  <advance width="859.5"/>
  <unicode hex="0035"/>
  <outline>
    <contour>
      <point x="399.0" y="-21.0" type="curve" smooth="yes"/>
      <point x="670.0" y="-21.0"/>
      <point x="784.0" y="119.5"/>
      <point x="784.0" y="358.5" type="curve" smooth="yes"/>
      <point x="784.0" y="480.0" type="line" smooth="yes"/>
      <point x="784.0" y="692.5"/>
      <point x="701.5" y="819.5"/>
      <point x="520.5" y="819.5" type="curve" smooth="yes"/>
      <point x="394.5" y="819.5"/>
      <point x="324.5" y="761.0"/>
      <point x="288.0" y="675.0" type="curve"/>
      <point x="279.5" y="675.0" type="line"/>
      <point x="283.0" y="846.0" type="line"/>
      <point x="283.0" y="1113.0" type="line"/>
      <point x="751.0" y="1113.0" type="line"/>
      <point x="751.0" y="1278.0" type="line"/>
      <point x="100.0" y="1278.0" type="line"/>
      <point x="100.0" y="553.0" type="line"/>
      <point x="271.0" y="530.0" type="line"/>
      <point x="305.5" y="611.5"/>
      <point x="358.0" y="661.5"/>
      <point x="447.0" y="661.5" type="curve" smooth="yes"/>
      <point x="552.5" y="661.5"/>
      <point x="595.0" y="593.0"/>
      <point x="595.0" y="474.5" type="curve" smooth="yes"/>
      <point x="595.0" y="360.0" type="line" smooth="yes"/>
      <point x="595.0" y="222.5"/>
      <point x="533.5" y="149.0"/>
      <point x="376.0" y="149.0" type="curve" smooth="yes"/>
      <point x="262.5" y="149.0"/>
      <point x="166.0" y="186.5"/>
      <point x="94.5" y="229.5" type="curve"/>
      <point x="110.5" y="48.0" type="line"/>
      <point x="167.5" y="16.0"/>
      <point x="266.5" y="-21.0"/>
    </contour>
  </outline>
</glyph>
<glyph name="six" format="2">
  <advance width="907.0"/>
  <unicode hex="0036"/>
  <outline>
    <contour>
      <point x="466.0" y="-23.0" type="curve" smooth="yes"/>
      <point x="710.0" y="-23.0"/>
      <point x="833.0" y="112.0"/>
      <point x="833.0" y="343.0" type="curve" smooth="yes"/>
      <point x="833.0" y="465.5" type="line" smooth="yes"/>
      <point x="833.0" y="691.5"/>
      <point x="740.5" y="821.0"/>
      <point x="545.5" y="821.0" type="curve" smooth="yes"/>
      <point x="391.5" y="821.0"/>
      <point x="312.5" y="744.0"/>
      <point x="282.0" y="639.5" type="curve"/>
      <point x="246.5" y="639.5" type="line"/>
      <point x="267.0" y="485.0" type="line"/>
      <point x="295.0" y="593.0"/>
      <point x="371.5" y="666.0"/>
      <point x="479.5" y="666.0" type="curve" smooth="yes"/>
      <point x="602.0" y="666.0"/>
      <point x="647.0" y="590.0"/>
      <point x="647.0" y="459.5" type="curve" smooth="yes"/>
      <point x="647.0" y="342.5" type="line" smooth="yes"/>
      <point x="647.0" y="213.5"/>
      <point x="592.0" y="136.5"/>
      <point x="468.5" y="136.5" type="curve" smooth="yes"/>
      <point x="339.0" y="136.5"/>
      <point x="272.5" y="220.0"/>
      <point x="272.5" y="390.0" type="curve"/>
      <point x="272.5" y="831.5" type="line" smooth="yes"/>
      <point x="272.5" y="1031.5"/>
      <point x="354.0" y="1130.0"/>
      <point x="530.5" y="1130.0" type="curve" smooth="yes"/>
      <point x="644.0" y="1130.0"/>
      <point x="719.5" y="1099.0"/>
      <point x="787.0" y="1059.0" type="curve"/>
      <point x="770.0" y="1230.5" type="line"/>
      <point x="710.5" y="1264.0"/>
      <point x="619.5" y="1298.0"/>
      <point x="493.0" y="1298.0" type="curve" smooth="yes"/>
      <point x="223.0" y="1298.0"/>
      <point x="86.0" y="1133.0"/>
      <point x="86.0" y="840.5" type="curve" smooth="yes"/>
      <point x="86.0" y="406.0" type="line" smooth="yes"/>
      <point x="86.0" y="121.5"/>
      <point x="219.5" y="-23.0"/>
    </contour>
  </outline>
</glyph>
<glyph name="seven" format="2">
  <advance width="760.0"/>
  <unicode hex="0037"/>
  <outline>
    <contour>
      <point x="151.5" y="0.0" type="line"/>
      <point x="352.5" y="0.0" type="line"/>
      <point x="713.0" y="1108.0" type="line"/>
      <point x="713.0" y="1278.0" type="line"/>
      <point x="44.0" y="1278.0" type="line"/>
      <point x="44.0" y="1112.5" type="line"/>
      <point x="518.0" y="1112.5" type="line"/>
    </contour>
  </outline>
</glyph>
<glyph name="eight" format="2">
  <advance width="921.0"/>
  <unicode hex="0038"/>
  <outline>
    <contour>
      <point x="460.0" y="-24.5" type="curve" smooth="yes"/>
      <point x="738.5" y="-24.5"/>
      <point x="848.5" y="107.5"/>
      <point x="848.5" y="312.5" type="curve" smooth="yes"/>
      <point x="848.5" y="371.0" type="line" smooth="yes"/>
      <point x="848.5" y="531.0"/>
      <point x="778.5" y="629.5"/>
      <point x="640.0" y="665.5" type="curve"/>
      <point x="640.0" y="673.5" type="line"/>
      <point x="773.0" y="703.0"/>
      <point x="837.0" y="796.5"/>
      <point x="837.0" y="936.0" type="curve" smooth="yes"/>
      <point x="837.0" y="984.5" type="line" smooth="yes"/>
      <point x="837.0" y="1183.0"/>
      <point x="722.0" y="1301.0"/>
      <point x="460.0" y="1301.0" type="curve" smooth="yes"/>
      <point x="200.0" y="1301.0"/>
      <point x="84.5" y="1183.0"/>
      <point x="84.5" y="984.5" type="curve" smooth="yes"/>
      <point x="84.5" y="936.0" type="line" smooth="yes"/>
      <point x="84.5" y="795.5"/>
      <point x="148.5" y="702.5"/>
      <point x="281.5" y="673.5" type="curve"/>
      <point x="281.5" y="665.5" type="line"/>
      <point x="143.5" y="630.0"/>
      <point x="73.0" y="531.5"/>
      <point x="73.0" y="371.0" type="curve" smooth="yes"/>
      <point x="73.0" y="312.5" type="line" smooth="yes"/>
      <point x="73.0" y="105.0"/>
      <point x="187.0" y="-24.5"/>
    </contour>
    <contour>
      <point x="461.5" y="135.0" type="curve" smooth="yes"/>
      <point x="322.0" y="135.0"/>
      <point x="262.5" y="207.5"/>
      <point x="262.5" y="324.0" type="curve" smooth="yes"/>
      <point x="262.5" y="384.0" type="line" smooth="yes"/>
      <point x="262.5" y="496.5"/>
      <point x="327.5" y="560.5"/>
      <point x="458.0" y="584.5" type="curve"/>
      <point x="591.0" y="561.5"/>
      <point x="659.0" y="498.0"/>
      <point x="659.0" y="384.0" type="curve" smooth="yes"/>
      <point x="659.0" y="324.0" type="line" smooth="yes"/>
      <point x="659.0" y="208.0"/>
      <point x="600.5" y="135.0"/>
    </contour>
    <contour>
      <point x="463.0" y="730.5" type="curve"/>
      <point x="345.0" y="749.0"/>
      <point x="272.0" y="806.0"/>
      <point x="272.0" y="924.0" type="curve" smooth="yes"/>
      <point x="272.0" y="968.5" type="line" smooth="yes"/>
      <point x="272.0" y="1078.5"/>
      <point x="328.5" y="1144.0"/>
      <point x="460.0" y="1144.0" type="curve" smooth="yes"/>
      <point x="593.5" y="1144.0"/>
      <point x="649.5" y="1078.5"/>
      <point x="649.5" y="968.5" type="curve" smooth="yes"/>
      <point x="649.5" y="924.0" type="line" smooth="yes"/>
      <point x="649.5" y="806.5"/>
      <point x="575.0" y="747.5"/>
    </contour>
  </outline>
</glyph>
<glyph name="nine" format="2">
  <advance width="907.0"/>
  <unicode hex="0039"/>
  <outline>
    <contour>
      <point x="441.5" y="1299.5" type="curve" smooth="yes"/>
      <point x="197.5" y="1299.5"/>
      <point x="74.0" y="1164.5"/>
      <point x="74.0" y="933.5" type="curve" smooth="yes"/>
      <point x="74.0" y="804.5" type="line" smooth="yes"/>
      <point x="74.0" y="582.5"/>
      <point x="167.0" y="453.5"/>
      <point x="366.5" y="453.5" type="curve" smooth="yes"/>
      <point x="517.5" y="453.5"/>
      <point x="595.0" y="530.5"/>
      <point x="625.0" y="635.0" type="curve"/>
      <point x="660.5" y="635.0" type="line"/>
      <point x="640.0" y="788.5" type="line"/>
      <point x="613.0" y="681.0"/>
      <point x="538.0" y="608.5"/>
      <point x="433.5" y="608.5" type="curve" smooth="yes"/>
      <point x="308.0" y="608.5"/>
      <point x="260.0" y="684.5"/>
      <point x="260.0" y="813.0" type="curve" smooth="yes"/>
      <point x="260.0" y="934.0" type="line" smooth="yes"/>
      <point x="260.0" y="1063.0"/>
      <point x="315.5" y="1140.0"/>
      <point x="439.0" y="1140.0" type="curve" smooth="yes"/>
      <point x="575.0" y="1140.0"/>
      <point x="634.5" y="1057.5"/>
      <point x="634.5" y="891.5" type="curve"/>
      <point x="634.5" y="437.5" type="line" smooth="yes"/>
      <point x="634.5" y="242.5"/>
      <point x="554.0" y="146.5"/>
      <point x="375.0" y="146.5" type="curve" smooth="yes"/>
      <point x="262.0" y="146.5"/>
      <point x="186.5" y="177.5"/>
      <point x="119.5" y="217.0" type="curve"/>
      <point x="137.0" y="37.5" type="line"/>
      <point x="194.5" y="7.0"/>
      <point x="282.0" y="-22.5"/>
      <point x="404.0" y="-22.5" type="curve" smooth="yes"/>
      <point x="682.5" y="-22.5"/>
      <point x="821.0" y="138.5"/>
      <point x="821.0" y="428.5" type="curve" smooth="yes"/>
      <point x="821.0" y="877.0" type="line" smooth="yes"/>
      <point x="821.0" y="1156.0"/>
      <point x="694.0" y="1299.5"/>
    </contour>
  </outline>
</glyph>
<glyph name="less" format="2">
  <advance width="861.5"/>
  <unicode hex="003C"/>
  <outline>
    <contour>
      <point x="210.0" y="636.5" type="line"/>
      <point x="759.0" y="775.0" type="line"/>
      <point x="759.0" y="934.5" type="line"/>
      <point x="78.0" y="750.0" type="line"/>
      <point x="78.0" y="507.0" type="line"/>
      <point x="759.0" y="322.5" type="line"/>
      <point x="759.0" y="482.0" type="line"/>
      <point x="210.0" y="620.5" type="line"/>
    </contour>
  </outline>
</glyph>
<glyph name="equal" format="2">
  <advance width="863.0"/>
  <unicode hex="003D"/>
  <outline>
    <contour>
      <point x="91.0" y="371.5" type="line"/>
      <point x="772.0" y="371.5" type="line"/>
      <point x="772.0" y="523.0" type="line"/>
      <point x="91.0" y="523.0" type="line"/>
    </contour>
    <contour>
      <point x="91.0" y="734.5" type="line"/>
      <point x="772.0" y="734.5" type="line"/>
      <point x="772.0" y="886.0" type="line"/>
      <point x="91.0" y="886.0" type="line"/>
    </contour>
  </outline>
</glyph>
<glyph name="greater" format="2">
  <advance width="861.5"/>
  <unicode hex="003E"/>
  <outline>
    <contour>
      <point x="651.5" y="636.5" type="line"/>
      <point x="651.5" y="620.5" type="line"/>
      <point x="102.5" y="482.0" type="line"/>
      <point x="102.5" y="322.5" type="line"/>
      <point x="783.5" y="507.0" type="line"/>
      <point x="783.5" y="750.0" type="line"/>
      <point x="102.5" y="934.5" type="line"/>
      <point x="102.5" y="775.0" type="line"/>
    </contour>
  </outline>
</glyph>
<glyph name="question" format="2">
  <advance width="712.0"/>
  <unicode hex="003F"/>
  <outline>
    <contour>
      <point x="198.5" y="372.0" type="line"/>
      <point x="300.5" y="406.0" type="line" smooth="yes"/>
      <point x="531.5" y="479.0"/>
      <point x="641.5" y="587.0"/>
      <point x="641.5" y="826.0" type="curve" smooth="yes"/>
      <point x="641.5" y="969.5" type="line" smooth="yes"/>
      <point x="641.5" y="1180.5"/>
      <point x="542.5" y="1299.0"/>
      <point x="323.5" y="1299.0" type="curve" smooth="yes"/>
      <point x="207.5" y="1299.0"/>
      <point x="113.5" y="1264.5"/>
      <point x="57.0" y="1231.5" type="curve"/>
      <point x="37.0" y="1068.0" type="line"/>
      <point x="106.0" y="1106.0"/>
      <point x="187.5" y="1136.5"/>
      <point x="278.0" y="1136.5" type="curve" smooth="yes"/>
      <point x="407.5" y="1136.5"/>
      <point x="455.5" y="1071.0"/>
      <point x="455.5" y="947.0" type="curve" smooth="yes"/>
      <point x="455.5" y="823.0" type="line" smooth="yes"/>
      <point x="455.5" y="684.0"/>
      <point x="407.0" y="616.5"/>
      <point x="261.0" y="567.5" type="curve" smooth="yes"/>
      <point x="198.5" y="547.0" type="line"/>
    </contour>
    <contour>
      <point x="271.5" y="-19.5" type="curve" smooth="yes"/>
      <point x="342.5" y="-19.5"/>
      <point x="377.5" y="24.5"/>
      <point x="377.5" y="102.5" type="curve" smooth="yes"/>
      <point x="377.5" y="116.0" type="line" smooth="yes"/>
      <point x="377.5" y="193.0"/>
      <point x="342.5" y="237.0"/>
      <point x="271.5" y="237.0" type="curve" smooth="yes"/>
      <point x="198.5" y="237.0"/>
      <point x="165.5" y="193.0"/>
      <point x="165.5" y="116.0" type="curve" smooth="yes"/>
      <point x="165.5" y="102.5" type="line" smooth="yes"/>
      <point x="165.5" y="24.5"/>
      <point x="198.5" y="-19.5"/>
    </contour>
  </outline>
</glyph>
<glyph name="at" format="2">
  <advance width="1487.0"/>
  <unicode hex="0040"/>
  <outline>
    <contour>
      <point x="633.5" y="68.5" type="curve" smooth="yes"/>
      <point x="753.5" y="68.5"/>
      <point x="810.5" y="130.0"/>
      <point x="843.5" y="223.5" type="curve"/>
      <point x="879.0" y="223.5" type="line"/>
      <point x="861.5" y="345.5" type="line"/>
      <point x="838.5" y="266.5"/>
      <point x="788.5" y="216.5"/>
      <point x="719.0" y="216.5" type="curve" smooth="yes"/>
      <point x="648.5" y="216.5"/>
      <point x="614.5" y="258.5"/>
      <point x="614.5" y="341.0" type="curve" smooth="yes"/>
      <point x="614.5" y="367.0"/>
      <point x="616.0" y="394.5"/>
      <point x="637.5" y="600.5" type="curve" smooth="yes"/>
      <point x="650.0" y="716.5"/>
      <point x="691.5" y="779.5"/>
      <point x="778.0" y="779.5" type="curve" smooth="yes"/>
      <point x="849.5" y="779.5"/>
      <point x="892.0" y="729.5"/>
      <point x="892.0" y="640.0" type="curve" smooth="yes"/>
      <point x="892.0" y="631.0"/>
      <point x="892.0" y="622.0"/>
      <point x="891.0" y="612.5" type="curve"/>
      <point x="939.0" y="768.5" type="line"/>
      <point x="897.5" y="768.5" type="line"/>
      <point x="883.5" y="862.5"/>
      <point x="833.5" y="923.5"/>
      <point x="721.5" y="923.5" type="curve" smooth="yes"/>
      <point x="557.0" y="923.5"/>
      <point x="481.0" y="802.0"/>
      <point x="457.5" y="579.0" type="curve" smooth="yes"/>
      <point x="436.0" y="370.5"/>
      <point x="434.5" y="344.0"/>
      <point x="434.5" y="309.5" type="curve" smooth="yes"/>
      <point x="434.5" y="152.5"/>
      <point x="502.0" y="68.5"/>
    </contour>
    <contour>
      <point x="833.0" y="80.0" type="line"/>
      <point x="997.0" y="91.0" type="line"/>
      <point x="1086.5" y="909.0" type="line"/>
      <point x="918.0" y="909.0" type="line"/>
      <point x="917.0" y="899.0" type="line"/>
      <point x="902.0" y="724.5" type="line"/>
      <point x="898.0" y="697.0" type="line"/>
      <point x="855.0" y="302.5" type="line"/>
      <point x="859.0" y="275.5" type="line"/>
    </contour>
    <contour>
      <point x="960.0" y="209.5" type="curve"/>
      <point x="833.0" y="80.0" type="line"/>
      <point x="879.5" y="71.5"/>
      <point x="933.5" y="68.0"/>
      <point x="987.5" y="69.5" type="curve" smooth="yes"/>
      <point x="1240.0" y="74.0"/>
      <point x="1351.0" y="179.5"/>
      <point x="1381.5" y="428.0" type="curve" smooth="yes"/>
      <point x="1397.0" y="557.5"/>
      <point x="1407.5" y="671.5"/>
      <point x="1412.0" y="741.5" type="curve" smooth="yes"/>
      <point x="1434.5" y="1132.0"/>
      <point x="1198.5" y="1333.5"/>
      <point x="802.0" y="1333.5" type="curve" smooth="yes"/>
      <point x="375.0" y="1333.5"/>
      <point x="160.0" y="1099.0"/>
      <point x="113.0" y="659.0" type="curve" smooth="yes"/>
      <point x="99.5" y="535.0"/>
      <point x="83.0" y="348.0"/>
      <point x="79.5" y="261.5" type="curve" smooth="yes"/>
      <point x="65.0" y="-130.0"/>
      <point x="295.0" y="-331.5"/>
      <point x="719.5" y="-331.5" type="curve" smooth="yes"/>
      <point x="939.0" y="-331.5"/>
      <point x="1095.5" y="-282.5"/>
      <point x="1206.5" y="-221.0" type="curve"/>
      <point x="1229.5" y="-71.5" type="line"/>
      <point x="1124.5" y="-135.5"/>
      <point x="946.5" y="-195.5"/>
      <point x="732.5" y="-195.5" type="curve" smooth="yes"/>
      <point x="386.5" y="-195.5"/>
      <point x="223.0" y="-29.5"/>
      <point x="234.5" y="269.0" type="curve" smooth="yes"/>
      <point x="238.0" y="348.0"/>
      <point x="254.5" y="519.5"/>
      <point x="270.0" y="667.5" type="curve" smooth="yes"/>
      <point x="304.0" y="986.5"/>
      <point x="452.0" y="1199.5"/>
      <point x="794.5" y="1199.5" type="curve" smooth="yes"/>
      <point x="1122.5" y="1199.5"/>
      <point x="1277.0" y="1022.5"/>
      <point x="1258.0" y="741.5" type="curve" smooth="yes"/>
      <point x="1253.0" y="679.0"/>
      <point x="1240.0" y="542.5"/>
      <point x="1226.5" y="439.0" type="curve" smooth="yes"/>
      <point x="1205.5" y="273.5"/>
      <point x="1148.5" y="208.0"/>
      <point x="1031.0" y="208.0" type="curve" smooth="yes"/>
      <point x="1000.0" y="208.0"/>
      <point x="986.5" y="208.5"/>
    </contour>
  </outline>
</glyph>
<glyph name="A" format="2">
  <advance width="965.0"/>
  <unicode hex="0041"/>
  <anchor x="483.0" y="0.0" name="bottom"/>
  <anchor x="965.5" y="0.0" name="ogonek"/>
  <anchor x="483.0" y="1278.0" name="top"/>
  <outline>
    <contour>
      <point x="40.0" y="0.0" type="line"/>
      <point x="229.0" y="0.0" type="line"/>
      <point x="470.0" y="1146.5" type="line"/>
      <point x="493.5" y="1146.5" type="line"/>
      <point x="736.0" y="0.0" type="line"/>
      <point x="925.0" y="0.0" type="line"/>
      <point x="631.0" y="1278.0" type="line"/>
      <point x="332.5" y="1278.0" type="line"/>
    </contour>
    <contour>
      <point x="251.5" y="350.0" type="line"/>
      <point x="711.5" y="350.0" type="line"/>
      <point x="711.5" y="508.5" type="line"/>
      <point x="251.5" y="508.5" type="line"/>
    </contour>
  </outline>
</glyph>
<glyph name="B" format="2">
  <advance width="965.0"/>
  <unicode hex="0042"/>
  <anchor x="486.0" y="0.0" name="bottom"/>
  <anchor x="486.0" y="1278.0" name="top"/>
  <outline>
    <contour>
      <point x="254.5" y="0.0" type="line"/>
      <point x="544.5" y="0.0" type="line" smooth="yes"/>
      <point x="793.5" y="0.0"/>
      <point x="896.5" y="119.5"/>
      <point x="896.5" y="336.5" type="curve" smooth="yes"/>
      <point x="896.5" y="391.0" type="line" smooth="yes"/>
      <point x="896.5" y="556.5"/>
      <point x="838.0" y="649.5"/>
      <point x="682.5" y="678.5" type="curve"/>
      <point x="682.5" y="688.0" type="line"/>
      <point x="821.0" y="708.0"/>
      <point x="879.0" y="792.0"/>
      <point x="879.0" y="937.5" type="curve" smooth="yes"/>
      <point x="879.0" y="970.5" type="line" smooth="yes"/>
      <point x="879.0" y="1168.0"/>
      <point x="777.5" y="1278.0"/>
      <point x="529.5" y="1278.0" type="curve" smooth="yes"/>
      <point x="249.0" y="1278.0" type="line"/>
      <point x="249.0" y="1119.5" type="line"/>
      <point x="514.5" y="1119.5" type="line" smooth="yes"/>
      <point x="645.0" y="1119.5"/>
      <point x="690.0" y="1055.5"/>
      <point x="690.0" y="942.0" type="curve" smooth="yes"/>
      <point x="690.0" y="907.5" type="line" smooth="yes"/>
      <point x="690.0" y="796.5"/>
      <point x="643.5" y="731.0"/>
      <point x="511.5" y="731.0" type="curve" smooth="yes"/>
      <point x="253.5" y="731.0" type="line"/>
      <point x="253.5" y="579.0" type="line"/>
      <point x="512.0" y="579.0" type="line" smooth="yes"/>
      <point x="658.0" y="579.0"/>
      <point x="706.0" y="513.0"/>
      <point x="706.0" y="395.5" type="curve" smooth="yes"/>
      <point x="706.0" y="342.5" type="line" smooth="yes"/>
      <point x="706.0" y="226.0"/>
      <point x="658.0" y="159.5"/>
      <point x="524.0" y="159.5" type="curve" smooth="yes"/>
      <point x="254.5" y="159.5" type="line"/>
    </contour>
    <contour>
      <point x="120.0" y="0.0" type="line"/>
      <point x="307.5" y="0.0" type="line"/>
      <point x="307.5" y="1278.0" type="line"/>
      <point x="120.0" y="1278.0" type="line"/>
    </contour>
  </outline>
</glyph>
<glyph name="C" format="2">
  <advance width="810.5"/>
  <unicode hex="0043"/>
  <anchor x="450.5" y="0.0" name="bottom"/>
  <anchor x="450.5" y="1278.0" name="top"/>
  <outline>
    <contour>
      <point x="475.5" y="-22.0" type="curve" smooth="yes"/>
      <point x="592.5" y="-22.0"/>
      <point x="683.5" y="13.5"/>
      <point x="737.5" y="49.0" type="curve"/>
      <point x="751.5" y="231.0" type="line"/>
      <point x="692.0" y="187.0"/>
      <point x="616.5" y="153.0"/>
      <point x="516.5" y="153.0" type="curve" smooth="yes"/>
      <point x="354.0" y="153.0"/>
      <point x="280.0" y="254.5"/>
      <point x="280.0" y="431.5" type="curve" smooth="yes"/>
      <point x="280.0" y="850.0" type="line" smooth="yes"/>
      <point x="280.0" y="1028.0"/>
      <point x="352.5" y="1130.0"/>
      <point x="509.5" y="1130.0" type="curve" smooth="yes"/>
      <point x="610.5" y="1130.0"/>
      <point x="683.5" y="1094.5"/>
      <point x="743.0" y="1052.5" type="curve"/>
      <point x="729.0" y="1228.0" type="line"/>
      <point x="674.5" y="1265.0"/>
      <point x="588.0" y="1300.0"/>
      <point x="473.5" y="1300.0" type="curve" smooth="yes"/>
      <point x="213.0" y="1300.0"/>
      <point x="88.0" y="1143.0"/>
      <point x="88.0" y="858.0" type="curve" smooth="yes"/>
      <point x="88.0" y="423.0" type="line" smooth="yes"/>
      <point x="88.0" y="136.0"/>
      <point x="210.5" y="-22.0"/>
    </contour>
  </outline>
</glyph>
<glyph name="D" format="2">
  <advance width="992.0"/>
  <unicode hex="0044"/>
  <anchor x="486.0" y="0.0" name="bottom"/>
  <anchor x="501.5" y="639.0" name="center"/>
  <anchor x="486.0" y="1278.0" name="top"/>
  <outline>
    <contour>
      <point x="245.5" y="0.0" type="line"/>
      <point x="485.5" y="0.0" type="line" smooth="yes"/>
      <point x="768.0" y="0.0"/>
      <point x="906.0" y="150.5"/>
      <point x="906.0" y="424.5" type="curve" smooth="yes"/>
      <point x="906.0" y="854.5" type="line" smooth="yes"/>
      <point x="906.0" y="1128.0"/>
      <point x="766.5" y="1278.0"/>
      <point x="485.5" y="1278.0" type="curve" smooth="yes"/>
      <point x="246.5" y="1278.0" type="line"/>
      <point x="246.5" y="1118.0" type="line"/>
      <point x="477.5" y="1118.0" type="line" smooth="yes"/>
      <point x="636.5" y="1118.0"/>
      <point x="715.0" y="1027.5"/>
      <point x="715.0" y="853.5" type="curve" smooth="yes"/>
      <point x="715.0" y="425.5" type="line" smooth="yes"/>
      <point x="715.0" y="252.5"/>
      <point x="636.5" y="161.5"/>
      <point x="477.5" y="161.5" type="curve" smooth="yes"/>
      <point x="245.5" y="161.5" type="line"/>
    </contour>
    <contour>
      <point x="120.0" y="0.0" type="line"/>
      <point x="308.0" y="0.0" type="line"/>
      <point x="308.0" y="1278.0" type="line"/>
      <point x="120.0" y="1278.0" type="line"/>
    </contour>
  </outline>
</glyph>
<glyph name="E" format="2">
  <advance width="846.0"/>
  <unicode hex="0045"/>
  <anchor x="447.5" y="0.0" name="bottom"/>
  <anchor x="798.5" y="0.0" name="ogonek"/>
  <anchor x="447.5" y="1278.0" name="top"/>
  <anchor x="20.0" y="1278.0" name="topleft"/>
  <outline>
    <contour>
      <point x="120.0" y="0.0" type="line"/>
      <point x="306.0" y="0.0" type="line"/>
      <point x="306.0" y="1278.0" type="line"/>
      <point x="120.0" y="1278.0" type="line"/>
    </contour>
    <contour>
      <point x="203.0" y="0.0" type="line"/>
      <point x="770.0" y="0.0" type="line"/>
      <point x="770.0" y="163.0" type="line"/>
      <point x="203.0" y="163.0" type="line"/>
    </contour>
    <contour>
      <point x="234.0" y="571.0" type="line"/>
      <point x="755.0" y="571.0" type="line"/>
      <point x="755.0" y="732.5" type="line"/>
      <point x="234.0" y="732.5" type="line"/>
    </contour>
    <contour>
      <point x="201.5" y="1115.5" type="line"/>
      <point x="766.5" y="1115.5" type="line"/>
      <point x="766.5" y="1278.0" type="line"/>
      <point x="201.5" y="1278.0" type="line"/>
    </contour>
  </outline>
</glyph>
<glyph name="F" format="2">
  <advance width="807.5"/>
  <unicode hex="0046"/>
  <anchor x="404.0" y="0.0" name="bottom"/>
  <anchor x="404.0" y="1278.0" name="top"/>
  <outline>
    <contour>
      <point x="120.0" y="0.0" type="line"/>
      <point x="309.5" y="0.0" type="line"/>
      <point x="309.5" y="1278.0" type="line"/>
      <point x="120.0" y="1278.0" type="line"/>
    </contour>
    <contour>
      <point x="234.0" y="522.5" type="line"/>
      <point x="733.0" y="522.5" type="line"/>
      <point x="733.0" y="686.5" type="line"/>
      <point x="234.0" y="686.5" type="line"/>
    </contour>
    <contour>
      <point x="201.5" y="1114.0" type="line"/>
      <point x="745.5" y="1114.0" type="line"/>
      <point x="745.5" y="1278.0" type="line"/>
      <point x="201.5" y="1278.0" type="line"/>
    </contour>
  </outline>
</glyph>
<glyph name="G" format="2">
  <advance width="970.0"/>
  <unicode hex="0047"/>
  <anchor x="485.0" y="0.0" name="bottom"/>
  <anchor x="485.0" y="1278.0" name="top"/>
  <outline>
    <contour>
      <point x="428.0" y="-22.5" type="curve" smooth="yes"/>
      <point x="596.0" y="-22.5"/>
      <point x="661.5" y="65.0"/>
      <point x="687.0" y="170.5" type="curve"/>
      <point x="873.5" y="170.0" type="line"/>
      <point x="873.5" y="728.5" type="line"/>
      <point x="511.0" y="728.5" type="line"/>
      <point x="511.0" y="566.5" type="line"/>
      <point x="722.0" y="566.5" type="line"/>
      <point x="690.5" y="644.0" type="line"/>
      <point x="690.5" y="297.5" type="line"/>
      <point x="667.0" y="213.5"/>
      <point x="605.5" y="143.5"/>
      <point x="493.0" y="143.5" type="curve" smooth="yes"/>
      <point x="347.5" y="143.5"/>
      <point x="280.0" y="235.0"/>
      <point x="280.0" y="401.5" type="curve" smooth="yes"/>
      <point x="280.0" y="831.5" type="line" smooth="yes"/>
      <point x="280.0" y="1027.5"/>
      <point x="366.5" y="1131.5"/>
      <point x="558.5" y="1131.5" type="curve" smooth="yes"/>
      <point x="682.0" y="1131.5"/>
      <point x="777.5" y="1091.0"/>
      <point x="850.5" y="1044.5" type="curve"/>
      <point x="834.5" y="1219.5" type="line"/>
      <point x="768.5" y="1260.5"/>
      <point x="662.0" y="1300.0"/>
      <point x="522.0" y="1300.0" type="curve" smooth="yes"/>
      <point x="235.0" y="1300.0"/>
      <point x="88.0" y="1138.5"/>
      <point x="88.0" y="835.5" type="curve" smooth="yes"/>
      <point x="88.0" y="404.0" type="line" smooth="yes"/>
      <point x="88.0" y="133.5"/>
      <point x="195.5" y="-22.5"/>
    </contour>
    <contour>
      <point x="699.0" y="235.5" type="line"/>
      <point x="691.0" y="0.0" type="line"/>
      <point x="873.5" y="0.0" type="line"/>
      <point x="873.5" y="235.5" type="line"/>
    </contour>
  </outline>
</glyph>
<glyph name="H" format="2">
  <advance width="1036.0"/>
  <unicode hex="0048"/>
  <anchor x="518.0" y="0.0" name="bottom"/>
  <anchor x="518.0" y="639.0" name="center"/>
  <anchor x="518.0" y="1278.0" name="top"/>
  <anchor x="20.0" y="1278.0" name="topleft"/>
  <outline>
    <contour>
      <point x="310.5" y="0.0" type="line"/>
      <point x="310.5" y="1278.0" type="line"/>
      <point x="120.0" y="1278.0" type="line"/>
      <point x="120.0" y="0.0" type="line"/>
    </contour>
    <contour>
      <point x="916.0" y="0.0" type="line"/>
      <point x="916.0" y="1278.0" type="line"/>
      <point x="725.5" y="1278.0" type="line"/>
      <point x="725.5" y="0.0" type="line"/>
    </contour>
    <contour>
      <point x="235.5" y="738.0" type="line"/>
      <point x="235.5" y="576.5" type="line"/>
      <point x="795.0" y="576.5" type="line"/>
      <point x="795.0" y="738.0" type="line"/>
    </contour>
  </outline>
</glyph>
<glyph name="I" format="2">
  <advance width="432.5"/>
  <unicode hex="0049"/>
  <anchor x="216.0" y="0.0" name="bottom"/>
  <anchor x="351.0" y="0.0" name="ogonek"/>
  <anchor x="216.0" y="1278.0" name="top"/>
  <anchor x="20.0" y="1278.0" name="topleft"/>
  <outline>
    <contour>
      <point x="311.5" y="0.0" type="line"/>
      <point x="311.5" y="1278.0" type="line"/>
      <point x="121.0" y="1278.0" type="line"/>
      <point x="121.0" y="0.0" type="line"/>
    </contour>
  </outline>
</glyph>
<glyph name="J" format="2">
  <advance width="664.0"/>
  <unicode hex="004A"/>
  <anchor x="333.0" y="0.0" name="bottom"/>
  <anchor x="455.5" y="1278.0" name="top"/>
  <outline>
    <contour>
      <point x="239.5" y="-17.0" type="curve" smooth="yes"/>
      <point x="466.5" y="-17.0"/>
      <point x="551.5" y="103.5"/>
      <point x="551.5" y="325.5" type="curve" smooth="yes"/>
      <point x="551.5" y="1278.0" type="line"/>
      <point x="361.5" y="1278.0" type="line"/>
      <point x="361.5" y="331.5" type="line" smooth="yes"/>
      <point x="361.5" y="213.0"/>
      <point x="322.5" y="150.0"/>
      <point x="198.0" y="150.0" type="curve" smooth="yes"/>
      <point x="143.5" y="150.0"/>
      <point x="94.0" y="161.5"/>
      <point x="44.0" y="183.0" type="curve"/>
      <point x="57.5" y="15.0" type="line"/>
      <point x="108.0" y="-6.0"/>
      <point x="173.5" y="-17.0"/>
    </contour>
  </outline>
</glyph>
<glyph name="K" format="2">
  <advance width="954.0"/>
  <unicode hex="004B"/>
  <anchor x="493.5" y="0.0" name="bottom"/>
  <anchor x="493.5" y="1278.0" name="top"/>
  <outline>
    <contour>
      <point x="719.5" y="0.0" type="line"/>
      <point x="929.5" y="0.0" type="line"/>
      <point x="544.5" y="690.5" type="line"/>
      <point x="546.0" y="642.0" type="line"/>
      <point x="918.0" y="1278.0" type="line"/>
      <point x="712.5" y="1278.0" type="line"/>
      <point x="399.0" y="732.0" type="line"/>
      <point x="289.5" y="732.0" type="line"/>
      <point x="289.5" y="575.5" type="line"/>
      <point x="399.0" y="575.5" type="line"/>
    </contour>
    <contour>
      <point x="120.0" y="0.0" type="line"/>
      <point x="307.0" y="0.0" type="line"/>
      <point x="307.0" y="1278.0" type="line"/>
      <point x="120.0" y="1278.0" type="line"/>
    </contour>
  </outline>
</glyph>
<glyph name="L" format="2">
  <advance width="788.5"/>
  <unicode hex="004C"/>
  <anchor x="424.5" y="0.0" name="bottom"/>
  <anchor x="354.5" y="649.5" name="center"/>
  <anchor x="215.5" y="1278.0" name="top"/>
  <anchor x="542.0" y="1278.0" name="topright"/>
  <outline>
    <contour>
      <point x="310.0" y="0.0" type="line"/>
      <point x="310.0" y="1278.0" type="line"/>
      <point x="120.0" y="1278.0" type="line"/>
      <point x="120.0" y="0.0" type="line"/>
    </contour>
    <contour>
      <point x="228.5" y="165.0" type="line"/>
      <point x="228.5" y="0.0" type="line"/>
      <point x="743.5" y="0.0" type="line"/>
      <point x="743.5" y="165.0" type="line"/>
    </contour>
  </outline>
</glyph>
<glyph name="M" format="2">
  <advance width="1273.5"/>
  <unicode hex="004D"/>
  <anchor x="637.5" y="0.0" name="bottom"/>
  <anchor x="637.5" y="1278.0" name="top"/>
  <outline>
    <contour>
      <point x="108.0" y="0.0" type="line"/>
      <point x="289.5" y="0.0" type="line"/>
      <point x="297.5" y="463.0" type="line"/>
      <point x="301.5" y="1062.5" type="line"/>
      <point x="313.5" y="1062.5" type="line"/>
      <point x="540.5" y="144.5" type="line"/>
      <point x="733.0" y="144.5" type="line"/>
      <point x="960.0" y="1062.5" type="line"/>
      <point x="972.0" y="1062.5" type="line"/>
      <point x="976.0" y="463.5" type="line"/>
      <point x="984.0" y="0.0" type="line"/>
      <point x="1165.5" y="0.0" type="line"/>
      <point x="1138.0" y="1278.0" type="line"/>
      <point x="853.0" y="1278.0" type="line"/>
      <point x="642.5" y="400.5" type="line"/>
      <point x="632.0" y="400.5" type="line"/>
      <point x="420.5" y="1278.0" type="line"/>
      <point x="135.5" y="1278.0" type="line"/>
    </contour>
  </outline>
</glyph>
<glyph name="N" format="2">
  <advance width="1049.0"/>
  <unicode hex="004E"/>
  <anchor x="528.5" y="0.0" name="bottom"/>
  <anchor x="528.5" y="1278.0" name="top"/>
  <outline>
    <contour>
      <point x="401.0" y="1278.5" type="line"/>
      <point x="120.0" y="1278.5" type="line"/>
      <point x="120.0" y="0.0" type="line"/>
      <point x="302.0" y="0.0" type="line"/>
      <point x="302.0" y="480.5" type="line"/>
      <point x="290.5" y="1080.0" type="line"/>
      <point x="301.5" y="1080.0" type="line"/>
      <point x="651.5" y="0.0" type="line"/>
      <point x="929.0" y="0.0" type="line"/>
      <point x="929.0" y="1278.5" type="line"/>
      <point x="747.5" y="1278.5" type="line"/>
      <point x="747.5" y="792.5" type="line"/>
      <point x="758.5" y="208.5" type="line"/>
      <point x="747.5" y="208.5" type="line"/>
    </contour>
  </outline>
</glyph>
<glyph name="O" format="2">
  <advance width="1001.5"/>
  <unicode hex="004F"/>
  <anchor x="500.5" y="0.0" name="bottom"/>
  <anchor x="500.5" y="639.0" name="center"/>
  <anchor x="726.5" y="5.0" name="ogonek"/>
  <anchor x="500.5" y="1278.0" name="top"/>
  <anchor x="13.0" y="1278.0" name="topleft"/>
  <anchor x="899.0" y="1278.0" name="topright"/>
  <outline>
    <contour>
      <point x="500.5" y="-22.5" type="curve" smooth="yes"/>
      <point x="773.5" y="-22.5"/>
      <point x="913.5" y="134.5"/>
      <point x="913.5" y="424.0" type="curve" smooth="yes"/>
      <point x="913.5" y="854.0" type="line" smooth="yes"/>
      <point x="913.5" y="1142.5"/>
      <point x="773.5" y="1300.5"/>
      <point x="500.5" y="1300.5" type="curve" smooth="yes"/>
      <point x="227.0" y="1300.5"/>
      <point x="88.0" y="1142.5"/>
      <point x="88.0" y="854.0" type="curve" smooth="yes"/>
      <point x="88.0" y="424.0" type="line" smooth="yes"/>
      <point x="88.0" y="134.5"/>
      <point x="227.0" y="-22.5"/>
    </contour>
    <contour>
      <point x="500.5" y="137.5" type="curve" smooth="yes"/>
      <point x="350.0" y="137.5"/>
      <point x="280.0" y="236.0"/>
      <point x="280.0" y="411.0" type="curve" smooth="yes"/>
      <point x="280.0" y="867.5" type="line" smooth="yes"/>
      <point x="280.0" y="1043.5"/>
      <point x="350.0" y="1140.5"/>
      <point x="500.5" y="1140.5" type="curve" smooth="yes"/>
      <point x="650.5" y="1140.5"/>
      <point x="721.0" y="1043.5"/>
      <point x="721.0" y="867.5" type="curve" smooth="yes"/>
      <point x="721.0" y="411.0" type="line" smooth="yes"/>
      <point x="721.0" y="236.0"/>
      <point x="650.5" y="137.5"/>
    </contour>
  </outline>
</glyph>
<glyph name="P" format="2">
  <advance width="933.5"/>
  <unicode hex="0050"/>
  <anchor x="466.0" y="0.0" name="bottom"/>
  <anchor x="466.0" y="1278.0" name="top"/>
  <outline>
    <contour>
      <point x="237.5" y="409.0" type="line"/>
      <point x="501.5" y="409.0" type="line" smooth="yes"/>
      <point x="753.5" y="409.0"/>
      <point x="866.5" y="538.0"/>
      <point x="866.5" y="769.5" type="curve" smooth="yes"/>
      <point x="866.5" y="919.0" type="line" smooth="yes"/>
      <point x="866.5" y="1146.5"/>
      <point x="754.0" y="1278.0"/>
      <point x="501.5" y="1278.0" type="curve" smooth="yes"/>
      <point x="238.5" y="1278.0" type="line"/>
      <point x="238.5" y="1119.0" type="line"/>
      <point x="496.0" y="1119.0" type="line" smooth="yes"/>
      <point x="624.0" y="1119.0"/>
      <point x="678.0" y="1047.5"/>
      <point x="678.0" y="914.5" type="curve" smooth="yes"/>
      <point x="678.0" y="773.5" type="line" smooth="yes"/>
      <point x="678.0" y="641.5"/>
      <point x="624.0" y="568.5"/>
      <point x="494.5" y="568.5" type="curve" smooth="yes"/>
      <point x="237.5" y="568.5" type="line"/>
    </contour>
    <contour>
      <point x="120.0" y="0.0" type="line"/>
      <point x="308.0" y="0.0" type="line"/>
      <point x="308.0" y="434.0" type="line"/>
      <point x="306.5" y="522.5" type="line"/>
      <point x="306.5" y="1278.0" type="line"/>
      <point x="120.0" y="1278.0" type="line"/>
    </contour>
  </outline>
</glyph>
<glyph name="Q" format="2">
  <advance width="1004.0"/>
  <unicode hex="0051"/>
  <anchor x="502.5" y="0.0" name="bottom"/>
  <anchor x="502.5" y="1278.0" name="top"/>
  <outline>
    <contour>
      <point x="999.5" y="-36.0" type="line"/>
      <point x="999.5" y="127.5" type="line"/>
      <point x="689.5" y="119.0" type="line"/>
      <point x="689.5" y="129.0" type="line"/>
      <point x="829.5" y="160.5"/>
      <point x="913.5" y="256.0"/>
      <point x="913.5" y="465.0" type="curve" smooth="yes"/>
      <point x="913.5" y="849.0" type="line" smooth="yes"/>
      <point x="913.5" y="1142.0"/>
      <point x="772.5" y="1300.5"/>
      <point x="500.5" y="1300.5" type="curve" smooth="yes"/>
      <point x="228.0" y="1300.5"/>
      <point x="88.0" y="1142.0"/>
      <point x="88.0" y="849.0" type="curve" smooth="yes"/>
      <point x="88.0" y="431.0" type="line" smooth="yes"/>
      <point x="88.0" y="139.0"/>
      <point x="223.5" y="-12.5"/>
      <point x="555.5" y="-22.5" type="curve" smooth="yes"/>
    </contour>
    <contour>
      <point x="527.0" y="137.0" type="line" smooth="yes"/>
      <point x="364.0" y="141.5"/>
      <point x="280.0" y="237.5"/>
      <point x="280.0" y="416.0" type="curve" smooth="yes"/>
      <point x="280.0" y="861.5" type="line" smooth="yes"/>
      <point x="280.0" y="1044.0"/>
      <point x="351.0" y="1141.0"/>
      <point x="500.5" y="1141.0" type="curve" smooth="yes"/>
      <point x="649.5" y="1141.0"/>
      <point x="721.0" y="1044.0"/>
      <point x="721.0" y="861.5" type="curve" smooth="yes"/>
      <point x="721.0" y="423.5" type="line" smooth="yes"/>
      <point x="721.0" y="246.0"/>
      <point x="646.5" y="164.0"/>
      <point x="545.5" y="136.5" type="curve"/>
    </contour>
  </outline>
</glyph>
<glyph name="R" format="2">
  <advance width="958.5"/>
  <unicode hex="0052"/>
  <anchor x="491.0" y="0.0" name="bottom"/>
  <anchor x="481.0" y="1278.0" name="top"/>
  <outline>
    <contour>
      <point x="700.0" y="0.0" type="line"/>
      <point x="893.5" y="0.0" type="line"/>
      <point x="856.5" y="298.0" type="line" smooth="yes"/>
      <point x="832.5" y="487.5"/>
      <point x="791.0" y="589.5"/>
      <point x="599.5" y="609.0" type="curve"/>
      <point x="667.5" y="584.0" type="line"/>
      <point x="667.5" y="606.0" type="line"/>
      <point x="818.5" y="630.5"/>
      <point x="876.0" y="728.0"/>
      <point x="876.0" y="877.0" type="curve" smooth="yes"/>
      <point x="876.0" y="953.5" type="line" smooth="yes"/>
      <point x="876.0" y="1159.5"/>
      <point x="769.5" y="1278.0"/>
      <point x="521.0" y="1278.0" type="curve" smooth="yes"/>
      <point x="248.5" y="1278.0" type="line"/>
      <point x="248.5" y="1119.0" type="line"/>
      <point x="500.5" y="1119.0" type="line" smooth="yes"/>
      <point x="636.5" y="1119.0"/>
      <point x="686.0" y="1049.0"/>
      <point x="686.0" y="920.0" type="curve" smooth="yes"/>
      <point x="686.0" y="844.0" type="line" smooth="yes"/>
      <point x="686.0" y="720.0"/>
      <point x="636.0" y="648.5"/>
      <point x="500.0" y="648.0" type="curve" smooth="yes"/>
      <point x="254.0" y="647.0" type="line"/>
      <point x="254.0" y="495.5" type="line"/>
      <point x="481.5" y="495.0" type="line" smooth="yes"/>
      <point x="620.5" y="494.5"/>
      <point x="657.5" y="410.5"/>
      <point x="671.0" y="285.0" type="curve" smooth="yes"/>
    </contour>
    <contour>
      <point x="120.0" y="0.0" type="line"/>
      <point x="308.0" y="0.0" type="line"/>
      <point x="308.0" y="524.0" type="line"/>
      <point x="307.0" y="598.5" type="line"/>
      <point x="307.0" y="1278.0" type="line"/>
      <point x="120.0" y="1278.0" type="line"/>
    </contour>
  </outline>
</glyph>
<glyph name="S" format="2">
  <advance width="835.5"/>
  <unicode hex="0053"/>
  <anchor x="407.0" y="0.0" name="bottom"/>
  <anchor x="407.0" y="1278.0" name="top"/>
  <outline>
    <contour>
      <point x="388.5" y="-21.5" type="curve" smooth="yes"/>
      <point x="643.5" y="-21.5"/>
      <point x="767.0" y="100.0"/>
      <point x="767.0" y="321.5" type="curve" smooth="yes"/>
      <point x="767.0" y="356.0" type="line" smooth="yes"/>
      <point x="767.0" y="555.0"/>
      <point x="684.5" y="632.0"/>
      <point x="482.5" y="717.5" type="curve" smooth="yes"/>
      <point x="310.0" y="791.5"/>
      <point x="255.5" y="843.0"/>
      <point x="255.5" y="955.0" type="curve" smooth="yes"/>
      <point x="255.5" y="968.0" type="line" smooth="yes"/>
      <point x="255.5" y="1073.0"/>
      <point x="310.0" y="1132.0"/>
      <point x="450.5" y="1132.0" type="curve" smooth="yes"/>
      <point x="566.5" y="1132.0"/>
      <point x="658.0" y="1096.0"/>
      <point x="730.0" y="1050.0" type="curve"/>
      <point x="715.0" y="1226.5" type="line"/>
      <point x="650.0" y="1265.0"/>
      <point x="551.5" y="1299.5"/>
      <point x="414.5" y="1299.5" type="curve" smooth="yes"/>
      <point x="181.5" y="1299.5"/>
      <point x="64.5" y="1182.0"/>
      <point x="64.5" y="978.5" type="curve" smooth="yes"/>
      <point x="64.5" y="956.5" type="line" smooth="yes"/>
      <point x="64.5" y="765.0"/>
      <point x="155.5" y="673.5"/>
      <point x="362.5" y="586.5" type="curve" smooth="yes"/>
      <point x="518.0" y="521.5"/>
      <point x="576.0" y="475.0"/>
      <point x="576.0" y="358.0" type="curve" smooth="yes"/>
      <point x="576.0" y="328.0" type="line" smooth="yes"/>
      <point x="576.0" y="213.0"/>
      <point x="512.5" y="151.5"/>
      <point x="368.0" y="151.5" type="curve" smooth="yes"/>
      <point x="250.5" y="151.5"/>
      <point x="145.0" y="192.5"/>
      <point x="66.5" y="240.0" type="curve"/>
      <point x="82.0" y="52.5" type="line"/>
      <point x="145.5" y="16.0"/>
      <point x="253.5" y="-21.5"/>
    </contour>
  </outline>
</glyph>
<glyph name="T" format="2">
  <advance width="860.0"/>
  <unicode hex="0054"/>
  <anchor x="430.0" y="0.0" name="bottom"/>
  <anchor x="430.0" y="639.0" name="center"/>
  <anchor x="430.0" y="1278.0" name="top"/>
  <outline>
    <contour>
      <point x="335.0" y="0.0" type="line"/>
      <point x="525.5" y="0.0" type="line"/>
      <point x="525.5" y="1260.5" type="line"/>
      <point x="335.0" y="1260.5" type="line"/>
    </contour>
    <contour>
      <point x="46.0" y="1115.0" type="line"/>
      <point x="814.0" y="1115.0" type="line"/>
      <point x="814.0" y="1278.0" type="line"/>
      <point x="46.0" y="1278.0" type="line"/>
    </contour>
  </outline>
</glyph>
<glyph name="U" format="2">
  <advance width="1019.0"/>
  <unicode hex="0055"/>
  <anchor x="509.5" y="0.0" name="bottom"/>
  <anchor x="729.0" y="5.0" name="ogonek"/>
  <anchor x="509.5" y="1278.0" name="top"/>
  <anchor x="1005.5" y="1278.0" name="topright"/>
  <outline>
    <contour>
      <point x="509.5" y="-22.5" type="curve" smooth="yes"/>
      <point x="781.0" y="-22.5"/>
      <point x="907.5" y="125.0"/>
      <point x="907.5" y="404.0" type="curve" smooth="yes"/>
      <point x="907.5" y="1278.0" type="line"/>
      <point x="717.0" y="1278.0" type="line"/>
      <point x="717.0" y="393.5" type="line" smooth="yes"/>
      <point x="717.0" y="227.0"/>
      <point x="657.0" y="140.0"/>
      <point x="509.5" y="140.0" type="curve" smooth="yes"/>
      <point x="362.0" y="140.0"/>
      <point x="302.0" y="227.0"/>
      <point x="302.0" y="393.5" type="curve" smooth="yes"/>
      <point x="302.0" y="1278.0" type="line"/>
      <point x="111.5" y="1278.0" type="line"/>
      <point x="111.5" y="404.0" type="line" smooth="yes"/>
      <point x="111.5" y="125.0"/>
      <point x="238.5" y="-22.5"/>
    </contour>
  </outline>
</glyph>
<glyph name="V" format="2">
  <advance width="953.0"/>
  <unicode hex="0056"/>
  <anchor x="476.5" y="0.0" name="bottom"/>
  <anchor x="476.5" y="1278.0" name="top"/>
  <outline>
    <contour>
      <point x="325.5" y="0.0" type="line"/>
      <point x="628.0" y="0.0" type="line"/>
      <point x="914.0" y="1278.0" type="line"/>
      <point x="719.5" y="1278.0" type="line"/>
      <point x="487.0" y="140.5" type="line"/>
      <point x="465.5" y="140.5" type="line"/>
      <point x="233.5" y="1278.0" type="line"/>
      <point x="39.0" y="1278.0" type="line"/>
    </contour>
  </outline>
</glyph>
<glyph name="W" format="2">
  <advance width="1380.5"/>
  <unicode hex="0057"/>
  <anchor x="690.5" y="0.0" name="bottom"/>
  <anchor x="690.5" y="1278.0" name="top"/>
  <outline>
    <contour>
      <point x="241.5" y="0.0" type="line"/>
      <point x="539.0" y="0.0" type="line"/>
      <point x="630.5" y="656.5" type="line"/>
      <point x="684.0" y="1091.5" type="line"/>
      <point x="697.0" y="1091.5" type="line"/>
      <point x="750.5" y="656.5" type="line"/>
      <point x="842.5" y="0.0" type="line"/>
      <point x="1139.5" y="0.0" type="line"/>
      <point x="1328.5" y="1278.0" type="line"/>
      <point x="1137.0" y="1278.0" type="line"/>
      <point x="1024.5" y="451.5" type="line"/>
      <point x="990.5" y="158.5" type="line"/>
      <point x="977.0" y="158.5" type="line"/>
      <point x="941.0" y="451.5" type="line"/>
      <point x="825.0" y="1248.5" type="line"/>
      <point x="556.0" y="1248.5" type="line"/>
      <point x="439.5" y="451.5" type="line"/>
      <point x="403.5" y="158.5" type="line"/>
      <point x="390.5" y="158.5" type="line"/>
      <point x="356.5" y="451.5" type="line"/>
      <point x="244.0" y="1278.0" type="line"/>
      <point x="52.0" y="1278.0" type="line"/>
    </contour>
  </outline>
</glyph>
<glyph name="X" format="2">
  <advance width="935.0"/>
  <unicode hex="0058"/>
  <anchor x="468.0" y="0.0" name="bottom"/>
  <anchor x="468.0" y="1278.0" name="top"/>
  <outline>
    <contour>
      <point x="40.5" y="0.0" type="line"/>
      <point x="240.0" y="0.0" type="line"/>
      <point x="461.5" y="556.5" type="line"/>
      <point x="474.0" y="556.5" type="line"/>
      <point x="695.0" y="0.0" type="line"/>
      <point x="894.5" y="0.0" type="line"/>
      <point x="605.5" y="688.0" type="line"/>
      <point x="605.5" y="641.0" type="line"/>
      <point x="887.0" y="1278.0" type="line"/>
      <point x="690.0" y="1278.0" type="line"/>
      <point x="474.0" y="761.0" type="line"/>
      <point x="462.0" y="761.0" type="line"/>
      <point x="245.5" y="1278.0" type="line"/>
      <point x="48.5" y="1278.0" type="line"/>
      <point x="330.0" y="641.0" type="line"/>
      <point x="330.0" y="688.0" type="line"/>
    </contour>
  </outline>
</glyph>
<glyph name="Y" format="2">
  <advance width="906.5"/>
  <unicode hex="0059"/>
  <anchor x="453.5" y="0.0" name="bottom"/>
  <anchor x="453.5" y="1278.0" name="top"/>
  <anchor x="20.0" y="1278.0" name="topleft"/>
  <outline>
    <contour>
      <point x="369.0" y="375.5" type="line"/>
      <point x="539.0" y="375.5" type="line"/>
      <point x="881.0" y="1278.0" type="line"/>
      <point x="686.0" y="1278.0" type="line"/>
      <point x="529.0" y="826.5" type="line"/>
      <point x="460.0" y="607.5" type="line"/>
      <point x="448.0" y="607.5" type="line"/>
      <point x="379.5" y="826.5" type="line"/>
      <point x="220.5" y="1278.0" type="line"/>
      <point x="25.5" y="1278.0" type="line"/>
    </contour>
    <contour>
      <point x="362.0" y="0.0" type="line"/>
      <point x="546.0" y="0.0" type="line"/>
      <point x="546.0" y="560.5" type="line"/>
      <point x="362.0" y="560.5" type="line"/>
    </contour>
  </outline>
</glyph>
<glyph name="Z" format="2">
  <advance width="844.5"/>
  <unicode hex="005A"/>
  <anchor x="423.0" y="0.0" name="bottom"/>
  <anchor x="423.0" y="639.0" name="center"/>
  <anchor x="423.0" y="1278.0" name="top"/>
  <outline>
    <contour>
      <point x="778.0" y="164.5" type="line"/>
      <point x="275.5" y="164.5" type="line"/>
      <point x="771.0" y="1128.0" type="line"/>
      <point x="771.0" y="1278.0" type="line"/>
      <point x="72.0" y="1278.0" type="line"/>
      <point x="72.0" y="1114.5" type="line"/>
      <point x="562.0" y="1114.5" type="line"/>
      <point x="66.5" y="151.5" type="line"/>
      <point x="66.5" y="0.0" type="line"/>
      <point x="778.0" y="0.0" type="line"/>
    </contour>
  </outline>
</glyph>
<glyph name="bracketleft" format="2">
  <advance width="537.0"/>
  <unicode hex="005B"/>
  <outline>
    <contour>
      <point x="122.0" y="-242.0" type="line"/>
      <point x="493.5" y="-242.0" type="line"/>
      <point x="493.5" y="-98.5" type="line"/>
      <point x="295.0" y="-98.5" type="line"/>
      <point x="295.0" y="1208.0" type="line"/>
      <point x="493.5" y="1208.0" type="line"/>
      <point x="493.5" y="1351.5" type="line"/>
      <point x="122.0" y="1351.5" type="line"/>
    </contour>
  </outline>
</glyph>
<glyph name="backslash" format="2">
  <advance width="694.5"/>
  <unicode hex="005C"/>
  <outline>
    <contour>
      <point x="671.5" y="-241.0" type="line"/>
      <point x="193.0" y="1347.5" type="line"/>
      <point x="23.0" y="1347.5" type="line"/>
      <point x="500.5" y="-241.0" type="line"/>
    </contour>
  </outline>
</glyph>
<glyph name="bracketright" format="2">
  <advance width="537.0"/>
  <unicode hex="005D"/>
  <outline>
    <contour>
      <point x="415.0" y="-242.0" type="line"/>
      <point x="415.0" y="1351.5" type="line"/>
      <point x="43.5" y="1351.5" type="line"/>
      <point x="43.5" y="1208.0" type="line"/>
      <point x="242.0" y="1208.0" type="line"/>
      <point x="242.0" y="-98.5" type="line"/>
      <point x="43.5" y="-98.5" type="line"/>
      <point x="43.5" y="-242.0" type="line"/>
    </contour>
  </outline>
</glyph>
<glyph name="asciicircum" format="2">
  <advance width="719.5"/>
  <unicode hex="005E"/>
  <outline>
    <contour>
      <point x="237.5" y="1278.0" type="line"/>
      <point x="42.5" y="617.5" type="line"/>
      <point x="197.5" y="617.5" type="line"/>
      <point x="354.0" y="1163.5" type="line"/>
      <point x="365.0" y="1163.5" type="line"/>
      <point x="522.0" y="617.5" type="line"/>
      <point x="677.0" y="617.5" type="line"/>
      <point x="481.5" y="1278.0" type="line"/>
    </contour>
  </outline>
</glyph>
<glyph name="underscore" format="2">
  <advance width="746.5"/>
  <unicode hex="005F"/>
  <outline>
    <contour>
      <point x="42.0" y="-209.0" type="line"/>
      <point x="704.5" y="-209.0" type="line"/>
      <point x="704.5" y="-64.5" type="line"/>
      <point x="42.0" y="-64.5" type="line"/>
    </contour>
  </outline>
</glyph>
<glyph name="grave" format="2">
  <advance width="541.5"/>
  <unicode hex="0060"/>
  <anchor x="369.0" y="988.0" name="_top"/>
  <anchor x="365.0" y="1325.0" name="top"/>
  <outline>
    <contour>
      <point x="293.0" y="1358.5" type="line"/>
      <point x="96.0" y="1358.5" type="line"/>
      <point x="96.0" y="1357.0" type="line"/>
      <point x="290.5" y="1092.5" type="line"/>
      <point x="446.5" y="1092.5" type="line"/>
      <point x="446.5" y="1094.0" type="line"/>
    </contour>
  </outline>
</glyph>
<glyph name="a" format="2">
  <advance width="843.0"/>
  <unicode hex="0061"/>
  <anchor x="415.5" y="0.0" name="bottom"/>
  <anchor x="784.0" y="0.0" name="ogonek"/>
  <anchor x="415.5" y="988.0" name="top"/>
  <outline>
    <contour>
      <point x="565.5" y="0.0" type="line"/>
      <point x="749.0" y="0.0" type="line"/>
      <point x="749.0" y="655.0" type="line" smooth="yes"/>
      <point x="749.0" y="878.5"/>
      <point x="656.0" y="1007.5"/>
      <point x="409.0" y="1007.5" type="curve" smooth="yes"/>
      <point x="278.5" y="1007.5"/>
      <point x="176.0" y="966.5"/>
      <point x="108.0" y="925.0" type="curve"/>
      <point x="93.0" y="765.0" type="line"/>
      <point x="170.5" y="809.0"/>
      <point x="268.0" y="850.0"/>
      <point x="375.5" y="850.0" type="curve" smooth="yes"/>
      <point x="510.5" y="850.0"/>
      <point x="566.0" y="787.0"/>
      <point x="566.0" y="650.0" type="curve"/>
      <point x="565.5" y="585.5" type="line"/>
      <point x="565.5" y="217.0" type="line"/>
      <point x="573.0" y="202.0" type="line"/>
    </contour>
    <contour>
      <point x="308.0" y="-18.0" type="curve" smooth="yes"/>
      <point x="471.0" y="-18.0"/>
      <point x="537.0" y="68.0"/>
      <point x="562.5" y="173.5" type="curve"/>
      <point x="593.5" y="173.5" type="line"/>
      <point x="569.5" y="299.5" type="line"/>
      <point x="550.0" y="207.5"/>
      <point x="485.5" y="136.5"/>
      <point x="375.0" y="136.5" type="curve" smooth="yes"/>
      <point x="282.5" y="136.5"/>
      <point x="242.5" y="188.0"/>
      <point x="242.5" y="279.0" type="curve" smooth="yes"/>
      <point x="242.5" y="306.5" type="line" smooth="yes"/>
      <point x="242.5" y="391.5"/>
      <point x="283.5" y="434.0"/>
      <point x="389.0" y="455.0" type="curve" smooth="yes"/>
      <point x="601.5" y="497.0" type="line"/>
      <point x="587.0" y="637.0" type="line"/>
      <point x="356.0" y="591.0" type="line" smooth="yes"/>
      <point x="148.5" y="548.5"/>
      <point x="59.0" y="470.5"/>
      <point x="59.0" y="296.5" type="curve" smooth="yes"/>
      <point x="59.0" y="252.0" type="line" smooth="yes"/>
      <point x="59.0" y="78.0"/>
      <point x="144.0" y="-18.0"/>
    </contour>
  </outline>
</glyph>
<glyph name="b" format="2">
  <advance width="913.5"/>
  <unicode hex="0062"/>
  <anchor x="461.0" y="0.0" name="bottom"/>
  <anchor x="461.0" y="1326.5" name="top"/>
  <outline>
    <contour>
      <point x="542.5" y="-18.0" type="curve" smooth="yes"/>
      <point x="740.5" y="-18.0"/>
      <point x="835.0" y="116.5"/>
      <point x="835.0" y="370.0" type="curve" smooth="yes"/>
      <point x="835.0" y="621.0" type="line" smooth="yes"/>
      <point x="835.0" y="872.5"/>
      <point x="741.0" y="1006.0"/>
      <point x="546.5" y="1006.0" type="curve" smooth="yes"/>
      <point x="392.0" y="1006.0"/>
      <point x="322.5" y="923.0"/>
      <point x="296.0" y="815.0" type="curve"/>
      <point x="249.5" y="815.0" type="line"/>
      <point x="284.0" y="690.0" type="line"/>
      <point x="305.0" y="785.0"/>
      <point x="371.5" y="855.5"/>
      <point x="477.0" y="855.5" type="curve" smooth="yes"/>
      <point x="593.5" y="855.5"/>
      <point x="649.5" y="780.5"/>
      <point x="649.5" y="637.0" type="curve" smooth="yes"/>
      <point x="649.5" y="359.5" type="line" smooth="yes"/>
      <point x="649.5" y="212.0"/>
      <point x="592.5" y="136.5"/>
      <point x="477.5" y="136.5" type="curve" smooth="yes"/>
      <point x="362.5" y="136.5"/>
      <point x="290.5" y="211.0"/>
      <point x="286.5" y="345.5" type="curve"/>
      <point x="235.5" y="173.0" type="line"/>
      <point x="293.5" y="173.0" type="line"/>
      <point x="322.0" y="59.5"/>
      <point x="398.5" y="-18.0"/>
    </contour>
    <contour>
      <point x="106.0" y="0.0" type="line"/>
      <point x="290.5" y="0.0" type="line"/>
      <point x="283.0" y="200.5" type="line"/>
      <point x="286.5" y="241.5" type="line"/>
      <point x="286.5" y="742.5" type="line"/>
      <point x="285.5" y="770.5" type="line"/>
      <point x="290.0" y="1039.0" type="line"/>
      <point x="290.0" y="1326.5" type="line"/>
      <point x="106.0" y="1326.5" type="line"/>
    </contour>
  </outline>
</glyph>
<glyph name="c" format="2">
  <advance width="714.0"/>
  <unicode hex="0063"/>
  <anchor x="399.0" y="0.0" name="bottom"/>
  <anchor x="399.0" y="988.0" name="top"/>
  <outline>
    <contour>
      <point x="427.0" y="-18.5" type="curve" smooth="yes"/>
      <point x="524.5" y="-18.5"/>
      <point x="603.0" y="11.5"/>
      <point x="652.5" y="47.0" type="curve"/>
      <point x="667.0" y="208.0" type="line"/>
      <point x="614.0" y="171.0"/>
      <point x="550.0" y="142.5"/>
      <point x="466.0" y="142.5" type="curve" smooth="yes"/>
      <point x="326.0" y="142.5"/>
      <point x="263.0" y="226.5"/>
      <point x="263.0" y="373.5" type="curve" smooth="yes"/>
      <point x="263.0" y="616.0" type="line" smooth="yes"/>
      <point x="263.0" y="766.5"/>
      <point x="323.5" y="849.5"/>
      <point x="463.0" y="849.5" type="curve" smooth="yes"/>
      <point x="547.5" y="849.5"/>
      <point x="609.0" y="821.0"/>
      <point x="659.5" y="784.0" type="curve"/>
      <point x="645.0" y="942.5" type="line"/>
      <point x="596.5" y="976.5"/>
      <point x="521.0" y="1007.0"/>
      <point x="426.0" y="1007.0" type="curve" smooth="yes"/>
      <point x="188.5" y="1007.0"/>
      <point x="77.5" y="866.0"/>
      <point x="77.5" y="619.0" type="curve" smooth="yes"/>
      <point x="77.5" y="369.0" type="line" smooth="yes"/>
      <point x="77.5" y="122.5"/>
      <point x="188.0" y="-18.5"/>
    </contour>
  </outline>
</glyph>
<glyph name="d" format="2">
  <advance width="913.5"/>
  <unicode hex="0064"/>
  <anchor x="452.5" y="0.0" name="bottom"/>
  <anchor x="452.5" y="494.5" name="center"/>
  <anchor x="452.5" y="1326.5" name="top"/>
  <anchor x="933.0" y="1326.5" name="topright"/>
  <outline>
    <contour>
      <point x="367.5" y="-18.0" type="curve" smooth="yes"/>
      <point x="523.5" y="-18.0"/>
      <point x="593.5" y="65.0"/>
      <point x="620.0" y="173.0" type="curve"/>
      <point x="667.0" y="173.0" type="line"/>
      <point x="629.5" y="302.0" type="line"/>
      <point x="608.5" y="207.0"/>
      <point x="542.0" y="136.5"/>
      <point x="437.0" y="136.5" type="curve" smooth="yes"/>
      <point x="320.0" y="136.5"/>
      <point x="264.0" y="211.5"/>
      <point x="264.0" y="354.5" type="curve" smooth="yes"/>
      <point x="264.0" y="634.0" type="line" smooth="yes"/>
      <point x="264.0" y="780.0"/>
      <point x="321.5" y="855.5"/>
      <point x="437.5" y="855.5" type="curve" smooth="yes"/>
      <point x="553.5" y="855.5"/>
      <point x="623.5" y="779.0"/>
      <point x="627.0" y="646.5" type="curve"/>
      <point x="675.5" y="815.0" type="line"/>
      <point x="617.5" y="815.0" type="line"/>
      <point x="589.0" y="928.5"/>
      <point x="514.0" y="1006.0"/>
      <point x="371.0" y="1006.0" type="curve" smooth="yes"/>
      <point x="172.5" y="1006.0"/>
      <point x="78.5" y="871.5"/>
      <point x="78.5" y="618.0" type="curve" smooth="yes"/>
      <point x="78.5" y="366.0" type="line" smooth="yes"/>
      <point x="78.5" y="115.0"/>
      <point x="173.0" y="-18.0"/>
    </contour>
    <contour>
      <point x="623.0" y="0.0" type="line"/>
      <point x="807.5" y="0.0" type="line"/>
      <point x="807.5" y="1326.5" type="line"/>
      <point x="623.5" y="1326.5" type="line"/>
      <point x="623.5" y="1039.0" type="line"/>
      <point x="628.0" y="772.5" type="line"/>
      <point x="627.0" y="742.5" type="line"/>
      <point x="627.0" y="231.5" type="line"/>
      <point x="630.5" y="200.5" type="line"/>
    </contour>
  </outline>
</glyph>
<glyph name="e" format="2">
  <advance width="847.5"/>
  <unicode hex="0065"/>
  <anchor x="440.0" y="0.0" name="bottom"/>
  <anchor x="716.0" y="9.0" name="ogonek"/>
  <anchor x="434.5" y="988.0" name="top"/>
  <outline>
    <contour>
      <point x="471.0" y="-18.5" type="curve" smooth="yes"/>
      <point x="585.0" y="-18.5"/>
      <point x="681.5" y="10.5"/>
      <point x="751.5" y="52.0" type="curve"/>
      <point x="766.5" y="212.5" type="line"/>
      <point x="690.5" y="169.0"/>
      <point x="604.0" y="140.0"/>
      <point x="505.0" y="140.0" type="curve" smooth="yes"/>
      <point x="334.5" y="140.0"/>
      <point x="261.0" y="219.0"/>
      <point x="261.0" y="356.5" type="curve" smooth="yes"/>
      <point x="261.0" y="471.5" type="line"/>
      <point x="260.5" y="498.0" type="line"/>
      <point x="260.5" y="648.5" type="line" smooth="yes"/>
      <point x="260.5" y="786.0"/>
      <point x="313.5" y="858.0"/>
      <point x="430.5" y="858.0" type="curve" smooth="yes"/>
      <point x="547.0" y="858.0"/>
      <point x="602.5" y="787.0"/>
      <point x="602.5" y="650.5" type="curve" smooth="yes"/>
      <point x="602.5" y="583.0"/>
      <point x="602.0" y="507.5"/>
      <point x="601.0" y="414.0" type="curve"/>
      <point x="769.5" y="414.0" type="line"/>
      <point x="777.0" y="464.0"/>
      <point x="780.0" y="513.5"/>
      <point x="780.0" y="564.0" type="curve" smooth="yes"/>
      <point x="780.0" y="636.0" type="line" smooth="yes"/>
      <point x="780.0" y="869.5"/>
      <point x="664.0" y="1009.5"/>
      <point x="430.5" y="1009.5" type="curve" smooth="yes"/>
      <point x="197.0" y="1009.5"/>
      <point x="77.5" y="875.0"/>
      <point x="77.5" y="630.0" type="curve" smooth="yes"/>
      <point x="77.5" y="376.0" type="line" smooth="yes"/>
      <point x="77.5" y="117.5"/>
      <point x="209.0" y="-18.5"/>
    </contour>
    <contour>
      <point x="183.5" y="414.0" type="line"/>
      <point x="729.5" y="414.0" type="line"/>
      <point x="729.5" y="556.5" type="line"/>
      <point x="183.5" y="556.5" type="line"/>
    </contour>
  </outline>
</glyph>
<glyph name="f" format="2">
  <advance width="633.5"/>
  <unicode hex="0066"/>
  <anchor x="319.5" y="0.0" name="bottom"/>
  <anchor x="319.5" y="1323.5" name="top"/>
  <outline>
    <contour>
      <point x="388.5" y="1352.5" type="curve" smooth="yes"/>
      <point x="208.0" y="1352.5"/>
      <point x="116.0" y="1268.5"/>
      <point x="116.0" y="1135.5" type="curve" smooth="yes"/>
      <point x="116.0" y="1130.5" type="line" smooth="yes"/>
      <point x="116.0" y="1054.5"/>
      <point x="153.0" y="997.0"/>
      <point x="199.0" y="966.5" type="curve"/>
      <point x="199.0" y="945.5" type="line"/>
      <point x="322.0" y="946.0" type="line"/>
      <point x="307.0" y="979.5"/>
      <point x="294.0" y="1018.0"/>
      <point x="294.0" y="1062.0" type="curve" smooth="yes"/>
      <point x="294.0" y="1066.0" type="line" smooth="yes"/>
      <point x="294.0" y="1149.0"/>
      <point x="340.0" y="1199.5"/>
      <point x="451.5" y="1199.5" type="curve" smooth="yes"/>
      <point x="515.5" y="1199.5"/>
      <point x="563.5" y="1186.0"/>
      <point x="611.0" y="1169.0" type="curve"/>
      <point x="595.0" y="1311.0" type="line"/>
      <point x="543.0" y="1334.0"/>
      <point x="474.0" y="1352.5"/>
    </contour>
    <contour>
      <point x="146.0" y="0.0" type="line"/>
      <point x="330.5" y="0.0" type="line"/>
      <point x="330.5" y="903.5" type="line"/>
      <point x="146.0" y="903.5" type="line"/>
    </contour>
    <contour>
      <point x="17.0" y="809.0" type="line"/>
      <point x="594.0" y="809.0" type="line"/>
      <point x="608.5" y="958.5" type="line"/>
      <point x="294.5" y="958.5" type="line"/>
      <point x="223.0" y="957.5" type="line"/>
      <point x="17.0" y="958.5" type="line"/>
    </contour>
  </outline>
</glyph>
<glyph name="g" format="2">
  <advance width="864.0"/>
  <unicode hex="0067"/>
  <anchor x="435.0" y="-349.5" name="bottom"/>
  <anchor x="433.5" y="990.0" name="top"/>
  <outline>
    <contour>
      <point x="430.5" y="271.5" type="curve"/>
      <point x="656.5" y="271.5"/>
      <point x="774.5" y="376.5"/>
      <point x="774.5" y="574.5" type="curve" smooth="yes"/>
      <point x="774.5" y="643.0" type="line" smooth="yes"/>
      <point x="774.5" y="768.5"/>
      <point x="724.0" y="843.0"/>
      <point x="618.0" y="871.0" type="curve"/>
      <point x="618.0" y="881.0" type="line"/>
      <point x="855.0" y="871.5" type="line"/>
      <point x="855.0" y="1017.5" type="line"/>
      <point x="439.0" y="1002.5" type="line" smooth="yes"/>
      <point x="174.5" y="993.0"/>
      <point x="78.5" y="865.5"/>
      <point x="78.5" y="677.0" type="curve" smooth="yes"/>
      <point x="78.5" y="585.5" type="line" smooth="yes"/>
      <point x="78.5" y="381.5"/>
      <point x="211.0" y="271.5"/>
    </contour>
    <contour>
      <point x="425.0" y="-224.0" type="line" smooth="yes"/>
      <point x="294.0" y="-224.0"/>
      <point x="219.0" y="-188.0"/>
      <point x="219.0" y="-107.5" type="curve" smooth="yes"/>
      <point x="219.0" y="-105.5" type="line" smooth="yes"/>
      <point x="219.0" y="-34.0"/>
      <point x="275.0" y="4.0"/>
      <point x="363.0" y="22.5" type="curve"/>
      <point x="317.5" y="21.0" type="line"/>
      <point x="521.0" y="-5.5" type="line" smooth="yes"/>
      <point x="621.0" y="-19.5"/>
      <point x="660.0" y="-49.0"/>
      <point x="660.0" y="-111.5" type="curve" smooth="yes"/>
      <point x="660.0" y="-114.0" type="line" smooth="yes"/>
      <point x="660.0" y="-191.0"/>
      <point x="586.0" y="-224.0"/>
      <point x="454.0" y="-224.0" type="curve" smooth="yes"/>
    </contour>
    <contour>
      <point x="414.5" y="-372.0" type="curve" smooth="yes"/>
      <point x="449.0" y="-372.0" type="line" smooth="yes"/>
      <point x="687.5" y="-372.0"/>
      <point x="830.0" y="-290.5"/>
      <point x="830.0" y="-120.0" type="curve" smooth="yes"/>
      <point x="830.0" y="-113.5" type="line" smooth="yes"/>
      <point x="830.0" y="33.5"/>
      <point x="753.0" y="108.5"/>
      <point x="566.0" y="137.0" type="curve" smooth="yes"/>
      <point x="382.5" y="163.5" type="line" smooth="yes"/>
      <point x="299.5" y="175.5"/>
      <point x="266.0" y="191.5"/>
      <point x="266.0" y="228.0" type="curve" smooth="yes"/>
      <point x="266.0" y="229.0" type="line" smooth="yes"/>
      <point x="266.0" y="261.5"/>
      <point x="292.5" y="279.5"/>
      <point x="355.5" y="280.0" type="curve"/>
      <point x="407.5" y="278.5" type="line"/>
      <point x="235.5" y="323.5" type="line"/>
      <point x="235.5" y="301.0" type="line"/>
      <point x="145.0" y="291.0"/>
      <point x="94.5" y="250.5"/>
      <point x="94.5" y="178.5" type="curve" smooth="yes"/>
      <point x="94.5" y="177.0" type="line" smooth="yes"/>
      <point x="94.5" y="105.0"/>
      <point x="143.5" y="61.0"/>
      <point x="230.0" y="42.5" type="curve"/>
      <point x="230.0" y="33.0" type="line"/>
      <point x="128.5" y="14.0"/>
      <point x="51.0" y="-40.5"/>
      <point x="51.0" y="-150.0" type="curve" smooth="yes"/>
      <point x="51.0" y="-154.0" type="line" smooth="yes"/>
      <point x="51.0" y="-307.0"/>
      <point x="188.0" y="-372.0"/>
    </contour>
    <contour>
      <point x="429.0" y="409.5" type="curve" smooth="yes"/>
      <point x="310.0" y="409.5"/>
      <point x="255.0" y="473.0"/>
      <point x="255.0" y="590.0" type="curve" smooth="yes"/>
      <point x="255.0" y="684.5" type="line" smooth="yes"/>
      <point x="255.0" y="796.5"/>
      <point x="305.0" y="863.5"/>
      <point x="428.0" y="863.5" type="curve" smooth="yes"/>
      <point x="431.5" y="863.5" type="line" smooth="yes"/>
      <point x="546.0" y="863.5"/>
      <point x="600.0" y="798.5"/>
      <point x="600.0" y="686.0" type="curve" smooth="yes"/>
      <point x="600.0" y="590.0" type="line" smooth="yes"/>
      <point x="600.0" y="473.0"/>
      <point x="544.5" y="409.5"/>
    </contour>
  </outline>
</glyph>
<glyph name="h" format="2">
  <advance width="914.0"/>
  <unicode hex="0068"/>
  <anchor x="458.0" y="0.0" name="bottom"/>
  <anchor x="458.0" y="662.0" name="center"/>
  <anchor x="198.5" y="1326.5" name="top"/>
  <outline>
    <contour>
      <point x="632.0" y="0.0" type="line"/>
      <point x="817.0" y="0.0" type="line"/>
      <point x="817.0" y="676.0" type="line" smooth="yes"/>
      <point x="817.0" y="891.5"/>
      <point x="738.5" y="1006.0"/>
      <point x="553.5" y="1006.0" type="curve" smooth="yes"/>
      <point x="399.0" y="1006.0"/>
      <point x="323.0" y="923.0"/>
      <point x="296.0" y="815.0" type="curve"/>
      <point x="244.5" y="815.0" type="line"/>
      <point x="287.5" y="687.0" type="line"/>
      <point x="308.0" y="781.0"/>
      <point x="369.0" y="851.5"/>
      <point x="475.5" y="851.5" type="curve" smooth="yes"/>
      <point x="592.0" y="851.5"/>
      <point x="632.0" y="777.5"/>
      <point x="632.0" y="654.0" type="curve" smooth="yes"/>
    </contour>
    <contour>
      <point x="106.0" y="0.0" type="line"/>
      <point x="291.0" y="0.0" type="line"/>
      <point x="291.0" y="749.5" type="line"/>
      <point x="285.5" y="770.5" type="line"/>
      <point x="290.0" y="1039.0" type="line"/>
      <point x="290.0" y="1326.5" type="line"/>
      <point x="106.0" y="1326.5" type="line"/>
    </contour>
  </outline>
</glyph>
<glyph name="i" format="2">
  <advance width="403.0"/>
  <unicode hex="0069"/>
  <anchor x="201.5" y="0.0" name="bottom"/>
  <anchor x="329.0" y="0.0" name="ogonek"/>
  <outline>
    <contour>
      <point x="109.0" y="0.0" type="line"/>
      <point x="294.0" y="0.0" type="line"/>
      <point x="294.0" y="988.0" type="line"/>
      <point x="109.0" y="988.0" type="line"/>
    </contour>
    <contour>
      <point x="201.5" y="1119.5" type="curve" smooth="yes"/>
      <point x="272.5" y="1119.5"/>
      <point x="306.0" y="1159.0"/>
      <point x="306.0" y="1227.5" type="curve" smooth="yes"/>
      <point x="306.0" y="1235.5" type="line" smooth="yes"/>
      <point x="306.0" y="1303.0"/>
      <point x="272.5" y="1343.0"/>
      <point x="201.5" y="1343.0" type="curve" smooth="yes"/>
      <point x="130.0" y="1343.0"/>
      <point x="97.0" y="1303.0"/>
      <point x="97.0" y="1235.5" type="curve" smooth="yes"/>
      <point x="97.0" y="1227.5" type="line" smooth="yes"/>
      <point x="97.0" y="1159.5"/>
      <point x="130.0" y="1119.5"/>
    </contour>
  </outline>
</glyph>
<glyph name="j" format="2">
  <advance width="418.0"/>
  <unicode hex="006A"/>
  <outline>
    <contour>
      <point x="124.0" y="186.5" type="line"/>
      <point x="309.0" y="186.5" type="line"/>
      <point x="309.0" y="988.0" type="line"/>
      <point x="124.0" y="988.0" type="line"/>
    </contour>
    <contour>
      <point x="216.5" y="1116.5" type="curve" smooth="yes"/>
      <point x="287.5" y="1116.5"/>
      <point x="321.0" y="1156.0"/>
      <point x="321.0" y="1224.5" type="curve" smooth="yes"/>
      <point x="321.0" y="1232.5" type="line" smooth="yes"/>
      <point x="321.0" y="1300.0"/>
      <point x="287.5" y="1340.0"/>
      <point x="216.5" y="1340.0" type="curve" smooth="yes"/>
      <point x="145.0" y="1340.0"/>
      <point x="112.0" y="1300.0"/>
      <point x="112.0" y="1232.5" type="curve" smooth="yes"/>
      <point x="112.0" y="1224.5" type="line" smooth="yes"/>
      <point x="112.0" y="1156.5"/>
      <point x="145.0" y="1116.5"/>
    </contour>
    <component base="jbottom"/>
  </outline>
</glyph>
<glyph name="k" format="2">
  <advance width="854.5"/>
  <unicode hex="006B"/>
  <anchor x="437.5" y="0.0" name="bottom"/>
  <anchor x="430.0" y="1326.5" name="top"/>
  <outline>
    <contour>
      <point x="629.0" y="0.0" type="line"/>
      <point x="835.5" y="0.0" type="line"/>
      <point x="494.0" y="550.5" type="line"/>
      <point x="494.0" y="506.5" type="line"/>
      <point x="821.5" y="988.0" type="line"/>
      <point x="618.0" y="988.0" type="line"/>
      <point x="354.5" y="599.0" type="line"/>
      <point x="275.5" y="599.0" type="line"/>
      <point x="275.5" y="448.0" type="line"/>
      <point x="351.5" y="448.0" type="line"/>
    </contour>
    <contour>
      <point x="106.0" y="0.0" type="line"/>
      <point x="290.5" y="0.0" type="line"/>
      <point x="290.5" y="1326.5" type="line"/>
      <point x="106.0" y="1326.5" type="line"/>
    </contour>
  </outline>
</glyph>
<glyph name="l" format="2">
  <advance width="404.0"/>
  <unicode hex="006C"/>
  <anchor x="203.0" y="0.0" name="bottom"/>
  <anchor x="203.0" y="662.0" name="center"/>
  <anchor x="203.0" y="1326.5" name="top"/>
  <anchor x="421.0" y="1326.5" name="topright"/>
  <outline>
    <contour>
      <point x="109.5" y="0.0" type="line"/>
      <point x="294.5" y="0.0" type="line"/>
      <point x="294.5" y="1326.5" type="line"/>
      <point x="109.5" y="1326.5" type="line"/>
    </contour>
  </outline>
</glyph>
<glyph name="m" format="2">
  <advance width="1381.0"/>
  <unicode hex="006D"/>
  <anchor x="690.0" y="0.0" name="bottom"/>
  <anchor x="690.0" y="988.0" name="top"/>
  <outline>
    <contour>
      <point x="1099.0" y="0.0" type="line"/>
      <point x="1284.0" y="0.0" type="line"/>
      <point x="1284.0" y="681.0" type="line" smooth="yes"/>
      <point x="1284.0" y="893.5"/>
      <point x="1210.0" y="1006.0"/>
      <point x="1033.5" y="1006.0" type="curve" smooth="yes"/>
      <point x="873.0" y="1006.0"/>
      <point x="805.5" y="916.0"/>
      <point x="777.5" y="815.0" type="curve"/>
      <point x="757.0" y="815.0" type="line"/>
      <point x="782.0" y="686.5" type="line"/>
      <point x="801.0" y="781.0"/>
      <point x="858.5" y="851.5"/>
      <point x="958.0" y="851.5" type="curve" smooth="yes"/>
      <point x="1062.5" y="851.5"/>
      <point x="1099.0" y="779.5"/>
      <point x="1099.0" y="662.0" type="curve" smooth="yes"/>
    </contour>
    <contour>
      <point x="106.0" y="0.0" type="line"/>
      <point x="291.0" y="0.0" type="line"/>
      <point x="291.0" y="781.5" type="line"/>
      <point x="283.0" y="790.5" type="line"/>
      <point x="290.5" y="988.0" type="line"/>
      <point x="106.0" y="988.0" type="line"/>
    </contour>
    <contour>
      <point x="603.0" y="0.0" type="line"/>
      <point x="787.0" y="0.0" type="line"/>
      <point x="787.0" y="680.5" type="line" smooth="yes"/>
      <point x="787.0" y="710.5"/>
      <point x="783.0" y="742.5"/>
      <point x="777.0" y="767.0" type="curve"/>
      <point x="756.5" y="923.5"/>
      <point x="685.0" y="1006.0"/>
      <point x="537.5" y="1006.0" type="curve" smooth="yes"/>
      <point x="389.5" y="1006.0"/>
      <point x="320.0" y="923.0"/>
      <point x="293.5" y="815.0" type="curve"/>
      <point x="251.5" y="815.0" type="line"/>
      <point x="286.0" y="686.0" type="line"/>
      <point x="305.0" y="781.0"/>
      <point x="362.5" y="851.5"/>
      <point x="462.0" y="851.5" type="curve" smooth="yes"/>
      <point x="566.5" y="851.5"/>
      <point x="603.0" y="779.5"/>
      <point x="603.0" y="662.0" type="curve" smooth="yes"/>
    </contour>
  </outline>
</glyph>
<glyph name="n" format="2">
  <advance width="914.0"/>
  <unicode hex="006E"/>
  <anchor x="458.0" y="0.0" name="bottom"/>
  <anchor x="458.0" y="988.0" name="top"/>
  <outline>
    <contour>
      <point x="632.0" y="0.0" type="line"/>
      <point x="817.0" y="0.0" type="line"/>
      <point x="817.0" y="676.0" type="line" smooth="yes"/>
      <point x="817.0" y="891.5"/>
      <point x="738.5" y="1006.0"/>
      <point x="553.5" y="1006.0" type="curve" smooth="yes"/>
      <point x="395.0" y="1006.0"/>
      <point x="321.5" y="923.0"/>
      <point x="293.5" y="815.0" type="curve"/>
      <point x="251.5" y="815.0" type="line"/>
      <point x="286.0" y="686.5" type="line"/>
      <point x="306.5" y="781.0"/>
      <point x="368.5" y="851.5"/>
      <point x="476.0" y="851.5" type="curve" smooth="yes"/>
      <point x="592.0" y="851.5"/>
      <point x="632.0" y="777.5"/>
      <point x="632.0" y="654.0" type="curve" smooth="yes"/>
    </contour>
    <contour>
      <point x="106.0" y="0.0" type="line"/>
      <point x="291.0" y="0.0" type="line"/>
      <point x="291.0" y="781.5" type="line"/>
      <point x="283.0" y="791.0" type="line"/>
      <point x="290.5" y="988.0" type="line"/>
      <point x="106.0" y="988.0" type="line"/>
    </contour>
  </outline>
</glyph>
<glyph name="o" format="2">
  <advance width="888.0"/>
  <unicode hex="006F"/>
  <anchor x="444.5" y="0.0" name="bottom"/>
  <anchor x="447.0" y="449.5" name="center"/>
  <anchor x="657.5" y="5.0" name="ogonek"/>
  <anchor x="444.5" y="988.0" name="top"/>
  <anchor x="819.0" y="988.0" name="topright"/>
  <outline>
    <contour>
      <point x="444.5" y="-21.0" type="curve" smooth="yes"/>
      <point x="685.0" y="-21.0"/>
      <point x="810.5" y="116.0"/>
      <point x="810.5" y="367.5" type="curve"/>
      <point x="810.5" y="622.5" type="line"/>
      <point x="810.5" y="873.5"/>
      <point x="685.0" y="1009.5"/>
      <point x="444.5" y="1009.5" type="curve" smooth="yes"/>
      <point x="203.5" y="1009.5"/>
      <point x="77.5" y="873.5"/>
      <point x="77.5" y="622.5" type="curve"/>
      <point x="77.5" y="367.5" type="line"/>
      <point x="77.5" y="116.0"/>
      <point x="203.5" y="-21.0"/>
    </contour>
    <contour>
      <point x="444.5" y="130.5" type="curve" smooth="yes"/>
      <point x="322.5" y="130.5"/>
      <point x="263.0" y="208.0"/>
      <point x="263.0" y="355.0" type="curve" smooth="yes"/>
      <point x="263.0" y="635.0" type="line" smooth="yes"/>
      <point x="263.0" y="781.0"/>
      <point x="322.5" y="858.0"/>
      <point x="444.5" y="858.0" type="curve" smooth="yes"/>
      <point x="566.0" y="858.0"/>
      <point x="625.5" y="781.0"/>
      <point x="625.5" y="635.0" type="curve" smooth="yes"/>
      <point x="625.5" y="355.0" type="line" smooth="yes"/>
      <point x="625.5" y="208.0"/>
      <point x="566.0" y="130.5"/>
    </contour>
  </outline>
</glyph>
<glyph name="p" format="2">
  <advance width="913.5"/>
  <unicode hex="0070"/>
  <anchor x="461.5" y="0.0" name="bottom"/>
  <anchor x="461.5" y="988.0" name="top"/>
  <outline>
    <contour>
      <point x="542.5" y="-18.0" type="curve" smooth="yes"/>
      <point x="741.0" y="-18.0"/>
      <point x="835.0" y="116.5"/>
      <point x="835.0" y="370.0" type="curve" smooth="yes"/>
      <point x="835.0" y="622.0" type="line" smooth="yes"/>
      <point x="835.0" y="873.0"/>
      <point x="740.5" y="1006.0"/>
      <point x="546.0" y="1006.0" type="curve" smooth="yes"/>
      <point x="390.0" y="1006.0"/>
      <point x="320.0" y="923.0"/>
      <point x="293.5" y="815.0" type="curve"/>
      <point x="246.0" y="815.0" type="line"/>
      <point x="284.0" y="690.0" type="line"/>
      <point x="305.0" y="785.0"/>
      <point x="371.5" y="855.5"/>
      <point x="476.5" y="855.5" type="curve" smooth="yes"/>
      <point x="593.5" y="855.5"/>
      <point x="649.5" y="780.5"/>
      <point x="649.5" y="637.5" type="curve" smooth="yes"/>
      <point x="649.5" y="358.0" type="line" smooth="yes"/>
      <point x="649.5" y="212.0"/>
      <point x="592.0" y="136.5"/>
      <point x="476.0" y="136.5" type="curve" smooth="yes"/>
      <point x="360.0" y="136.5"/>
      <point x="290.0" y="211.0"/>
      <point x="286.5" y="345.5" type="curve"/>
      <point x="236.5" y="173.0" type="line"/>
      <point x="296.0" y="173.0" type="line"/>
      <point x="324.5" y="59.5"/>
      <point x="399.5" y="-18.0"/>
    </contour>
    <contour>
      <point x="106.0" y="-347.0" type="line"/>
      <point x="290.0" y="-347.0" type="line"/>
      <point x="290.0" y="-40.5" type="line"/>
      <point x="285.5" y="215.5" type="line"/>
      <point x="286.5" y="249.5" type="line"/>
      <point x="286.5" y="734.0" type="line"/>
      <point x="282.0" y="765.5" type="line"/>
      <point x="290.5" y="988.0" type="line"/>
      <point x="106.0" y="988.0" type="line"/>
    </contour>
  </outline>
</glyph>
<glyph name="q" format="2">
  <advance width="913.5"/>
  <unicode hex="0071"/>
  <anchor x="452.5" y="0.0" name="bottom"/>
  <anchor x="452.5" y="988.0" name="top"/>
  <outline>
    <contour>
      <point x="367.5" y="-18.0" type="curve" smooth="yes"/>
      <point x="522.0" y="-18.0"/>
      <point x="591.0" y="65.0"/>
      <point x="617.5" y="173.0" type="curve"/>
      <point x="664.0" y="173.0" type="line"/>
      <point x="629.5" y="302.0" type="line"/>
      <point x="608.5" y="207.0"/>
      <point x="542.0" y="136.5"/>
      <point x="437.0" y="136.5" type="curve" smooth="yes"/>
      <point x="320.0" y="136.5"/>
      <point x="264.0" y="211.5"/>
      <point x="264.0" y="355.0" type="curve" smooth="yes"/>
      <point x="264.0" y="632.5" type="line" smooth="yes"/>
      <point x="264.0" y="780.0"/>
      <point x="321.0" y="855.5"/>
      <point x="436.0" y="855.5" type="curve" smooth="yes"/>
      <point x="551.0" y="855.5"/>
      <point x="621.0" y="782.5"/>
      <point x="627.0" y="646.5" type="curve"/>
      <point x="674.5" y="815.0" type="line"/>
      <point x="620.0" y="815.0" type="line"/>
      <point x="591.5" y="928.5"/>
      <point x="516.5" y="1006.0"/>
      <point x="371.5" y="1006.0" type="curve" smooth="yes"/>
      <point x="173.5" y="1006.0"/>
      <point x="78.5" y="871.5"/>
      <point x="78.5" y="618.0" type="curve" smooth="yes"/>
      <point x="78.5" y="366.0" type="line" smooth="yes"/>
      <point x="78.5" y="115.0"/>
      <point x="173.0" y="-18.0"/>
    </contour>
    <contour>
      <point x="623.5" y="-347.0" type="line"/>
      <point x="807.5" y="-347.0" type="line"/>
      <point x="807.5" y="988.0" type="line"/>
      <point x="623.0" y="988.0" type="line"/>
      <point x="631.5" y="765.5" type="line"/>
      <point x="627.0" y="734.0" type="line"/>
      <point x="627.0" y="251.5" type="line"/>
      <point x="628.0" y="217.5" type="line"/>
      <point x="623.5" y="-40.5" type="line"/>
    </contour>
  </outline>
</glyph>
<glyph name="r" format="2">
  <advance width="625.0"/>
  <unicode hex="0072"/>
  <anchor x="199.0" y="0.0" name="bottom"/>
  <anchor x="342.5" y="988.0" name="top"/>
  <outline>
    <contour>
      <point x="286.0" y="606.5" type="line"/>
      <point x="316.0" y="738.0"/>
      <point x="406.5" y="808.5"/>
      <point x="525.5" y="808.5" type="curve" smooth="yes"/>
      <point x="558.0" y="808.5"/>
      <point x="585.5" y="804.0"/>
      <point x="607.0" y="798.0" type="curve"/>
      <point x="597.5" y="991.0" type="line"/>
      <point x="579.0" y="995.5"/>
      <point x="560.0" y="999.5"/>
      <point x="535.0" y="999.5" type="curve" smooth="yes"/>
      <point x="392.5" y="999.5"/>
      <point x="318.0" y="914.5"/>
      <point x="288.0" y="776.0" type="curve"/>
      <point x="243.5" y="776.0" type="line"/>
    </contour>
    <contour>
      <point x="106.0" y="0.0" type="line"/>
      <point x="291.0" y="0.0" type="line"/>
      <point x="291.0" y="700.0" type="line"/>
      <point x="275.5" y="723.5" type="line"/>
      <point x="285.0" y="988.0" type="line"/>
      <point x="106.0" y="988.0" type="line"/>
    </contour>
  </outline>
</glyph>
<glyph name="s" format="2">
  <advance width="728.5"/>
  <unicode hex="0073"/>
  <anchor x="361.0" y="0.0" name="bottom"/>
  <anchor x="359.5" y="988.0" name="top"/>
  <outline>
    <contour>
      <point x="350.0" y="-18.5" type="curve" smooth="yes"/>
      <point x="568.5" y="-18.5"/>
      <point x="677.5" y="79.0"/>
      <point x="677.5" y="259.0" type="curve" smooth="yes"/>
      <point x="677.5" y="282.0" type="line" smooth="yes"/>
      <point x="677.5" y="437.5"/>
      <point x="606.5" y="501.5"/>
      <point x="422.0" y="566.5" type="curve" smooth="yes"/>
      <point x="281.5" y="617.0"/>
      <point x="235.0" y="653.0"/>
      <point x="235.0" y="729.0" type="curve" smooth="yes"/>
      <point x="235.0" y="740.0" type="line" smooth="yes"/>
      <point x="235.0" y="810.0"/>
      <point x="278.0" y="852.0"/>
      <point x="389.5" y="852.0" type="curve" smooth="yes"/>
      <point x="495.0" y="852.0"/>
      <point x="579.0" y="819.0"/>
      <point x="650.0" y="777.0" type="curve"/>
      <point x="635.0" y="936.5" type="line"/>
      <point x="575.5" y="974.5"/>
      <point x="486.0" y="1007.0"/>
      <point x="365.0" y="1007.0" type="curve" smooth="yes"/>
      <point x="159.5" y="1007.0"/>
      <point x="54.0" y="915.0"/>
      <point x="54.0" y="747.0" type="curve" smooth="yes"/>
      <point x="54.0" y="731.5" type="line" smooth="yes"/>
      <point x="54.0" y="587.5"/>
      <point x="117.0" y="511.0"/>
      <point x="302.0" y="446.0" type="curve" smooth="yes"/>
      <point x="460.5" y="387.0"/>
      <point x="496.0" y="353.0"/>
      <point x="496.0" y="279.0" type="curve" smooth="yes"/>
      <point x="496.0" y="262.5" type="line" smooth="yes"/>
      <point x="496.0" y="183.5"/>
      <point x="444.5" y="141.0"/>
      <point x="333.0" y="141.0" type="curve" smooth="yes"/>
      <point x="222.0" y="141.0"/>
      <point x="133.0" y="176.5"/>
      <point x="54.5" y="221.0" type="curve"/>
      <point x="69.5" y="48.5" type="line"/>
      <point x="132.5" y="14.5"/>
      <point x="227.0" y="-18.5"/>
    </contour>
  </outline>
</glyph>
<glyph name="t" format="2">
  <advance width="651.5"/>
  <unicode hex="0074"/>
  <anchor x="374.5" y="0.0" name="bottom"/>
  <anchor x="328.0" y="494.5" name="center"/>
  <anchor x="238.5" y="1217.0" name="top"/>
  <anchor x="473.0" y="1418.5" name="topright"/>
  <outline>
    <contour>
      <point x="412.0" y="-16.5" type="curve" smooth="yes"/>
      <point x="487.0" y="-16.5"/>
      <point x="556.0" y="-1.5"/>
      <point x="606.0" y="23.0" type="curve"/>
      <point x="620.5" y="183.0" type="line"/>
      <point x="575.5" y="161.5"/>
      <point x="523.0" y="148.0"/>
      <point x="465.5" y="148.0" type="curve" smooth="yes"/>
      <point x="363.5" y="148.0"/>
      <point x="324.0" y="190.0"/>
      <point x="324.0" y="291.5" type="curve" smooth="yes"/>
      <point x="324.0" y="929.5" type="line"/>
      <point x="141.5" y="929.5" type="line"/>
      <point x="141.5" y="260.0" type="line" smooth="yes"/>
      <point x="141.5" y="76.5"/>
      <point x="220.0" y="-16.5"/>
    </contour>
    <contour>
      <point x="14.0" y="829.0" type="line"/>
      <point x="593.5" y="829.0" type="line"/>
      <point x="608.0" y="977.5" type="line"/>
      <point x="14.0" y="977.5" type="line"/>
    </contour>
    <contour>
      <point x="143.5" y="961.5" type="line"/>
      <point x="319.0" y="961.5" type="line"/>
      <point x="326.5" y="1246.0" type="line"/>
      <point x="143.0" y="1221.5" type="line"/>
    </contour>
  </outline>
</glyph>
<glyph name="u" format="2">
  <advance width="914.0"/>
  <unicode hex="0075"/>
  <anchor x="458.0" y="0.0" name="bottom"/>
  <anchor x="843.0" y="0.0" name="ogonek"/>
  <anchor x="458.0" y="988.0" name="top"/>
  <anchor x="900.0" y="988.0" name="topright"/>
  <outline>
    <contour>
      <point x="282.0" y="988.0" type="line"/>
      <point x="97.0" y="988.0" type="line"/>
      <point x="97.0" y="312.0" type="line" smooth="yes"/>
      <point x="97.0" y="96.5"/>
      <point x="175.5" y="-18.0"/>
      <point x="360.5" y="-18.0" type="curve" smooth="yes"/>
      <point x="519.0" y="-18.0"/>
      <point x="592.5" y="65.0"/>
      <point x="620.5" y="173.0" type="curve"/>
      <point x="662.5" y="173.0" type="line"/>
      <point x="628.0" y="301.5" type="line"/>
      <point x="607.5" y="207.0"/>
      <point x="545.5" y="136.5"/>
      <point x="438.0" y="136.5" type="curve" smooth="yes"/>
      <point x="322.0" y="136.5"/>
      <point x="282.0" y="210.5"/>
      <point x="282.0" y="334.0" type="curve" smooth="yes"/>
    </contour>
    <contour>
      <point x="808.0" y="988.0" type="line"/>
      <point x="623.0" y="988.0" type="line"/>
      <point x="623.0" y="206.5" type="line"/>
      <point x="631.0" y="197.0" type="line"/>
      <point x="623.5" y="0.0" type="line"/>
      <point x="808.0" y="0.0" type="line"/>
    </contour>
  </outline>
</glyph>
<glyph name="v" format="2">
  <advance width="845.5"/>
  <unicode hex="0076"/>
  <anchor x="423.0" y="0.0" name="bottom"/>
  <anchor x="423.0" y="988.0" name="top"/>
  <outline>
    <contour>
      <point x="432.5" y="126.0" type="line"/>
      <point x="413.0" y="126.0" type="line"/>
      <point x="225.5" y="988.0" type="line"/>
      <point x="36.5" y="988.0" type="line"/>
      <point x="272.0" y="0.0" type="line"/>
      <point x="573.5" y="0.0" type="line"/>
      <point x="809.0" y="988.0" type="line"/>
      <point x="620.0" y="988.0" type="line"/>
    </contour>
  </outline>
</glyph>
<glyph name="w" format="2">
  <advance width="1286.5"/>
  <unicode hex="0077"/>
  <anchor x="643.5" y="0.0" name="bottom"/>
  <anchor x="643.5" y="988.0" name="top"/>
  <outline>
    <contour>
      <point x="224.0" y="0.0" type="line"/>
      <point x="507.0" y="0.0" type="line"/>
      <point x="609.5" y="613.5" type="line"/>
      <point x="637.0" y="825.5" type="line"/>
      <point x="650.5" y="825.5" type="line"/>
      <point x="678.5" y="613.5" type="line"/>
      <point x="781.0" y="0.0" type="line"/>
      <point x="1063.0" y="0.0" type="line"/>
      <point x="1242.0" y="988.0" type="line"/>
      <point x="1058.0" y="988.0" type="line"/>
      <point x="924.0" y="133.5" type="line"/>
      <point x="909.5" y="133.5" type="line"/>
      <point x="771.0" y="963.0" type="line"/>
      <point x="516.5" y="963.0" type="line"/>
      <point x="378.0" y="133.5" type="line"/>
      <point x="363.0" y="133.5" type="line"/>
      <point x="231.5" y="988.0" type="line"/>
      <point x="44.5" y="988.0" type="line"/>
    </contour>
  </outline>
</glyph>
<glyph name="x" format="2">
  <advance width="831.5"/>
  <unicode hex="0078"/>
  <anchor x="416.0" y="0.0" name="bottom"/>
  <anchor x="416.0" y="988.0" name="top"/>
  <outline>
    <contour>
      <point x="38.5" y="0.0" type="line"/>
      <point x="232.5" y="0.0" type="line"/>
      <point x="410.0" y="421.0" type="line"/>
      <point x="423.0" y="421.0" type="line"/>
      <point x="599.0" y="0.0" type="line"/>
      <point x="793.0" y="0.0" type="line"/>
      <point x="552.5" y="545.5" type="line"/>
      <point x="552.5" y="486.5" type="line"/>
      <point x="788.0" y="988.0" type="line"/>
      <point x="594.5" y="988.0" type="line"/>
      <point x="423.0" y="595.5" type="line"/>
      <point x="410.0" y="595.5" type="line"/>
      <point x="237.0" y="988.0" type="line"/>
      <point x="43.5" y="988.0" type="line"/>
      <point x="279.0" y="486.5" type="line"/>
      <point x="279.0" y="545.5" type="line"/>
    </contour>
  </outline>
</glyph>
<glyph name="y" format="2">
  <advance width="845.5"/>
  <unicode hex="0079"/>
  <anchor x="635.0" y="-56.5" name="bottom"/>
  <anchor x="423.5" y="988.0" name="top"/>
  <outline>
    <contour>
      <point x="509.0" y="167.5" type="line"/>
      <point x="407.5" y="167.5" type="line"/>
      <point x="225.5" y="988.0" type="line"/>
      <point x="36.5" y="988.0" type="line"/>
      <point x="273.5" y="39.5" type="line"/>
      <point x="488.0" y="39.5" type="line"/>
      <point x="401.0" y="105.5" type="line"/>
      <point x="282.5" y="-347.0" type="line"/>
      <point x="465.0" y="-347.0" type="line"/>
      <point x="809.0" y="988.0" type="line"/>
      <point x="621.0" y="988.0" type="line"/>
      <point x="416.0" y="139.0" type="line"/>
    </contour>
  </outline>
</glyph>
<glyph name="z" format="2">
  <advance width="750.0"/>
  <unicode hex="007A"/>
  <anchor x="374.5" y="0.0" name="bottom"/>
  <anchor x="375.5" y="494.5" name="center"/>
  <anchor x="374.5" y="988.0" name="top"/>
  <outline>
    <contour>
      <point x="686.0" y="157.0" type="line"/>
      <point x="270.0" y="157.0" type="line"/>
      <point x="682.5" y="845.5" type="line"/>
      <point x="682.5" y="988.0" type="line"/>
      <point x="66.0" y="988.0" type="line"/>
      <point x="66.0" y="832.5" type="line"/>
      <point x="475.5" y="832.5" type="line"/>
      <point x="63.5" y="144.0" type="line"/>
      <point x="63.5" y="0.0" type="line"/>
      <point x="686.0" y="0.0" type="line"/>
    </contour>
  </outline>
</glyph>
<glyph name="braceleft" format="2">
  <advance width="595.5"/>
  <unicode hex="007B"/>
  <outline>
    <contour>
      <point x="553.0" y="1334.0" type="line"/>
      <point x="510.5" y="1347.0"/>
      <point x="465.0" y="1355.5"/>
      <point x="417.0" y="1355.5" type="curve" smooth="yes"/>
      <point x="251.0" y="1355.5"/>
      <point x="171.5" y="1275.5"/>
      <point x="171.5" y="1090.5" type="curve" smooth="yes"/>
      <point x="171.5" y="1006.5"/>
      <point x="185.5" y="860.5"/>
      <point x="185.5" y="789.0" type="curve" smooth="yes"/>
      <point x="185.5" y="693.5"/>
      <point x="154.0" y="646.5"/>
      <point x="53.0" y="638.5" type="curve"/>
      <point x="53.0" y="475.0" type="line"/>
      <point x="154.0" y="466.5"/>
      <point x="185.5" y="419.5"/>
      <point x="185.5" y="323.5" type="curve" smooth="yes"/>
      <point x="185.5" y="253.5"/>
      <point x="171.5" y="105.5"/>
      <point x="171.5" y="18.5" type="curve" smooth="yes"/>
      <point x="171.5" y="-166.5"/>
      <point x="251.0" y="-247.0"/>
      <point x="417.0" y="-247.0" type="curve" smooth="yes"/>
      <point x="465.0" y="-247.0"/>
      <point x="510.5" y="-238.5"/>
      <point x="553.0" y="-225.5" type="curve"/>
      <point x="553.0" y="-85.5" type="line"/>
      <point x="528.5" y="-94.0"/>
      <point x="498.5" y="-100.5"/>
      <point x="466.0" y="-100.5" type="curve" smooth="yes"/>
      <point x="383.0" y="-100.5"/>
      <point x="349.5" y="-59.5"/>
      <point x="349.5" y="35.5" type="curve" smooth="yes"/>
      <point x="349.5" y="106.0"/>
      <point x="363.0" y="251.0"/>
      <point x="363.0" y="328.0" type="curve" smooth="yes"/>
      <point x="363.0" y="455.0"/>
      <point x="328.5" y="535.0"/>
      <point x="197.5" y="554.0" type="curve"/>
      <point x="207.5" y="530.5" type="line"/>
      <point x="207.5" y="562.0" type="line"/>
      <point x="327.0" y="583.5"/>
      <point x="363.0" y="657.5"/>
      <point x="363.0" y="784.5" type="curve" smooth="yes"/>
      <point x="363.0" y="860.0"/>
      <point x="349.5" y="1003.5"/>
      <point x="349.5" y="1074.0" type="curve" smooth="yes"/>
      <point x="349.5" y="1168.5"/>
      <point x="383.0" y="1209.5"/>
      <point x="465.0" y="1209.5" type="curve" smooth="yes"/>
      <point x="498.0" y="1209.5"/>
      <point x="528.5" y="1203.0"/>
      <point x="553.0" y="1195.0" type="curve"/>
    </contour>
  </outline>
</glyph>
<glyph name="bar" format="2">
  <advance width="443.0"/>
  <unicode hex="007C"/>
  <outline>
    <contour>
      <point x="303.0" y="-425.5" type="line"/>
      <point x="303.0" y="1423.5" type="line"/>
      <point x="140.0" y="1423.5" type="line"/>
      <point x="140.0" y="-425.5" type="line"/>
    </contour>
  </outline>
</glyph>
<glyph name="braceright" format="2">
  <advance width="595.5"/>
  <unicode hex="007D"/>
  <outline>
    <contour>
      <point x="42.5" y="1334.0" type="curve"/>
      <point x="42.5" y="1195.0" type="line"/>
      <point x="67.0" y="1203.0"/>
      <point x="97.5" y="1209.5"/>
      <point x="130.5" y="1209.5" type="curve" smooth="yes"/>
      <point x="212.5" y="1209.5"/>
      <point x="246.0" y="1168.5"/>
      <point x="246.0" y="1074.0" type="curve" smooth="yes"/>
      <point x="246.0" y="1003.5"/>
      <point x="232.5" y="860.0"/>
      <point x="232.5" y="784.5" type="curve" smooth="yes"/>
      <point x="232.5" y="657.5"/>
      <point x="268.5" y="583.5"/>
      <point x="388.0" y="562.0" type="curve"/>
      <point x="388.0" y="530.5" type="line"/>
      <point x="398.0" y="554.0" type="line"/>
      <point x="267.0" y="535.0"/>
      <point x="232.5" y="455.0"/>
      <point x="232.5" y="328.0" type="curve" smooth="yes"/>
      <point x="232.5" y="251.0"/>
      <point x="246.0" y="106.0"/>
      <point x="246.0" y="35.5" type="curve" smooth="yes"/>
      <point x="246.0" y="-59.5"/>
      <point x="212.5" y="-100.5"/>
      <point x="129.5" y="-100.5" type="curve" smooth="yes"/>
      <point x="97.0" y="-100.5"/>
      <point x="67.0" y="-94.0"/>
      <point x="42.5" y="-85.5" type="curve"/>
      <point x="42.5" y="-225.5" type="line"/>
      <point x="85.0" y="-238.5"/>
      <point x="130.5" y="-247.0"/>
      <point x="178.5" y="-247.0" type="curve" smooth="yes"/>
      <point x="344.5" y="-247.0"/>
      <point x="424.0" y="-166.5"/>
      <point x="424.0" y="18.5" type="curve" smooth="yes"/>
      <point x="424.0" y="105.5"/>
      <point x="410.0" y="253.5"/>
      <point x="410.0" y="323.5" type="curve" smooth="yes"/>
      <point x="410.0" y="419.5"/>
      <point x="441.5" y="466.5"/>
      <point x="542.5" y="475.0" type="curve"/>
      <point x="542.5" y="638.5" type="line"/>
      <point x="441.5" y="646.5"/>
      <point x="410.0" y="693.5"/>
      <point x="410.0" y="789.0" type="curve" smooth="yes"/>
      <point x="410.0" y="860.5"/>
      <point x="424.0" y="1006.5"/>
      <point x="424.0" y="1090.5" type="curve" smooth="yes"/>
      <point x="424.0" y="1275.5"/>
      <point x="344.5" y="1355.5"/>
      <point x="178.5" y="1355.5" type="curve" smooth="yes"/>
      <point x="130.5" y="1355.5"/>
      <point x="85.0" y="1347.0"/>
    </contour>
  </outline>
</glyph>
<glyph name="asciitilde" format="2">
  <advance width="940.0"/>
  <unicode hex="007E"/>
  <outline>
    <contour>
      <point x="645.5" y="501.0" type="curve" smooth="yes"/>
      <point x="785.5" y="501.0"/>
      <point x="839.5" y="585.5"/>
      <point x="839.5" y="731.0" type="curve" smooth="yes"/>
      <point x="839.5" y="769.0" type="line"/>
      <point x="702.0" y="769.0" type="line"/>
      <point x="702.0" y="751.5" type="line" smooth="yes"/>
      <point x="702.0" y="692.5"/>
      <point x="685.0" y="658.5"/>
      <point x="631.0" y="658.5" type="curve" smooth="yes"/>
      <point x="542.0" y="658.5"/>
      <point x="421.5" y="751.5"/>
      <point x="294.0" y="751.5" type="curve" smooth="yes"/>
      <point x="153.5" y="751.5"/>
      <point x="100.0" y="663.5"/>
      <point x="100.0" y="520.0" type="curve" smooth="yes"/>
      <point x="100.0" y="483.5" type="line"/>
      <point x="237.0" y="483.5" type="line"/>
      <point x="237.0" y="499.0" type="line" smooth="yes"/>
      <point x="237.0" y="556.5"/>
      <point x="255.0" y="593.5"/>
      <point x="308.0" y="593.5" type="curve" smooth="yes"/>
      <point x="400.0" y="593.5"/>
      <point x="518.5" y="501.0"/>
    </contour>
  </outline>
</glyph>
<glyph name="exclamdown" format="2">
  <advance width="424.0"/>
  <unicode hex="00A1"/>
  <outline>
    <contour>
      <point x="287.5" y="595.5" type="line"/>
      <point x="136.5" y="595.5" type="line"/>
      <point x="113.5" y="-290.0" type="line"/>
      <point x="310.5" y="-290.0" type="line"/>
    </contour>
    <contour>
      <point x="213.0" y="1007.5" type="curve" smooth="yes"/>
      <point x="140.0" y="1007.5"/>
      <point x="107.0" y="963.5"/>
      <point x="107.0" y="885.5" type="curve" smooth="yes"/>
      <point x="107.0" y="872.0" type="line" smooth="yes"/>
      <point x="107.0" y="795.0"/>
      <point x="140.0" y="751.0"/>
      <point x="213.0" y="751.0" type="curve" smooth="yes"/>
      <point x="284.0" y="751.0"/>
      <point x="319.0" y="795.0"/>
      <point x="319.0" y="872.0" type="curve" smooth="yes"/>
      <point x="319.0" y="885.5" type="line" smooth="yes"/>
      <point x="319.0" y="963.5"/>
      <point x="284.0" y="1007.5"/>
    </contour>
  </outline>
</glyph>
<glyph name="cent" format="2">
  <advance width="714.0"/>
  <unicode hex="00A2"/>
  <anchor x="399.0" y="0.0" name="bottom"/>
  <anchor x="399.0" y="988.0" name="top"/>
  <outline>
    <contour>
      <point x="493.5" y="931.0" type="line"/>
      <point x="493.5" y="1174.0" type="line"/>
      <point x="334.5" y="1174.0" type="line"/>
      <point x="334.5" y="931.0" type="line"/>
    </contour>
    <contour>
      <point x="493.5" y="-194.5" type="line"/>
      <point x="493.5" y="66.5" type="line"/>
      <point x="334.5" y="66.5" type="line"/>
      <point x="334.5" y="-194.5" type="line"/>
    </contour>
    <component base="c"/>
  </outline>
</glyph>
<glyph name="sterling" format="2">
  <advance width="866.0"/>
  <unicode hex="00A3"/>
  <outline>
    <contour>
      <point x="64.0" y="589.0" type="line"/>
      <point x="727.0" y="589.0" type="line"/>
      <point x="737.0" y="735.0" type="line"/>
      <point x="74.0" y="735.0" type="line"/>
    </contour>
    <contour>
      <point x="264.0" y="165.0" type="line"/>
      <point x="264.0" y="173.0" type="line"/>
      <point x="360.5" y="222.5"/>
      <point x="414.5" y="300.0"/>
      <point x="414.5" y="483.0" type="curve" smooth="yes"/>
      <point x="414.5" y="617.0"/>
      <point x="360.5" y="798.0"/>
      <point x="360.5" y="938.5" type="curve" smooth="yes"/>
      <point x="360.5" y="1070.5"/>
      <point x="420.5" y="1134.5"/>
      <point x="563.0" y="1134.5" type="curve" smooth="yes"/>
      <point x="634.0" y="1134.5"/>
      <point x="702.0" y="1121.5"/>
      <point x="771.5" y="1093.5" type="curve"/>
      <point x="757.5" y="1255.0" type="line"/>
      <point x="694.0" y="1281.0"/>
      <point x="606.5" y="1299.5"/>
      <point x="519.0" y="1299.5" type="curve" smooth="yes"/>
      <point x="275.5" y="1299.5"/>
      <point x="167.0" y="1187.5"/>
      <point x="167.0" y="962.5" type="curve" smooth="yes"/>
      <point x="167.0" y="809.5"/>
      <point x="223.0" y="629.5"/>
      <point x="222.5" y="474.5" type="curve" smooth="yes"/>
      <point x="222.5" y="303.5"/>
      <point x="185.0" y="220.5"/>
      <point x="87.0" y="164.5" type="curve" smooth="yes"/>
      <point x="72.0" y="160.5" type="line"/>
      <point x="72.0" y="0.0" type="line"/>
      <point x="812.0" y="0.0" type="line"/>
      <point x="812.0" y="165.0" type="line"/>
    </contour>
  </outline>
</glyph>
<glyph name="currency" format="2">
  <advance width="906.0"/>
  <unicode hex="00A4"/>
  <outline>
    <contour>
      <point x="452.5" y="253.0" type="curve" smooth="yes"/>
      <point x="661.5" y="253.0"/>
      <point x="772.5" y="371.5"/>
      <point x="772.5" y="588.0" type="curve" smooth="yes"/>
      <point x="772.5" y="649.0" type="line" smooth="yes"/>
      <point x="772.5" y="864.5"/>
      <point x="662.0" y="983.0"/>
      <point x="453.0" y="983.0" type="curve" smooth="yes"/>
      <point x="244.0" y="983.0"/>
      <point x="133.0" y="864.5"/>
      <point x="133.0" y="649.0" type="curve" smooth="yes"/>
      <point x="133.0" y="588.0" type="line" smooth="yes"/>
      <point x="133.0" y="371.5"/>
      <point x="243.5" y="253.0"/>
    </contour>
    <contour>
      <point x="453.0" y="391.5" type="curve" smooth="yes"/>
      <point x="350.0" y="391.5"/>
      <point x="297.5" y="456.5"/>
      <point x="297.5" y="583.5" type="curve" smooth="yes"/>
      <point x="297.5" y="653.5" type="line" smooth="yes"/>
      <point x="297.5" y="780.5"/>
      <point x="350.0" y="845.0"/>
      <point x="453.0" y="845.0" type="curve" smooth="yes"/>
      <point x="555.5" y="845.0"/>
      <point x="606.5" y="780.0"/>
      <point x="607.0" y="653.5" type="curve" smooth="yes"/>
      <point x="608.0" y="583.5" type="line" smooth="yes"/>
      <point x="608.5" y="456.5"/>
      <point x="555.5" y="391.5"/>
    </contour>
    <contour>
      <point x="686.5" y="425.0" type="line"/>
      <point x="583.0" y="329.5" type="line"/>
      <point x="746.0" y="127.0" type="line"/>
      <point x="855.5" y="214.0" type="line"/>
    </contour>
    <contour>
      <point x="326.0" y="333.5" type="line"/>
      <point x="222.0" y="426.0" type="line"/>
      <point x="51.0" y="214.0" type="line"/>
      <point x="160.0" y="127.0" type="line"/>
    </contour>
    <contour>
      <point x="214.5" y="813.5" type="line"/>
      <point x="322.0" y="903.0" type="line"/>
      <point x="159.5" y="1105.0" type="line"/>
      <point x="51.0" y="1018.0" type="line"/>
    </contour>
    <contour>
      <point x="579.0" y="896.5" type="line"/>
      <point x="682.0" y="801.0" type="line"/>
      <point x="854.5" y="1018.0" type="line"/>
      <point x="746.0" y="1105.0" type="line"/>
    </contour>
  </outline>
</glyph>
<glyph name="yen" format="2">
  <advance width="936.0"/>
  <unicode hex="00A5"/>
  <anchor x="466.5" y="0.0" name="bottom"/>
  <anchor x="466.5" y="1278.0" name="top"/>
  <anchor x="33.0" y="1278.0" name="topleft"/>
  <outline>
    <contour>
      <point x="530.0" y="532.0" type="line"/>
      <point x="832.0" y="532.0" type="line"/>
      <point x="843.5" y="675.5" type="line"/>
      <point x="561.0" y="675.5" type="line"/>
    </contour>
    <contour>
      <point x="107.5" y="382.0" type="line"/>
      <point x="96.0" y="240.5" type="line"/>
      <point x="832.0" y="240.5" type="line"/>
      <point x="843.5" y="382.0" type="line"/>
    </contour>
    <contour>
      <point x="366.0" y="675.5" type="line"/>
      <point x="107.5" y="675.5" type="line"/>
      <point x="96.0" y="532.0" type="line"/>
      <point x="398.5" y="532.0" type="line"/>
    </contour>
    <component base="Y" xOffset="13.0"/>
  </outline>
</glyph>
<glyph name="brokenbar" format="2">
  <advance width="443.0"/>
  <unicode hex="00A6"/>
  <outline>
    <contour>
      <point x="303.0" y="585.0" type="line"/>
      <point x="303.0" y="1423.5" type="line"/>
      <point x="140.0" y="1423.5" type="line"/>
      <point x="140.0" y="585.0" type="line"/>
    </contour>
    <contour>
      <point x="303.0" y="-425.5" type="line"/>
      <point x="303.0" y="416.5" type="line"/>
      <point x="140.0" y="416.5" type="line"/>
      <point x="140.0" y="-425.5" type="line"/>
    </contour>
  </outline>
</glyph>
<glyph name="section" format="2">
  <advance width="784.5"/>
  <unicode hex="00A7"/>
  <outline>
    <contour>
      <point x="441.0" y="413.0" type="curve"/>
      <point x="550.5" y="349.5" type="line"/>
      <point x="550.0" y="385.0" type="line"/>
      <point x="647.0" y="414.0"/>
      <point x="700.0" y="493.0"/>
      <point x="700.0" y="591.5" type="curve" smooth="yes"/>
      <point x="700.0" y="606.5" type="line" smooth="yes"/>
      <point x="700.0" y="757.0"/>
      <point x="622.0" y="813.5"/>
      <point x="440.0" y="883.5" type="curve" smooth="yes"/>
      <point x="307.0" y="933.5"/>
      <point x="262.0" y="965.5"/>
      <point x="262.0" y="1033.0" type="curve" smooth="yes"/>
      <point x="262.0" y="1043.5" type="line" smooth="yes"/>
      <point x="262.0" y="1108.0"/>
      <point x="304.5" y="1145.5"/>
      <point x="414.5" y="1145.5" type="curve" smooth="yes"/>
      <point x="520.5" y="1145.5"/>
      <point x="605.5" y="1112.5"/>
      <point x="673.0" y="1070.0" type="curve"/>
      <point x="658.0" y="1228.0" type="line"/>
      <point x="599.0" y="1265.0"/>
      <point x="509.0" y="1299.0"/>
      <point x="386.5" y="1299.0" type="curve" smooth="yes"/>
      <point x="185.5" y="1299.0"/>
      <point x="80.5" y="1211.0"/>
      <point x="80.5" y="1050.0" type="curve" smooth="yes"/>
      <point x="80.5" y="1038.0" type="line" smooth="yes"/>
      <point x="80.5" y="910.5"/>
      <point x="143.5" y="831.0"/>
      <point x="332.5" y="763.5" type="curve" smooth="yes"/>
      <point x="486.0" y="708.0"/>
      <point x="527.5" y="674.5"/>
      <point x="527.5" y="574.5" type="curve" smooth="yes"/>
      <point x="527.5" y="547.5" type="line" smooth="yes"/>
      <point x="527.5" y="493.0"/>
      <point x="501.0" y="437.5"/>
    </contour>
    <contour>
      <point x="338.0" y="772.0" type="curve"/>
      <point x="230.5" y="832.0" type="line"/>
      <point x="231.5" y="796.5" type="line"/>
      <point x="130.0" y="761.0"/>
      <point x="81.0" y="691.0"/>
      <point x="81.0" y="591.0" type="curve" smooth="yes"/>
      <point x="81.0" y="581.0" type="line" smooth="yes"/>
      <point x="81.0" y="443.0"/>
      <point x="151.0" y="377.0"/>
      <point x="334.5" y="301.5" type="curve" smooth="yes"/>
      <point x="473.5" y="247.5"/>
      <point x="519.0" y="215.5"/>
      <point x="519.0" y="142.5" type="curve" smooth="yes"/>
      <point x="519.0" y="132.0" type="line" smooth="yes"/>
      <point x="519.0" y="64.5"/>
      <point x="468.0" y="22.0"/>
      <point x="357.0" y="22.0" type="curve" smooth="yes"/>
      <point x="244.5" y="22.0"/>
      <point x="154.0" y="57.5"/>
      <point x="80.5" y="101.5" type="curve"/>
      <point x="95.0" y="-67.0" type="line"/>
      <point x="157.5" y="-102.0"/>
      <point x="252.0" y="-136.0"/>
      <point x="375.0" y="-136.0" type="curve" smooth="yes"/>
      <point x="592.0" y="-136.0"/>
      <point x="700.0" y="-42.5"/>
      <point x="700.0" y="125.5" type="curve" smooth="yes"/>
      <point x="700.0" y="141.0" type="line" smooth="yes"/>
      <point x="700.0" y="280.5"/>
      <point x="633.5" y="346.5"/>
      <point x="447.0" y="418.5" type="curve" smooth="yes"/>
      <point x="301.0" y="476.0"/>
      <point x="253.5" y="515.0"/>
      <point x="253.5" y="615.5" type="curve" smooth="yes"/>
      <point x="253.5" y="638.5" type="line"/>
      <point x="253.5" y="697.5"/>
      <point x="281.0" y="747.5"/>
    </contour>
  </outline>
</glyph>
<glyph name="copyright" format="2">
  <advance width="1257.0"/>
  <unicode hex="00A9"/>
  <outline>
    <contour>
      <point x="628.5" y="-22.0" type="curve" smooth="yes"/>
      <point x="972.0" y="-22.0"/>
      <point x="1169.0" y="173.5"/>
      <point x="1169.0" y="520.5" type="curve" smooth="yes"/>
      <point x="1169.0" y="760.5" type="line" smooth="yes"/>
      <point x="1169.0" y="1106.0"/>
      <point x="972.0" y="1300.0"/>
      <point x="628.5" y="1300.0" type="curve" smooth="yes"/>
      <point x="284.0" y="1300.0"/>
      <point x="88.0" y="1106.0"/>
      <point x="88.0" y="760.5" type="curve" smooth="yes"/>
      <point x="88.0" y="520.5" type="line" smooth="yes"/>
      <point x="88.0" y="173.5"/>
      <point x="284.0" y="-22.0"/>
    </contour>
    <contour>
      <point x="665.0" y="309.0" type="curve" smooth="yes"/>
      <point x="734.5" y="309.0"/>
      <point x="789.0" y="329.0"/>
      <point x="823.0" y="354.0" type="curve"/>
      <point x="832.5" y="469.0" type="line"/>
      <point x="796.5" y="443.5"/>
      <point x="753.5" y="424.0"/>
      <point x="695.5" y="424.0" type="curve" smooth="yes"/>
      <point x="601.0" y="424.0"/>
      <point x="557.5" y="479.5"/>
      <point x="557.5" y="576.5" type="curve" smooth="yes"/>
      <point x="557.5" y="707.0" type="line" smooth="yes"/>
      <point x="557.5" y="804.0"/>
      <point x="597.5" y="859.0"/>
      <point x="691.0" y="859.0" type="curve" smooth="yes"/>
      <point x="750.0" y="859.0"/>
      <point x="792.0" y="840.0"/>
      <point x="827.5" y="814.5" type="curve"/>
      <point x="817.5" y="928.0" type="line"/>
      <point x="784.0" y="951.5"/>
      <point x="732.0" y="971.5"/>
      <point x="664.0" y="971.5" type="curve" smooth="yes"/>
      <point x="502.0" y="971.5"/>
      <point x="426.0" y="874.5"/>
      <point x="426.0" y="704.5" type="curve" smooth="yes"/>
      <point x="426.0" y="576.5" type="line" smooth="yes"/>
      <point x="426.0" y="405.5"/>
      <point x="501.5" y="309.0"/>
    </contour>
    <contour>
      <point x="628.5" y="86.5" type="curve" smooth="yes"/>
      <point x="369.5" y="86.5"/>
      <point x="215.0" y="239.5"/>
      <point x="215.0" y="508.5" type="curve" smooth="yes"/>
      <point x="215.0" y="773.0" type="line" smooth="yes"/>
      <point x="215.0" y="1040.0"/>
      <point x="369.5" y="1191.5"/>
      <point x="628.5" y="1191.5" type="curve" smooth="yes"/>
      <point x="886.5" y="1191.5"/>
      <point x="1042.0" y="1040.0"/>
      <point x="1042.0" y="773.0" type="curve" smooth="yes"/>
      <point x="1042.0" y="508.5" type="line" smooth="yes"/>
      <point x="1042.0" y="239.5"/>
      <point x="886.5" y="86.5"/>
    </contour>
  </outline>
</glyph>
<glyph name="ordfeminine" format="2">
  <advance width="556.5"/>
  <unicode hex="00AA"/>
  <outline>
    <contour>
      <point x="356.0" y="641.0" type="line"/>
      <point x="487.0" y="641.0" type="line"/>
      <point x="487.0" y="1068.0" type="line" smooth="yes"/>
      <point x="487.0" y="1201.5"/>
      <point x="433.5" y="1291.0"/>
      <point x="269.5" y="1291.0" type="curve" smooth="yes"/>
      <point x="192.0" y="1291.0"/>
      <point x="126.5" y="1267.0"/>
      <point x="79.5" y="1239.0" type="curve"/>
      <point x="68.5" y="1123.5" type="line"/>
      <point x="120.0" y="1153.5"/>
      <point x="181.5" y="1180.0"/>
      <point x="248.5" y="1180.0" type="curve" smooth="yes"/>
      <point x="330.5" y="1180.0"/>
      <point x="359.5" y="1141.0"/>
      <point x="359.5" y="1070.5" type="curve"/>
      <point x="359.5" y="1012.5" type="line"/>
      <point x="359.5" y="783.0" type="line"/>
      <point x="362.0" y="776.5" type="line"/>
    </contour>
    <contour>
      <point x="204.5" y="629.5" type="curve" smooth="yes"/>
      <point x="299.5" y="629.5"/>
      <point x="337.0" y="678.0"/>
      <point x="355.0" y="744.0" type="curve"/>
      <point x="377.0" y="744.0" type="line"/>
      <point x="361.5" y="828.5" type="line"/>
      <point x="349.0" y="778.0"/>
      <point x="308.5" y="740.0"/>
      <point x="253.0" y="740.0" type="curve" smooth="yes"/>
      <point x="199.0" y="740.0"/>
      <point x="176.5" y="771.0"/>
      <point x="176.5" y="819.0" type="curve" smooth="yes"/>
      <point x="176.5" y="844.0" type="line" smooth="yes"/>
      <point x="176.5" y="895.5"/>
      <point x="199.0" y="920.0"/>
      <point x="261.5" y="934.0" type="curve" smooth="yes"/>
      <point x="384.5" y="960.0" type="line"/>
      <point x="374.0" y="1056.5" type="line"/>
      <point x="229.0" y="1027.0" type="line" smooth="yes"/>
      <point x="97.0" y="998.5"/>
      <point x="47.0" y="945.0"/>
      <point x="47.0" y="837.5" type="curve" smooth="yes"/>
      <point x="47.0" y="807.0" type="line" smooth="yes"/>
      <point x="47.0" y="693.0"/>
      <point x="100.0" y="629.5"/>
    </contour>
  </outline>
</glyph>
<glyph name="logicalnot" format="2">
  <advance width="853.0"/>
  <unicode hex="00AC"/>
  <outline>
    <contour>
      <point x="759.5" y="253.5" type="line"/>
      <point x="759.5" y="644.0" type="line"/>
      <point x="601.0" y="644.0" type="line"/>
      <point x="601.0" y="253.5" type="line"/>
    </contour>
    <contour>
      <point x="78.0" y="553.5" type="line"/>
      <point x="759.5" y="553.5" type="line"/>
      <point x="759.5" y="704.5" type="line"/>
      <point x="78.0" y="704.5" type="line"/>
    </contour>
  </outline>
</glyph>
<glyph name="registered" format="2">
  <advance width="739.0"/>
  <unicode hex="00AE"/>
  <outline>
    <contour>
      <point x="369.5" y="541.0" type="curve" smooth="yes"/>
      <point x="571.0" y="541.0"/>
      <point x="679.5" y="661.0"/>
      <point x="679.5" y="856.5" type="curve" smooth="yes"/>
      <point x="679.5" y="980.5" type="line" smooth="yes"/>
      <point x="679.5" y="1176.0"/>
      <point x="571.0" y="1295.5"/>
      <point x="369.5" y="1295.5" type="curve" smooth="yes"/>
      <point x="167.5" y="1295.5"/>
      <point x="59.5" y="1175.5"/>
      <point x="59.5" y="980.5" type="curve" smooth="yes"/>
      <point x="59.5" y="856.5" type="line" smooth="yes"/>
      <point x="59.5" y="661.0"/>
      <point x="167.5" y="541.0"/>
    </contour>
    <contour>
      <point x="369.5" y="613.5" type="curve" smooth="yes"/>
      <point x="217.5" y="613.5"/>
      <point x="142.5" y="698.0"/>
      <point x="142.5" y="852.0" type="curve" smooth="yes"/>
      <point x="142.5" y="986.0" type="line" smooth="yes"/>
      <point x="142.5" y="1138.5"/>
      <point x="217.5" y="1223.0"/>
      <point x="369.5" y="1223.0" type="curve" smooth="yes"/>
      <point x="520.5" y="1223.0"/>
      <point x="596.0" y="1138.5"/>
      <point x="596.0" y="986.0" type="curve" smooth="yes"/>
      <point x="596.0" y="852.0" type="line" smooth="yes"/>
      <point x="596.0" y="698.0"/>
      <point x="520.5" y="613.5"/>
    </contour>
    <contour>
      <point x="433.0" y="731.5" type="line"/>
      <point x="510.0" y="731.5" type="line"/>
      <point x="498.5" y="809.0" type="line" smooth="yes"/>
      <point x="489.0" y="873.5"/>
      <point x="472.5" y="907.5"/>
      <point x="415.5" y="913.0" type="curve"/>
      <point x="429.0" y="904.5" type="line"/>
      <point x="429.0" y="914.5" type="line"/>
      <point x="480.5" y="919.5"/>
      <point x="502.5" y="950.0"/>
      <point x="502.5" y="999.0" type="curve" smooth="yes"/>
      <point x="502.5" y="1013.0" type="line" smooth="yes"/>
      <point x="502.5" y="1083.5"/>
      <point x="465.5" y="1119.5"/>
      <point x="384.5" y="1119.5" type="curve" smooth="yes"/>
      <point x="307.5" y="1119.5" type="line"/>
      <point x="307.5" y="1056.0" type="line"/>
      <point x="378.5" y="1056.0" type="line" smooth="yes"/>
      <point x="413.0" y="1056.0"/>
      <point x="427.0" y="1036.5"/>
      <point x="427.0" y="1001.0" type="curve" smooth="yes"/>
      <point x="427.0" y="987.0" type="line" smooth="yes"/>
      <point x="427.0" y="949.5"/>
      <point x="412.5" y="931.0"/>
      <point x="376.5" y="930.5" type="curve" smooth="yes"/>
      <point x="309.0" y="930.0" type="line"/>
      <point x="309.0" y="867.5" type="line"/>
      <point x="367.5" y="867.5" type="line" smooth="yes"/>
      <point x="403.5" y="867.5"/>
      <point x="417.5" y="850.5"/>
      <point x="424.0" y="801.5" type="curve" smooth="yes"/>
    </contour>
    <contour>
      <point x="255.0" y="731.5" type="line"/>
      <point x="330.0" y="731.5" type="line"/>
      <point x="330.0" y="883.5" type="line"/>
      <point x="330.0" y="909.0" type="line"/>
      <point x="330.0" y="1119.5" type="line"/>
      <point x="255.0" y="1119.5" type="line"/>
    </contour>
  </outline>
</glyph>
<glyph name="degree" format="2">
  <advance width="583.5"/>
  <unicode hex="00B0"/>
  <outline>
    <contour>
      <point x="292.0" y="793.5" type="curve" smooth="yes"/>
      <point x="437.5" y="793.5"/>
      <point x="518.0" y="883.0"/>
      <point x="518.0" y="1039.0" type="curve" smooth="yes"/>
      <point x="518.0" y="1055.5" type="line" smooth="yes"/>
      <point x="518.0" y="1211.0"/>
      <point x="437.5" y="1300.5"/>
      <point x="292.0" y="1300.5" type="curve" smooth="yes"/>
      <point x="146.0" y="1300.5"/>
      <point x="65.5" y="1211.0"/>
      <point x="65.5" y="1055.5" type="curve" smooth="yes"/>
      <point x="65.5" y="1039.0" type="line" smooth="yes"/>
      <point x="65.5" y="883.0"/>
      <point x="146.0" y="793.5"/>
    </contour>
    <contour>
      <point x="292.0" y="915.0" type="curve" smooth="yes"/>
      <point x="232.0" y="915.0"/>
      <point x="203.0" y="959.0"/>
      <point x="203.0" y="1038.0" type="curve" smooth="yes"/>
      <point x="203.0" y="1056.0" type="line" smooth="yes"/>
      <point x="203.0" y="1134.5"/>
      <point x="232.0" y="1179.0"/>
      <point x="292.0" y="1179.0" type="curve" smooth="yes"/>
      <point x="352.5" y="1179.0"/>
      <point x="380.5" y="1134.5"/>
      <point x="380.5" y="1056.0" type="curve" smooth="yes"/>
      <point x="380.5" y="1038.0" type="line" smooth="yes"/>
      <point x="380.5" y="959.0"/>
      <point x="352.5" y="915.0"/>
    </contour>
  </outline>
</glyph>
<glyph name="plusminus" format="2">
  <advance width="862.5"/>
  <unicode hex="00B1"/>
  <outline>
    <contour>
      <point x="91.0" y="161.5" type="line"/>
      <point x="771.5" y="161.5" type="line"/>
      <point x="771.5" y="309.5" type="line"/>
      <point x="91.0" y="309.5" type="line"/>
    </contour>
    <contour>
      <point x="510.5" y="424.0" type="line"/>
      <point x="510.5" y="1052.0" type="line"/>
      <point x="352.0" y="1052.0" type="line"/>
      <point x="352.0" y="424.0" type="line"/>
    </contour>
    <contour>
      <point x="91.0" y="663.5" type="line"/>
      <point x="771.5" y="663.5" type="line"/>
      <point x="771.5" y="812.5" type="line"/>
      <point x="91.0" y="812.5" type="line"/>
    </contour>
  </outline>
</glyph>
<glyph name="twosuperior" format="2">
  <advance width="480.0"/>
  <unicode hex="00B2"/>
  <outline>
    <contour>
      <point x="31.0" y="713.0" type="line"/>
      <point x="445.0" y="713.0" type="line"/>
      <point x="445.0" y="827.0" type="line"/>
      <point x="141.5" y="827.0" type="line"/>
      <point x="196.0" y="805.5" type="line"/>
      <point x="196.0" y="833.0" type="line"/>
      <point x="300.0" y="946.5" type="line" smooth="yes"/>
      <point x="390.5" y="1043.0"/>
      <point x="439.0" y="1112.5"/>
      <point x="439.0" y="1207.5" type="curve" smooth="yes"/>
      <point x="439.0" y="1221.0" type="line" smooth="yes"/>
      <point x="439.0" y="1335.5"/>
      <point x="366.5" y="1406.5"/>
      <point x="226.0" y="1406.5" type="curve" smooth="yes"/>
      <point x="157.0" y="1406.5"/>
      <point x="92.5" y="1388.0"/>
      <point x="50.5" y="1364.5" type="curve"/>
      <point x="40.0" y="1248.0" type="line"/>
      <point x="83.0" y="1269.0"/>
      <point x="133.5" y="1290.0"/>
      <point x="197.0" y="1290.0" type="curve" smooth="yes"/>
      <point x="272.5" y="1290.0"/>
      <point x="301.5" y="1257.5"/>
      <point x="301.5" y="1202.5" type="curve" smooth="yes"/>
      <point x="301.5" y="1193.0" type="line" smooth="yes"/>
      <point x="301.5" y="1132.0"/>
      <point x="260.0" y="1077.5"/>
      <point x="186.0" y="997.0" type="curve" smooth="yes"/>
      <point x="31.0" y="831.5" type="line"/>
    </contour>
  </outline>
</glyph>
<glyph name="threesuperior" format="2">
  <advance width="495.5"/>
  <unicode hex="00B3"/>
  <outline>
    <contour>
      <point x="217.5" y="699.0" type="curve" smooth="yes"/>
      <point x="385.0" y="699.0"/>
      <point x="451.5" y="780.5"/>
      <point x="451.5" y="888.5" type="curve" smooth="yes"/>
      <point x="451.5" y="914.0" type="line" smooth="yes"/>
      <point x="451.5" y="1004.5"/>
      <point x="412.0" y="1053.5"/>
      <point x="325.5" y="1067.0" type="curve"/>
      <point x="331.5" y="1055.5" type="line"/>
      <point x="331.5" y="1071.5" type="line"/>
      <point x="412.0" y="1086.0"/>
      <point x="447.0" y="1137.0"/>
      <point x="447.0" y="1215.0" type="curve" smooth="yes"/>
      <point x="447.0" y="1235.0" type="line" smooth="yes"/>
      <point x="447.0" y="1344.0"/>
      <point x="377.5" y="1406.0"/>
      <point x="229.0" y="1406.0" type="curve" smooth="yes"/>
      <point x="151.5" y="1406.0"/>
      <point x="89.0" y="1387.0"/>
      <point x="47.0" y="1364.0" type="curve"/>
      <point x="35.5" y="1254.5" type="line"/>
      <point x="77.0" y="1274.0"/>
      <point x="134.0" y="1294.5"/>
      <point x="201.0" y="1294.5" type="curve" smooth="yes"/>
      <point x="284.0" y="1294.5"/>
      <point x="311.0" y="1264.5"/>
      <point x="311.0" y="1214.0" type="curve" smooth="yes"/>
      <point x="311.0" y="1196.0" type="line" smooth="yes"/>
      <point x="311.0" y="1137.5"/>
      <point x="273.5" y="1116.5"/>
      <point x="199.5" y="1114.5" type="curve" smooth="yes"/>
      <point x="106.5" y="1112.0" type="line"/>
      <point x="106.5" y="1011.0" type="line"/>
      <point x="203.0" y="1008.0" type="line" smooth="yes"/>
      <point x="286.0" y="1005.5"/>
      <point x="313.0" y="975.0"/>
      <point x="313.0" y="924.5" type="curve" smooth="yes"/>
      <point x="313.0" y="903.5" type="line" smooth="yes"/>
      <point x="313.0" y="852.5"/>
      <point x="288.0" y="814.0"/>
      <point x="195.5" y="814.0" type="curve" smooth="yes"/>
      <point x="132.0" y="814.0"/>
      <point x="75.0" y="833.0"/>
      <point x="31.0" y="853.5" type="curve"/>
      <point x="42.5" y="735.5" type="line"/>
      <point x="79.0" y="717.5"/>
      <point x="144.5" y="699.0"/>
    </contour>
  </outline>
</glyph>
<glyph name="micro" format="2">
  <advance width="923.5"/>
  <unicode hex="00B5"/>
  <outline>
    <contour>
      <point x="817.5" y="988.0" type="line"/>
      <point x="632.5" y="988.0" type="line"/>
      <point x="632.5" y="205.5" type="line"/>
      <point x="639.5" y="195.0" type="line"/>
      <point x="632.0" y="0.0" type="line"/>
      <point x="817.5" y="0.0" type="line"/>
    </contour>
    <contour>
      <point x="291.5" y="344.0" type="curve" smooth="yes"/>
      <point x="291.5" y="988.0" type="line"/>
      <point x="106.0" y="988.0" type="line"/>
      <point x="106.0" y="-347.0" type="line"/>
      <point x="285.0" y="-347.0" type="line"/>
      <point x="285.0" y="-210.5" type="line"/>
      <point x="271.0" y="101.5" type="line"/>
      <point x="278.0" y="101.5" type="line"/>
      <point x="304.0" y="25.0"/>
      <point x="352.0" y="-16.5"/>
      <point x="443.5" y="-16.5" type="curve" smooth="yes"/>
      <point x="549.5" y="-16.5"/>
      <point x="604.0" y="44.5"/>
      <point x="629.0" y="168.5" type="curve"/>
      <point x="670.0" y="168.5" type="line"/>
      <point x="636.5" y="303.5" type="line"/>
      <point x="617.0" y="209.0"/>
      <point x="556.5" y="138.5"/>
      <point x="457.5" y="138.5" type="curve" smooth="yes"/>
      <point x="339.5" y="138.5"/>
      <point x="291.5" y="212.0"/>
    </contour>
  </outline>
</glyph>
<glyph name="paragraph" format="2">
  <advance width="658.0"/>
  <unicode hex="00B6"/>
  <outline>
    <contour>
      <point x="324.0" y="655.5" type="curve"/>
      <point x="408.0" y="655.5" type="line"/>
      <point x="407.5" y="1278.0" type="line"/>
      <point x="324.0" y="1278.0" type="line" smooth="yes"/>
      <point x="148.5" y="1278.0"/>
      <point x="69.5" y="1182.0"/>
      <point x="69.5" y="1016.0" type="curve" smooth="yes"/>
      <point x="69.5" y="918.5" type="line" smooth="yes"/>
      <point x="69.5" y="749.5"/>
      <point x="148.5" y="655.5"/>
    </contour>
    <contour>
      <point x="538.0" y="0.0" type="line"/>
      <point x="538.0" y="1278.0" type="line"/>
      <point x="354.0" y="1278.0" type="line"/>
      <point x="353.5" y="0.0" type="line"/>
    </contour>
  </outline>
</glyph>
<glyph name="onesuperior" format="2">
  <advance width="372.5"/>
  <unicode hex="00B9"/>
  <outline>
    <contour>
      <point x="175.0" y="713.0" type="line"/>
      <point x="305.5" y="713.0" type="line"/>
      <point x="305.5" y="1394.0" type="line"/>
      <point x="184.5" y="1394.0" type="line"/>
      <point x="25.5" y="1294.0" type="line"/>
      <point x="21.5" y="1162.0" type="line"/>
      <point x="167.0" y="1253.0" type="line"/>
      <point x="174.5" y="1253.0" type="line"/>
    </contour>
  </outline>
</glyph>
<glyph name="ordmasculine" format="2">
  <advance width="591.5"/>
  <unicode hex="00BA"/>
  <outline>
    <contour>
      <point x="295.5" y="629.5" type="curve" smooth="yes"/>
      <point x="452.0" y="629.5"/>
      <point x="534.5" y="720.0"/>
      <point x="534.5" y="888.5" type="curve" smooth="yes"/>
      <point x="534.5" y="1034.0" type="line" smooth="yes"/>
      <point x="534.5" y="1202.0"/>
      <point x="453.0" y="1292.0"/>
      <point x="295.5" y="1292.0" type="curve" smooth="yes"/>
      <point x="139.5" y="1292.0"/>
      <point x="57.0" y="1202.0"/>
      <point x="57.0" y="1034.0" type="curve" smooth="yes"/>
      <point x="57.0" y="888.5" type="line" smooth="yes"/>
      <point x="57.0" y="719.5"/>
      <point x="139.5" y="629.5"/>
    </contour>
    <contour>
      <point x="296.0" y="741.0" type="curve" smooth="yes"/>
      <point x="226.0" y="741.0"/>
      <point x="193.0" y="788.5"/>
      <point x="193.0" y="876.5" type="curve" smooth="yes"/>
      <point x="193.0" y="1047.0" type="line" smooth="yes"/>
      <point x="193.0" y="1134.0"/>
      <point x="226.0" y="1180.5"/>
      <point x="296.0" y="1180.5" type="curve" smooth="yes"/>
      <point x="365.5" y="1180.5"/>
      <point x="398.5" y="1134.0"/>
      <point x="398.5" y="1047.0" type="curve" smooth="yes"/>
      <point x="398.5" y="876.5" type="line" smooth="yes"/>
      <point x="398.5" y="787.5"/>
      <point x="365.0" y="741.0"/>
    </contour>
  </outline>
</glyph>
<glyph name="guillemetright" format="2">
  <advance width="860.5"/>
  <unicode hex="00BB"/>
  <outline>
    <contour>
      <point x="260.0" y="494.0" type="line"/>
      <point x="43.0" y="94.0" type="line"/>
      <point x="219.0" y="94.0" type="line"/>
      <point x="428.5" y="472.5" type="line"/>
      <point x="428.5" y="516.0" type="line"/>
      <point x="219.0" y="891.5" type="line"/>
      <point x="43.0" y="891.5" type="line"/>
    </contour>
    <contour>
      <point x="632.5" y="494.0" type="line"/>
      <point x="415.5" y="94.0" type="line"/>
      <point x="591.5" y="94.0" type="line"/>
      <point x="801.0" y="472.5" type="line"/>
      <point x="801.0" y="516.0" type="line"/>
      <point x="591.5" y="891.5" type="line"/>
      <point x="415.5" y="891.5" type="line"/>
    </contour>
  </outline>
</glyph>
<glyph name="questiondown" format="2">
  <advance width="712.0"/>
  <unicode hex="00BF"/>
  <outline>
    <contour>
      <point x="513.5" y="616.0" type="line"/>
      <point x="411.5" y="582.0" type="line" smooth="yes"/>
      <point x="180.5" y="509.0"/>
      <point x="70.5" y="401.0"/>
      <point x="70.5" y="162.0" type="curve" smooth="yes"/>
      <point x="70.5" y="18.5" type="line" smooth="yes"/>
      <point x="70.5" y="-192.5"/>
      <point x="169.5" y="-311.0"/>
      <point x="388.5" y="-311.0" type="curve" smooth="yes"/>
      <point x="504.5" y="-311.0"/>
      <point x="598.5" y="-276.5"/>
      <point x="655.0" y="-243.5" type="curve"/>
      <point x="675.0" y="-80.0" type="line"/>
      <point x="606.0" y="-118.0"/>
      <point x="524.5" y="-148.5"/>
      <point x="434.0" y="-148.5" type="curve" smooth="yes"/>
      <point x="304.5" y="-148.5"/>
      <point x="256.5" y="-83.0"/>
      <point x="256.5" y="41.0" type="curve" smooth="yes"/>
      <point x="256.5" y="165.0" type="line" smooth="yes"/>
      <point x="256.5" y="304.0"/>
      <point x="305.0" y="371.5"/>
      <point x="451.0" y="420.5" type="curve" smooth="yes"/>
      <point x="513.5" y="441.0" type="line"/>
    </contour>
    <contour>
      <point x="440.5" y="1007.5" type="curve" smooth="yes"/>
      <point x="369.5" y="1007.5"/>
      <point x="334.5" y="963.5"/>
      <point x="334.5" y="885.5" type="curve" smooth="yes"/>
      <point x="334.5" y="872.0" type="line" smooth="yes"/>
      <point x="334.5" y="795.0"/>
      <point x="369.5" y="751.0"/>
      <point x="440.5" y="751.0" type="curve" smooth="yes"/>
      <point x="513.5" y="751.0"/>
      <point x="546.5" y="795.0"/>
      <point x="546.5" y="872.0" type="curve" smooth="yes"/>
      <point x="546.5" y="885.5" type="line" smooth="yes"/>
      <point x="546.5" y="963.5"/>
      <point x="513.5" y="1007.5"/>
    </contour>
  </outline>
</glyph>
<glyph name="AE" format="2">
  <advance width="1405.0"/>
  <unicode hex="00C6"/>
  <anchor x="702.5" y="0.0" name="bottom"/>
  <anchor x="702.5" y="1278.0" name="top"/>
  <outline>
    <contour>
      <point x="38.0" y="0.0" type="line"/>
      <point x="231.5" y="0.0" type="line"/>
      <point x="633.0" y="1146.5" type="line"/>
      <point x="706.0" y="1146.5" type="line"/>
      <point x="706.0" y="1278.0" type="line"/>
      <point x="498.5" y="1278.0" type="line"/>
    </contour>
    <contour>
      <point x="283.5" y="350.0" type="line"/>
      <point x="736.5" y="350.0" type="line"/>
      <point x="736.5" y="508.5" type="line"/>
      <point x="283.5" y="508.5" type="line"/>
    </contour>
    <contour>
      <point x="762.0" y="0.0" type="line"/>
      <point x="1329.0" y="0.0" type="line"/>
      <point x="1329.0" y="163.0" type="line"/>
      <point x="762.0" y="163.0" type="line"/>
    </contour>
    <contour>
      <point x="679.0" y="0.0" type="line"/>
      <point x="865.0" y="0.0" type="line"/>
      <point x="865.0" y="1278.0" type="line"/>
      <point x="679.0" y="1278.0" type="line"/>
    </contour>
    <contour>
      <point x="793.0" y="571.0" type="line"/>
      <point x="1314.0" y="571.0" type="line"/>
      <point x="1314.0" y="732.5" type="line"/>
      <point x="793.0" y="732.5" type="line"/>
    </contour>
    <contour>
      <point x="760.5" y="1115.5" type="line"/>
      <point x="1325.5" y="1115.5" type="line"/>
      <point x="1325.5" y="1278.0" type="line"/>
      <point x="760.5" y="1278.0" type="line"/>
    </contour>
  </outline>
</glyph>
<glyph name="Eth" format="2">
  <advance width="992.0"/>
  <unicode hex="00D0"/>
  <anchor x="486.0" y="0.0" name="bottom"/>
  <anchor x="501.5" y="639.0" name="center"/>
  <anchor x="486.0" y="1278.0" name="top"/>
  <outline>
    <contour>
      <point x="8.5" y="585.0" type="line"/>
      <point x="522.5" y="585.0" type="line"/>
      <point x="522.5" y="728.0" type="line"/>
      <point x="8.5" y="728.0" type="line"/>
    </contour>
    <component base="D"/>
  </outline>
</glyph>
<glyph name="multiply" format="2">
  <advance width="803.0"/>
  <unicode hex="00D7"/>
  <outline>
    <contour>
      <point x="734.0" y="377.0" type="line"/>
      <point x="181.5" y="974.0" type="line"/>
      <point x="74.0" y="880.5" type="line"/>
      <point x="626.5" y="282.5" type="line"/>
    </contour>
    <contour>
      <point x="69.0" y="377.0" type="line"/>
      <point x="176.5" y="282.5" type="line"/>
      <point x="729.0" y="880.5" type="line"/>
      <point x="621.5" y="974.0" type="line"/>
    </contour>
  </outline>
</glyph>
<glyph name="Oslash" format="2">
  <advance width="1001.5"/>
  <unicode hex="00D8"/>
  <anchor x="500.5" y="0.0" name="bottom"/>
  <anchor x="500.5" y="639.5" name="center"/>
  <anchor x="906.5" y="10.5" name="ogonek"/>
  <anchor x="500.5" y="1278.0" name="top"/>
  <anchor x="13.0" y="1278.5" name="topleft"/>
  <anchor x="987.5" y="1278.5" name="topright"/>
  <outline>
    <contour>
      <point x="501.5" y="-22.5" type="curve" smooth="yes"/>
      <point x="772.5" y="-22.5"/>
      <point x="913.5" y="135.0"/>
      <point x="913.5" y="429.0" type="curve" smooth="yes"/>
      <point x="913.5" y="848.0" type="line" smooth="yes"/>
      <point x="913.5" y="1134.5"/>
      <point x="762.5" y="1300.5"/>
      <point x="499.5" y="1300.5" type="curve" smooth="yes"/>
      <point x="228.0" y="1300.5"/>
      <point x="88.0" y="1142.0"/>
      <point x="88.0" y="849.0" type="curve" smooth="yes"/>
      <point x="88.0" y="430.0" type="line" smooth="yes"/>
      <point x="88.0" y="143.0"/>
      <point x="238.0" y="-22.5"/>
    </contour>
    <contour>
      <point x="115.5" y="-73.5" type="line"/>
      <point x="272.5" y="-73.5" type="line"/>
      <point x="347.5" y="90.5" type="line"/>
      <point x="357.5" y="118.0" type="line"/>
      <point x="747.0" y="1082.5" type="line"/>
      <point x="782.0" y="1144.5" type="line"/>
      <point x="886.0" y="1351.5" type="line"/>
      <point x="729.0" y="1351.5" type="line"/>
      <point x="668.5" y="1223.5" type="line"/>
      <point x="654.5" y="1176.5" type="line"/>
      <point x="261.5" y="201.5" type="line"/>
      <point x="223.0" y="146.0" type="line"/>
    </contour>
    <contour>
      <point x="500.5" y="136.5" type="curve" smooth="yes"/>
      <point x="344.5" y="136.5"/>
      <point x="277.0" y="236.0"/>
      <point x="277.0" y="389.0" type="curve" smooth="yes"/>
      <point x="277.0" y="859.5" type="line" smooth="yes"/>
      <point x="277.0" y="1043.5"/>
      <point x="348.5" y="1141.5"/>
      <point x="500.5" y="1141.5" type="curve" smooth="yes"/>
      <point x="656.5" y="1141.5"/>
      <point x="724.5" y="1043.5"/>
      <point x="724.5" y="889.5" type="curve" smooth="yes"/>
      <point x="724.5" y="419.0" type="line" smooth="yes"/>
      <point x="724.5" y="235.5"/>
      <point x="652.0" y="136.5"/>
    </contour>
  </outline>
</glyph>
<glyph name="Thorn" format="2">
  <advance width="933.5"/>
  <unicode hex="00DE"/>
  <anchor x="466.5" y="0.0" name="bottom"/>
  <anchor x="466.5" y="1278.0" name="top"/>
  <outline>
    <contour>
      <point x="237.5" y="208.5" type="line"/>
      <point x="501.5" y="208.5" type="line" smooth="yes"/>
      <point x="753.5" y="208.5"/>
      <point x="866.5" y="337.5"/>
      <point x="866.5" y="569.0" type="curve" smooth="yes"/>
      <point x="866.5" y="718.5" type="line" smooth="yes"/>
      <point x="866.5" y="946.0"/>
      <point x="754.0" y="1077.5"/>
      <point x="501.5" y="1077.5" type="curve" smooth="yes"/>
      <point x="238.5" y="1077.5" type="line"/>
      <point x="238.5" y="918.5" type="line"/>
      <point x="496.0" y="918.5" type="line" smooth="yes"/>
      <point x="624.0" y="918.5"/>
      <point x="678.0" y="847.0"/>
      <point x="678.0" y="714.0" type="curve" smooth="yes"/>
      <point x="678.0" y="573.0" type="line" smooth="yes"/>
      <point x="678.0" y="441.0"/>
      <point x="624.0" y="368.0"/>
      <point x="494.5" y="368.0" type="curve" smooth="yes"/>
      <point x="237.5" y="368.0" type="line"/>
    </contour>
    <contour>
      <point x="120.0" y="0.0" type="line"/>
      <point x="306.5" y="0.0" type="line"/>
      <point x="306.5" y="259.5" type="line"/>
      <point x="306.0" y="308.5" type="line"/>
      <point x="306.0" y="969.5" type="line"/>
      <point x="306.5" y="1046.5" type="line"/>
      <point x="306.5" y="1278.0" type="line"/>
      <point x="120.0" y="1278.0" type="line"/>
    </contour>
  </outline>
</glyph>
<glyph name="germandbls" format="2">
  <advance width="993.5"/>
  <unicode hex="00DF"/>
  <anchor x="476.0" y="0.0" name="bottom"/>
  <anchor x="476.0" y="988.0" name="top"/>
  <outline>
    <contour>
      <point x="106.0" y="1010.0" type="curve" smooth="yes"/>
      <point x="106.0" y="0.0" type="line"/>
      <point x="287.0" y="0.0" type="line"/>
      <point x="287.0" y="1002.0" type="line" smooth="yes"/>
      <point x="287.0" y="1133.5"/>
      <point x="332.0" y="1203.5"/>
      <point x="460.5" y="1203.5" type="curve" smooth="yes"/>
      <point x="574.5" y="1203.5"/>
      <point x="621.0" y="1152.0"/>
      <point x="621.0" y="1083.5" type="curve" smooth="yes"/>
      <point x="621.0" y="963.0"/>
      <point x="422.5" y="886.5"/>
      <point x="422.5" y="704.5" type="curve" smooth="yes"/>
      <point x="422.5" y="697.5" type="line" smooth="yes"/>
      <point x="422.5" y="574.0"/>
      <point x="476.5" y="524.0"/>
      <point x="612.5" y="452.5" type="curve" smooth="yes"/>
      <point x="726.0" y="392.0"/>
      <point x="751.5" y="353.5"/>
      <point x="751.5" y="281.0" type="curve" smooth="yes"/>
      <point x="751.5" y="265.0" type="line" smooth="yes"/>
      <point x="751.5" y="188.0"/>
      <point x="705.5" y="142.0"/>
      <point x="607.0" y="142.0" type="curve" smooth="yes"/>
      <point x="539.0" y="142.0"/>
      <point x="477.0" y="163.5"/>
      <point x="418.0" y="193.0" type="curve"/>
      <point x="432.0" y="23.5" type="line"/>
      <point x="480.5" y="2.5"/>
      <point x="544.0" y="-17.5"/>
      <point x="633.0" y="-17.5" type="curve" smooth="yes"/>
      <point x="819.0" y="-17.5"/>
      <point x="932.5" y="79.5"/>
      <point x="932.5" y="260.0" type="curve" smooth="yes"/>
      <point x="932.5" y="282.5" type="line" smooth="yes"/>
      <point x="932.5" y="429.5"/>
      <point x="872.0" y="490.5"/>
      <point x="739.0" y="559.0" type="curve" smooth="yes"/>
      <point x="642.5" y="609.5"/>
      <point x="603.5" y="641.0"/>
      <point x="603.5" y="708.0" type="curve" smooth="yes"/>
      <point x="603.5" y="715.0" type="line" smooth="yes"/>
      <point x="603.5" y="834.5"/>
      <point x="805.0" y="904.5"/>
      <point x="805.0" y="1091.5" type="curve"/>
      <point x="805.0" y="1255.5"/>
      <point x="684.0" y="1352.5"/>
      <point x="463.5" y="1352.5" type="curve" smooth="yes"/>
      <point x="209.0" y="1352.5"/>
      <point x="106.0" y="1236.0"/>
    </contour>
  </outline>
</glyph>
<glyph name="ae" format="2">
  <advance width="1335.5"/>
  <unicode hex="00E6"/>
  <anchor x="666.0" y="0.0" name="bottom"/>
  <anchor x="666.0" y="988.0" name="top"/>
  <outline>
    <contour>
      <point x="959.0" y="-18.5" type="curve" smooth="yes"/>
      <point x="1073.0" y="-18.5"/>
      <point x="1169.5" y="10.5"/>
      <point x="1239.5" y="52.0" type="curve"/>
      <point x="1254.5" y="212.5" type="line"/>
      <point x="1178.5" y="169.0"/>
      <point x="1092.0" y="140.0"/>
      <point x="993.0" y="140.0" type="curve" smooth="yes"/>
      <point x="822.5" y="140.0"/>
      <point x="749.0" y="221.0"/>
      <point x="749.0" y="361.5" type="curve" smooth="yes"/>
      <point x="749.0" y="471.0" type="line"/>
      <point x="749.0" y="497.5" type="line"/>
      <point x="749.0" y="648.5" type="line" smooth="yes"/>
      <point x="749.0" y="783.5"/>
      <point x="802.5" y="858.0"/>
      <point x="919.5" y="858.0" type="curve" smooth="yes"/>
      <point x="1035.5" y="858.0"/>
      <point x="1090.5" y="787.0"/>
      <point x="1090.5" y="650.5" type="curve" smooth="yes"/>
      <point x="1090.5" y="585.5"/>
      <point x="1090.0" y="509.5"/>
      <point x="1089.0" y="414.0" type="curve"/>
      <point x="1257.5" y="414.0" type="line"/>
      <point x="1265.0" y="464.0"/>
      <point x="1268.0" y="513.5"/>
      <point x="1268.0" y="564.0" type="curve" smooth="yes"/>
      <point x="1268.0" y="636.0" type="line" smooth="yes"/>
      <point x="1268.0" y="869.5"/>
      <point x="1159.5" y="1009.5"/>
      <point x="941.0" y="1009.5" type="curve" smooth="yes"/>
      <point x="787.0" y="1009.5"/>
      <point x="691.0" y="937.0"/>
      <point x="655.5" y="820.0" type="curve"/>
      <point x="649.0" y="820.0" type="line"/>
      <point x="617.5" y="938.0"/>
      <point x="537.0" y="1007.5"/>
      <point x="388.5" y="1007.5" type="curve" smooth="yes"/>
      <point x="271.0" y="1007.5"/>
      <point x="172.0" y="966.5"/>
      <point x="108.0" y="925.0" type="curve"/>
      <point x="93.0" y="765.0" type="line"/>
      <point x="170.0" y="809.0"/>
      <point x="267.5" y="850.0"/>
      <point x="375.5" y="850.0" type="curve" smooth="yes"/>
      <point x="503.5" y="850.0"/>
      <point x="566.0" y="787.0"/>
      <point x="566.0" y="650.0" type="curve"/>
      <point x="565.5" y="537.0" type="line"/>
      <point x="565.0" y="432.0"/>
      <point x="566.0" y="349.0"/>
      <point x="570.0" y="253.0" type="curve"/>
      <point x="587.0" y="231.5" type="line"/>
      <point x="627.0" y="71.0"/>
      <point x="751.5" y="-18.5"/>
    </contour>
    <contour>
      <point x="318.0" y="-18.0" type="curve" smooth="yes"/>
      <point x="486.5" y="-18.0"/>
      <point x="563.0" y="63.0"/>
      <point x="598.5" y="176.5" type="curve"/>
      <point x="627.0" y="176.5" type="line"/>
      <point x="575.0" y="292.0" type="line"/>
      <point x="552.5" y="203.5"/>
      <point x="487.5" y="136.5"/>
      <point x="375.0" y="136.5" type="curve" smooth="yes"/>
      <point x="282.5" y="136.5"/>
      <point x="242.5" y="188.0"/>
      <point x="242.5" y="279.0" type="curve" smooth="yes"/>
      <point x="242.5" y="306.5" type="line" smooth="yes"/>
      <point x="242.5" y="391.5"/>
      <point x="283.5" y="434.0"/>
      <point x="389.0" y="455.0" type="curve" smooth="yes"/>
      <point x="601.5" y="497.0" type="line"/>
      <point x="587.0" y="637.0" type="line"/>
      <point x="356.0" y="591.0" type="line" smooth="yes"/>
      <point x="149.5" y="548.5"/>
      <point x="59.0" y="470.5"/>
      <point x="59.0" y="296.5" type="curve" smooth="yes"/>
      <point x="59.0" y="252.0" type="line" smooth="yes"/>
      <point x="59.0" y="79.5"/>
      <point x="142.5" y="-18.0"/>
    </contour>
    <contour>
      <point x="666.5" y="414.0" type="line"/>
      <point x="1213.0" y="414.0" type="line"/>
      <point x="1213.0" y="557.0" type="line"/>
      <point x="666.5" y="557.0" type="line"/>
    </contour>
  </outline>
</glyph>
<glyph name="eth" format="2">
  <advance width="881.0"/>
  <unicode hex="00F0"/>
  <outline>
    <contour>
      <point x="442.0" y="-21.0" type="curve" smooth="yes"/>
      <point x="679.5" y="-21.0"/>
      <point x="803.5" y="116.0"/>
      <point x="803.5" y="367.5" type="curve"/>
      <point x="803.5" y="586.5" type="line"/>
      <point x="803.5" y="886.0"/>
      <point x="671.0" y="1042.5"/>
      <point x="407.5" y="1326.5" type="curve"/>
      <point x="190.5" y="1326.5" type="line"/>
      <point x="190.5" y="1326.0" type="line"/>
      <point x="474.0" y="1030.5"/>
      <point x="604.5" y="895.5"/>
      <point x="623.0" y="708.5" type="curve"/>
      <point x="622.5" y="671.5"/>
      <point x="621.0" y="649.5"/>
      <point x="620.5" y="610.0" type="curve"/>
      <point x="620.5" y="520.0"/>
      <point x="620.5" y="440.0"/>
      <point x="620.5" y="355.0" type="curve" smooth="yes"/>
      <point x="620.5" y="208.0"/>
      <point x="561.5" y="130.5"/>
      <point x="442.0" y="130.5" type="curve" smooth="yes"/>
      <point x="322.0" y="130.5"/>
      <point x="263.0" y="208.0"/>
      <point x="263.0" y="355.0" type="curve" smooth="yes"/>
      <point x="263.0" y="541.0" type="line" smooth="yes"/>
      <point x="263.0" y="687.5"/>
      <point x="320.0" y="765.0"/>
      <point x="438.0" y="765.0" type="curve" smooth="yes"/>
      <point x="558.0" y="765.0"/>
      <point x="619.0" y="686.0"/>
      <point x="620.5" y="547.0" type="curve"/>
      <point x="644.0" y="780.0" type="line"/>
      <point x="598.5" y="773.0" type="line"/>
      <point x="560.0" y="862.5"/>
      <point x="497.5" y="914.0"/>
      <point x="380.0" y="914.0" type="curve" smooth="yes"/>
      <point x="184.5" y="914.0"/>
      <point x="77.5" y="774.5"/>
      <point x="77.5" y="530.0" type="curve" smooth="yes"/>
      <point x="77.5" y="367.5" type="line" smooth="yes"/>
      <point x="77.5" y="116.0"/>
      <point x="202.5" y="-21.0"/>
    </contour>
    <contour>
      <point x="171.5" y="986.0" type="line"/>
      <point x="769.0" y="1152.5" type="line"/>
      <point x="769.0" y="1274.0" type="line"/>
      <point x="171.5" y="1107.0" type="line"/>
    </contour>
  </outline>
</glyph>
<glyph name="divide" format="2">
  <advance width="837.5"/>
  <unicode hex="00F7"/>
  <outline>
    <contour>
      <point x="78.0" y="552.0" type="line"/>
      <point x="759.5" y="552.0" type="line"/>
      <point x="759.5" y="705.5" type="line"/>
      <point x="78.0" y="705.5" type="line"/>
    </contour>
    <contour>
      <point x="425.5" y="208.5" type="curve" smooth="yes"/>
      <point x="487.5" y="208.5"/>
      <point x="518.0" y="247.0"/>
      <point x="518.0" y="315.5" type="curve" smooth="yes"/>
      <point x="518.0" y="327.0" type="line" smooth="yes"/>
      <point x="518.0" y="394.0"/>
      <point x="487.5" y="433.0"/>
      <point x="425.5" y="433.0" type="curve" smooth="yes"/>
      <point x="361.5" y="433.0"/>
      <point x="332.5" y="394.0"/>
      <point x="332.5" y="327.0" type="curve" smooth="yes"/>
      <point x="332.5" y="315.5" type="line" smooth="yes"/>
      <point x="332.5" y="247.0"/>
      <point x="361.5" y="208.5"/>
    </contour>
    <contour>
      <point x="425.5" y="825.0" type="curve" smooth="yes"/>
      <point x="487.5" y="825.0"/>
      <point x="518.0" y="863.5"/>
      <point x="518.0" y="932.0" type="curve" smooth="yes"/>
      <point x="518.0" y="943.5" type="line" smooth="yes"/>
      <point x="518.0" y="1010.5"/>
      <point x="487.5" y="1049.5"/>
      <point x="425.5" y="1049.5" type="curve" smooth="yes"/>
      <point x="361.5" y="1049.5"/>
      <point x="332.5" y="1010.5"/>
      <point x="332.5" y="943.5" type="curve" smooth="yes"/>
      <point x="332.5" y="932.0" type="line" smooth="yes"/>
      <point x="332.5" y="863.5"/>
      <point x="361.5" y="825.0"/>
    </contour>
  </outline>
</glyph>
<glyph name="oslash" format="2">
  <advance width="888.0"/>
  <unicode hex="00F8"/>
  <anchor x="444.0" y="0.0" name="bottom"/>
  <anchor x="444.0" y="494.5" name="center"/>
  <anchor x="800.0" y="10.0" name="ogonek"/>
  <anchor x="444.0" y="988.0" name="top"/>
  <anchor x="869.0" y="988.0" name="topright"/>
  <outline>
    <contour>
      <point x="444.5" y="-21.0" type="curve" smooth="yes"/>
      <point x="686.0" y="-21.0"/>
      <point x="810.5" y="117.0"/>
      <point x="810.5" y="374.5" type="curve"/>
      <point x="810.5" y="615.5" type="line"/>
      <point x="810.5" y="871.0"/>
      <point x="682.5" y="1009.5"/>
      <point x="444.5" y="1009.5" type="curve" smooth="yes"/>
      <point x="202.5" y="1009.5"/>
      <point x="77.5" y="872.5"/>
      <point x="77.5" y="615.5" type="curve"/>
      <point x="77.5" y="374.5" type="line"/>
      <point x="77.5" y="119.0"/>
      <point x="206.0" y="-21.0"/>
    </contour>
    <contour>
      <point x="109.0" y="-73.5" type="line"/>
      <point x="254.5" y="-73.5" type="line"/>
      <point x="313.0" y="51.0" type="line"/>
      <point x="336.0" y="104.0" type="line"/>
      <point x="649.5" y="826.5" type="line"/>
      <point x="692.5" y="891.5" type="line"/>
      <point x="779.0" y="1061.5" type="line"/>
      <point x="634.0" y="1061.5" type="line"/>
      <point x="581.0" y="947.0" type="line"/>
      <point x="560.5" y="901.5" type="line"/>
      <point x="245.5" y="179.0" type="line"/>
      <point x="203.5" y="117.0" type="line"/>
    </contour>
    <contour>
      <point x="444.5" y="129.5" type="curve" smooth="yes"/>
      <point x="319.5" y="129.5"/>
      <point x="259.0" y="209.5"/>
      <point x="259.0" y="360.0" type="curve" smooth="yes"/>
      <point x="259.0" y="629.0" type="line" smooth="yes"/>
      <point x="259.0" y="780.0"/>
      <point x="319.5" y="859.5"/>
      <point x="444.5" y="859.5" type="curve" smooth="yes"/>
      <point x="569.0" y="859.5"/>
      <point x="629.5" y="780.5"/>
      <point x="629.5" y="630.5" type="curve" smooth="yes"/>
      <point x="629.5" y="361.0" type="line" smooth="yes"/>
      <point x="629.5" y="209.0"/>
      <point x="569.0" y="129.5"/>
    </contour>
  </outline>
</glyph>
<glyph name="thorn" format="2">
  <advance width="913.5"/>
  <unicode hex="00FE"/>
  <anchor x="460.5" y="0.0" name="bottom"/>
  <anchor x="460.5" y="988.0" name="top"/>
  <outline>
    <contour>
      <point x="542.5" y="-18.0" type="curve" smooth="yes"/>
      <point x="741.0" y="-18.0"/>
      <point x="835.0" y="116.5"/>
      <point x="835.0" y="370.0" type="curve" smooth="yes"/>
      <point x="835.0" y="622.0" type="line" smooth="yes"/>
      <point x="835.0" y="873.0"/>
      <point x="740.5" y="1006.0"/>
      <point x="546.0" y="1006.0" type="curve" smooth="yes"/>
      <point x="390.5" y="1006.0"/>
      <point x="321.0" y="923.0"/>
      <point x="294.5" y="815.0" type="curve"/>
      <point x="246.0" y="815.0" type="line"/>
      <point x="284.0" y="690.0" type="line"/>
      <point x="305.0" y="785.0"/>
      <point x="371.5" y="855.5"/>
      <point x="476.5" y="855.5" type="curve" smooth="yes"/>
      <point x="593.5" y="855.5"/>
      <point x="649.5" y="780.5"/>
      <point x="649.5" y="637.5" type="curve" smooth="yes"/>
      <point x="649.5" y="358.0" type="line" smooth="yes"/>
      <point x="649.5" y="212.0"/>
      <point x="592.0" y="136.5"/>
      <point x="476.0" y="136.5" type="curve" smooth="yes"/>
      <point x="360.0" y="136.5"/>
      <point x="290.0" y="211.0"/>
      <point x="286.5" y="345.5" type="curve"/>
      <point x="236.5" y="173.0" type="line"/>
      <point x="296.0" y="173.0" type="line"/>
      <point x="324.5" y="59.5"/>
      <point x="399.5" y="-18.0"/>
    </contour>
    <contour>
      <point x="106.0" y="-347.0" type="line"/>
      <point x="290.0" y="-347.0" type="line"/>
      <point x="290.0" y="-40.5" type="line"/>
      <point x="285.5" y="215.5" type="line"/>
      <point x="286.5" y="250.5" type="line"/>
      <point x="286.5" y="731.0" type="line"/>
      <point x="283.5" y="765.5" type="line"/>
      <point x="290.0" y="1022.0" type="line"/>
      <point x="290.0" y="1326.5" type="line"/>
      <point x="106.0" y="1326.5" type="line"/>
    </contour>
  </outline>
</glyph>
<glyph name="idotless" format="2">
  <advance width="402.5"/>
  <unicode hex="0131"/>
  <anchor x="201.5" y="0.0" name="bottom"/>
  <anchor x="329.0" y="0.0" name="ogonek"/>
  <anchor x="201.5" y="988.0" name="top"/>
  <outline>
    <contour>
      <point x="109.0" y="0.0" type="line"/>
      <point x="294.0" y="0.0" type="line"/>
      <point x="294.0" y="988.0" type="line"/>
      <point x="109.0" y="988.0" type="line"/>
    </contour>
  </outline>
</glyph>
<glyph name="OE" format="2">
  <advance width="1391.5"/>
  <unicode hex="0152"/>
  <anchor x="689.0" y="0.0" name="bottom"/>
  <anchor x="689.0" y="1278.0" name="top"/>
  <outline>
    <contour>
      <point x="500.5" y="-22.5" type="curve" smooth="yes"/>
      <point x="773.0" y="-22.5"/>
      <point x="912.5" y="135.5"/>
      <point x="912.5" y="424.0" type="curve" smooth="yes"/>
      <point x="912.5" y="854.0" type="line" smooth="yes"/>
      <point x="912.5" y="1141.5"/>
      <point x="773.0" y="1300.5"/>
      <point x="500.5" y="1300.5" type="curve" smooth="yes"/>
      <point x="227.0" y="1300.5"/>
      <point x="88.0" y="1142.5"/>
      <point x="88.0" y="854.0" type="curve" smooth="yes"/>
      <point x="88.0" y="424.0" type="line" smooth="yes"/>
      <point x="88.0" y="134.5"/>
      <point x="227.0" y="-22.5"/>
    </contour>
    <contour>
      <point x="500.5" y="137.5" type="curve" smooth="yes"/>
      <point x="350.0" y="137.5"/>
      <point x="280.0" y="236.0"/>
      <point x="280.0" y="411.0" type="curve" smooth="yes"/>
      <point x="280.0" y="867.5" type="line" smooth="yes"/>
      <point x="280.0" y="1043.5"/>
      <point x="350.0" y="1140.5"/>
      <point x="500.5" y="1140.5" type="curve" smooth="yes"/>
      <point x="650.5" y="1140.5"/>
      <point x="721.0" y="1043.5"/>
      <point x="721.0" y="867.5" type="curve" smooth="yes"/>
      <point x="721.0" y="411.0" type="line" smooth="yes"/>
      <point x="721.0" y="236.0"/>
      <point x="650.5" y="137.5"/>
    </contour>
    <contour>
      <point x="625.0" y="0.0" type="line"/>
      <point x="1315.5" y="0.0" type="line"/>
      <point x="1315.5" y="163.0" type="line"/>
      <point x="625.0" y="163.0" type="line"/>
    </contour>
    <contour>
      <point x="793.0" y="571.0" type="line"/>
      <point x="1300.5" y="571.0" type="line"/>
      <point x="1300.5" y="732.5" type="line"/>
      <point x="793.0" y="732.5" type="line"/>
    </contour>
    <contour>
      <point x="628.5" y="1115.5" type="line"/>
      <point x="1312.0" y="1115.5" type="line"/>
      <point x="1312.0" y="1278.0" type="line"/>
      <point x="628.5" y="1278.0" type="line"/>
    </contour>
  </outline>
</glyph>
<glyph name="oe" format="2">
  <advance width="1397.0"/>
  <unicode hex="0153"/>
  <anchor x="699.0" y="0.0" name="bottom"/>
  <anchor x="699.0" y="988.0" name="top"/>
  <outline>
    <contour>
      <point x="417.5" y="-21.0" type="curve" smooth="yes"/>
      <point x="577.5" y="-21.0"/>
      <point x="671.5" y="46.5"/>
      <point x="712.5" y="170.5" type="curve"/>
      <point x="719.0" y="170.5" type="line"/>
      <point x="765.0" y="47.0"/>
      <point x="872.5" y="-18.5"/>
      <point x="1030.0" y="-18.5" type="curve" smooth="yes"/>
      <point x="1141.5" y="-18.5"/>
      <point x="1234.0" y="11.0"/>
      <point x="1301.0" y="52.0" type="curve"/>
      <point x="1316.0" y="212.5" type="line"/>
      <point x="1240.5" y="169.0"/>
      <point x="1154.0" y="140.0"/>
      <point x="1056.5" y="140.0" type="curve" smooth="yes"/>
      <point x="889.5" y="140.0"/>
      <point x="810.5" y="221.0"/>
      <point x="810.5" y="371.5" type="curve" smooth="yes"/>
      <point x="810.5" y="470.0" type="line"/>
      <point x="810.5" y="496.5" type="line"/>
      <point x="810.5" y="648.5" type="line" smooth="yes"/>
      <point x="810.5" y="786.0"/>
      <point x="863.5" y="858.0"/>
      <point x="980.0" y="858.0" type="curve" smooth="yes"/>
      <point x="1096.5" y="858.0"/>
      <point x="1152.0" y="787.0"/>
      <point x="1152.0" y="650.5" type="curve" smooth="yes"/>
      <point x="1152.0" y="583.5"/>
      <point x="1151.5" y="507.5"/>
      <point x="1150.5" y="414.0" type="curve"/>
      <point x="1319.0" y="414.0" type="line"/>
      <point x="1326.5" y="464.0"/>
      <point x="1329.5" y="513.5"/>
      <point x="1329.5" y="564.0" type="curve" smooth="yes"/>
      <point x="1329.5" y="636.5" type="line" smooth="yes"/>
      <point x="1329.5" y="872.0"/>
      <point x="1220.5" y="1009.5"/>
      <point x="1000.0" y="1009.5" type="curve" smooth="yes"/>
      <point x="857.0" y="1009.5"/>
      <point x="760.0" y="941.5"/>
      <point x="719.0" y="820.0" type="curve"/>
      <point x="712.5" y="820.0" type="line"/>
      <point x="669.5" y="941.5"/>
      <point x="578.5" y="1009.5"/>
      <point x="417.5" y="1009.5" type="curve" smooth="yes"/>
      <point x="198.0" y="1009.5"/>
      <point x="77.5" y="873.5"/>
      <point x="77.5" y="622.5" type="curve" smooth="yes"/>
      <point x="77.5" y="367.5" type="line" smooth="yes"/>
      <point x="77.5" y="116.0"/>
      <point x="198.0" y="-21.0"/>
    </contour>
    <contour>
      <point x="732.0" y="414.0" type="line"/>
      <point x="1279.0" y="414.0" type="line"/>
      <point x="1279.0" y="557.0" type="line"/>
      <point x="732.0" y="557.0" type="line"/>
    </contour>
    <contour>
      <point x="443.5" y="130.5" type="curve" smooth="yes"/>
      <point x="323.0" y="130.5"/>
      <point x="263.0" y="208.0"/>
      <point x="263.0" y="355.0" type="curve" smooth="yes"/>
      <point x="263.0" y="635.0" type="line" smooth="yes"/>
      <point x="263.0" y="781.0"/>
      <point x="323.0" y="858.0"/>
      <point x="443.5" y="858.0" type="curve" smooth="yes"/>
      <point x="564.5" y="858.0"/>
      <point x="625.5" y="781.0"/>
      <point x="625.5" y="635.0" type="curve" smooth="yes"/>
      <point x="625.5" y="355.0" type="line" smooth="yes"/>
      <point x="625.5" y="208.0"/>
      <point x="564.5" y="130.5"/>
    </contour>
  </outline>
</glyph>
<glyph name="gravecomb" format="2">
  <unicode hex="0300"/>
  <anchor x="369.5" y="988.0" name="_top"/>
  <anchor x="277.0" y="1325.0" name="top"/>
  <outline>
    <contour>
      <point x="293.0" y="1358.5" type="line"/>
      <point x="96.0" y="1358.5" type="line"/>
      <point x="96.0" y="1357.0" type="line"/>
      <point x="290.5" y="1092.5" type="line"/>
      <point x="446.5" y="1092.5" type="line"/>
      <point x="446.5" y="1094.0" type="line"/>
    </contour>
  </outline>
</glyph>
<glyph name="acutecomb" format="2">
  <unicode hex="0301"/>
  <anchor x="172.5" y="988.0" name="_top"/>
  <anchor x="176.5" y="1325.0" name="top"/>
  <outline>
    <contour>
      <point x="248.5" y="1358.5" type="line"/>
      <point x="95.0" y="1094.0" type="line"/>
      <point x="95.0" y="1092.5" type="line"/>
      <point x="251.0" y="1092.5" type="line"/>
      <point x="445.5" y="1357.0" type="line"/>
      <point x="445.5" y="1358.5" type="line"/>
    </contour>
  </outline>
</glyph>
<glyph name="circumflexcomb" format="2">
  <unicode hex="0302"/>
  <anchor x="352.0" y="988.0" name="_top"/>
  <anchor x="352.0" y="1317.0" name="top"/>
  <outline>
    <contour>
      <point x="250.5" y="1358.5" type="line"/>
      <point x="100.0" y="1094.0" type="line"/>
      <point x="100.0" y="1092.5" type="line"/>
      <point x="241.0" y="1092.5" type="line"/>
      <point x="348.0" y="1256.5" type="line"/>
      <point x="356.0" y="1256.5" type="line"/>
      <point x="463.0" y="1092.5" type="line"/>
      <point x="604.0" y="1092.5" type="line"/>
      <point x="604.0" y="1094.0" type="line"/>
      <point x="453.0" y="1358.5" type="line"/>
    </contour>
  </outline>
</glyph>
<glyph name="tildecomb" format="2">
  <unicode hex="0303"/>
  <anchor x="357.0" y="988.0" name="_top"/>
  <anchor x="357.5" y="1318.5" name="top"/>
  <outline>
    <contour>
      <point x="476.0" y="1120.5" type="curve" smooth="yes"/>
      <point x="574.0" y="1120.5"/>
      <point x="612.5" y="1183.5"/>
      <point x="612.5" y="1291.5" type="curve" smooth="yes"/>
      <point x="612.5" y="1325.0" type="line"/>
      <point x="497.5" y="1325.0" type="line"/>
      <point x="497.5" y="1311.5" type="line" smooth="yes"/>
      <point x="497.5" y="1271.5"/>
      <point x="487.0" y="1251.5"/>
      <point x="454.5" y="1251.5" type="curve" smooth="yes"/>
      <point x="402.0" y="1251.5"/>
      <point x="327.5" y="1315.0"/>
      <point x="242.5" y="1315.0" type="curve" smooth="yes"/>
      <point x="143.5" y="1315.0"/>
      <point x="105.0" y="1250.0"/>
      <point x="105.0" y="1143.0" type="curve" smooth="yes"/>
      <point x="105.0" y="1110.0" type="line"/>
      <point x="220.0" y="1110.0" type="line"/>
      <point x="220.0" y="1123.5" type="line" smooth="yes"/>
      <point x="220.0" y="1162.5"/>
      <point x="231.5" y="1183.0"/>
      <point x="263.5" y="1183.0" type="curve" smooth="yes"/>
      <point x="316.5" y="1183.0"/>
      <point x="395.5" y="1120.5"/>
    </contour>
  </outline>
</glyph>
<glyph name="macroncomb" format="2">
  <unicode hex="0304"/>
  <anchor x="348.5" y="988.0" name="_top"/>
  <anchor x="348.5" y="1284.0" name="top"/>
  <outline>
    <contour>
      <point x="102.0" y="1143.5" type="line"/>
      <point x="594.5" y="1143.5" type="line"/>
      <point x="594.5" y="1271.5" type="line"/>
      <point x="102.0" y="1271.5" type="line"/>
    </contour>
  </outline>
</glyph>
<glyph name="dotaccentcomb" format="2">
  <unicode hex="0307"/>
  <anchor x="199.5" y="988.0" name="_top"/>
  <anchor x="199.5" y="1320.0" name="top"/>
  <outline>
    <contour>
      <point x="198.5" y="1119.5" type="curve" smooth="yes"/>
      <point x="265.5" y="1119.5"/>
      <point x="298.5" y="1158.0"/>
      <point x="298.5" y="1226.0" type="curve" smooth="yes"/>
      <point x="298.5" y="1232.5" type="line" smooth="yes"/>
      <point x="298.5" y="1300.0"/>
      <point x="265.5" y="1339.0"/>
      <point x="198.5" y="1339.0" type="curve" smooth="yes"/>
      <point x="132.5" y="1339.0"/>
      <point x="100.0" y="1300.0"/>
      <point x="100.0" y="1232.5" type="curve" smooth="yes"/>
      <point x="100.0" y="1226.0" type="line" smooth="yes"/>
      <point x="100.0" y="1158.0"/>
      <point x="132.5" y="1119.5"/>
    </contour>
  </outline>
</glyph>
<glyph name="dieresiscomb" format="2">
  <unicode hex="0308"/>
  <anchor x="329.5" y="988.0" name="_top"/>
  <anchor x="329.5" y="1321.0" name="top"/>
  <outline>
    <contour>
      <point x="190.0" y="1120.5" type="curve" smooth="yes"/>
      <point x="252.0" y="1120.5"/>
      <point x="280.5" y="1158.5"/>
      <point x="280.5" y="1224.5" type="curve" smooth="yes"/>
      <point x="280.5" y="1233.5" type="line" smooth="yes"/>
      <point x="280.5" y="1299.0"/>
      <point x="252.0" y="1336.5"/>
      <point x="190.0" y="1336.5" type="curve" smooth="yes"/>
      <point x="129.0" y="1336.5"/>
      <point x="100.0" y="1299.0"/>
      <point x="100.0" y="1233.5" type="curve" smooth="yes"/>
      <point x="100.0" y="1224.5" type="line" smooth="yes"/>
      <point x="100.0" y="1158.5"/>
      <point x="129.0" y="1120.5"/>
    </contour>
    <contour>
      <point x="468.5" y="1120.5" type="curve" smooth="yes"/>
      <point x="529.0" y="1120.5"/>
      <point x="558.5" y="1159.0"/>
      <point x="558.5" y="1224.5" type="curve" smooth="yes"/>
      <point x="558.5" y="1233.5" type="line" smooth="yes"/>
      <point x="558.5" y="1298.5"/>
      <point x="529.0" y="1336.5"/>
      <point x="468.5" y="1336.5" type="curve" smooth="yes"/>
      <point x="406.5" y="1336.5"/>
      <point x="378.5" y="1298.5"/>
      <point x="378.5" y="1233.5" type="curve" smooth="yes"/>
      <point x="378.5" y="1224.5" type="line" smooth="yes"/>
      <point x="378.5" y="1159.0"/>
      <point x="406.5" y="1120.5"/>
    </contour>
  </outline>
</glyph>
<glyph name="ringcomb" format="2">
  <unicode hex="030A"/>
  <anchor x="285.0" y="988.0" name="_top"/>
  <anchor x="285.5" y="1384.0" name="top"/>
  <outline>
    <contour>
      <point x="100.0" y="1240.0" type="line" smooth="yes"/>
      <point x="100.0" y="1145.5"/>
      <point x="160.5" y="1079.5"/>
      <point x="285.0" y="1079.5" type="curve" smooth="yes"/>
      <point x="408.0" y="1079.5"/>
      <point x="469.5" y="1145.5"/>
      <point x="469.5" y="1240.0" type="curve" smooth="yes"/>
      <point x="469.5" y="1244.0" type="line" smooth="yes"/>
      <point x="469.5" y="1340.5"/>
      <point x="408.0" y="1405.5"/>
      <point x="285.0" y="1405.5" type="curve" smooth="yes"/>
      <point x="160.5" y="1405.5"/>
      <point x="100.0" y="1340.5"/>
      <point x="100.0" y="1244.0" type="curve" smooth="yes"/>
    </contour>
    <contour>
      <point x="208.0" y="1241.0" type="curve" smooth="yes"/>
      <point x="208.0" y="1244.0" type="line" smooth="yes"/>
      <point x="208.0" y="1289.0"/>
      <point x="235.0" y="1314.0"/>
      <point x="285.0" y="1314.0" type="curve" smooth="yes"/>
      <point x="334.0" y="1314.0"/>
      <point x="361.0" y="1289.0"/>
      <point x="361.0" y="1244.0" type="curve" smooth="yes"/>
      <point x="361.0" y="1241.0" type="line" smooth="yes"/>
      <point x="361.0" y="1196.0"/>
      <point x="334.0" y="1171.0"/>
      <point x="285.0" y="1171.0" type="curve" smooth="yes"/>
      <point x="235.0" y="1171.0"/>
      <point x="208.0" y="1196.0"/>
    </contour>
  </outline>
</glyph>
<glyph name="cedillacomb" format="2">
  <unicode hex="0327"/>
  <anchor x="267.5" y="0.0" name="_bottom"/>
  <anchor x="305.0" y="-364.0" name="bottom"/>
  <outline>
    <contour>
      <point x="331.0" y="21.0" type="line"/>
      <point x="211.5" y="21.0" type="line"/>
      <point x="195.5" y="-141.0" type="line"/>
      <point x="195.5" y="-141.0"/>
      <point x="200.0" y="-141.0"/>
      <point x="206.5" y="-141.5" type="curve" smooth="yes"/>
      <point x="303.5" y="-148.0"/>
      <point x="338.0" y="-162.5"/>
      <point x="338.0" y="-201.0" type="curve" smooth="yes"/>
      <point x="338.0" y="-203.0" type="line" smooth="yes"/>
      <point x="338.0" y="-234.0"/>
      <point x="308.5" y="-252.5"/>
      <point x="251.0" y="-252.5" type="curve" smooth="yes"/>
      <point x="209.0" y="-252.5"/>
      <point x="167.0" y="-244.0"/>
      <point x="133.5" y="-233.0" type="curve"/>
      <point x="152.0" y="-344.5" type="line"/>
      <point x="184.5" y="-353.0"/>
      <point x="228.5" y="-361.0"/>
      <point x="275.5" y="-361.0" type="curve" smooth="yes"/>
      <point x="398.5" y="-361.0"/>
      <point x="469.0" y="-315.0"/>
      <point x="469.0" y="-218.0" type="curve" smooth="yes"/>
      <point x="469.0" y="-212.0" type="line" smooth="yes"/>
      <point x="469.0" y="-124.5"/>
      <point x="408.5" y="-78.5"/>
      <point x="293.5" y="-73.0" type="curve" smooth="yes"/>
      <point x="274.0" y="-72.0"/>
      <point x="256.0" y="-73.5"/>
      <point x="236.0" y="-75.0" type="curve"/>
      <point x="314.5" y="-125.0" type="line"/>
    </contour>
  </outline>
</glyph>
<glyph name="Anusvara.tm" format="2">
  <unicode hex="0B82"/>
  <note>
Anusvara.tm
</note>
  <outline>
    <contour>
      <point x="248.5" y="1826.5" type="curve" smooth="yes"/>
      <point x="78.5" y="1826.5"/>
      <point x="2.5" y="1735.5"/>
      <point x="2.5" y="1581.0" type="curve" smooth="yes"/>
      <point x="2.5" y="1500.5" type="line"/>
      <point x="2.5" y="1345.0"/>
      <point x="78.5" y="1255.0"/>
      <point x="248.5" y="1255.0" type="curve" smooth="yes"/>
      <point x="420.0" y="1255.0"/>
      <point x="493.0" y="1344.5"/>
      <point x="493.0" y="1500.5" type="curve" smooth="yes"/>
      <point x="493.0" y="1581.0" type="line"/>
      <point x="493.0" y="1735.5"/>
      <point x="420.0" y="1826.5"/>
    </contour>
    <contour>
      <point x="248.5" y="1702.0" type="curve" smooth="yes"/>
      <point x="318.0" y="1702.0"/>
      <point x="345.5" y="1663.5"/>
      <point x="345.5" y="1583.0" type="curve" smooth="yes"/>
      <point x="345.5" y="1498.5" type="line"/>
      <point x="345.5" y="1419.0"/>
      <point x="318.5" y="1379.0"/>
      <point x="248.5" y="1379.0" type="curve" smooth="yes"/>
      <point x="179.5" y="1379.0"/>
      <point x="149.5" y="1419.0"/>
      <point x="149.5" y="1498.5" type="curve" smooth="yes"/>
      <point x="149.5" y="1583.0" type="line"/>
      <point x="149.5" y="1663.5"/>
      <point x="180.0" y="1702.0"/>
    </contour>
  </outline>
</glyph>
<glyph name="Aaytam.tm" format="2">
  <advance width="1379.0"/>
  <unicode hex="0B83"/>
  <note>
Aaytam.tm
</note>
  <outline>
    <contour>
      <point x="356.0" y="656.5" type="curve" smooth="yes"/>
      <point x="167.5" y="656.5"/>
      <point x="77.0" y="548.0"/>
      <point x="77.0" y="364.0" type="curve" smooth="yes"/>
      <point x="77.0" y="269.5" type="line"/>
      <point x="77.0" y="84.5"/>
      <point x="167.5" y="-24.5"/>
      <point x="356.0" y="-24.5" type="curve" smooth="yes"/>
      <point x="545.5" y="-24.5"/>
      <point x="634.0" y="83.0"/>
      <point x="634.0" y="265.5" type="curve" smooth="yes"/>
      <point x="634.0" y="367.5" type="line"/>
      <point x="634.0" y="549.0"/>
      <point x="545.5" y="656.5"/>
    </contour>
    <contour>
      <point x="356.0" y="518.5" type="curve" smooth="yes"/>
      <point x="438.5" y="518.5"/>
      <point x="474.5" y="466.0"/>
      <point x="474.5" y="367.0" type="curve" smooth="yes"/>
      <point x="474.5" y="265.5" type="line"/>
      <point x="474.5" y="166.5"/>
      <point x="438.5" y="115.0"/>
      <point x="356.0" y="115.0" type="curve" smooth="yes"/>
      <point x="273.0" y="115.0"/>
      <point x="235.5" y="166.5"/>
      <point x="235.5" y="265.5" type="curve" smooth="yes"/>
      <point x="235.5" y="367.0" type="line"/>
      <point x="235.5" y="466.0"/>
      <point x="273.0" y="518.5"/>
    </contour>
    <contour>
      <point x="1025.0" y="656.5" type="curve" smooth="yes"/>
      <point x="836.5" y="656.5"/>
      <point x="746.0" y="548.0"/>
      <point x="746.0" y="364.0" type="curve" smooth="yes"/>
      <point x="746.0" y="269.5" type="line"/>
      <point x="746.0" y="84.5"/>
      <point x="836.5" y="-24.5"/>
      <point x="1025.0" y="-24.5" type="curve" smooth="yes"/>
      <point x="1214.5" y="-24.5"/>
      <point x="1302.0" y="83.0"/>
      <point x="1302.0" y="265.5" type="curve" smooth="yes"/>
      <point x="1302.0" y="367.5" type="line"/>
      <point x="1302.0" y="549.0"/>
      <point x="1214.5" y="656.5"/>
    </contour>
    <contour>
      <point x="1025.0" y="518.5" type="curve" smooth="yes"/>
      <point x="1107.5" y="518.5"/>
      <point x="1144.0" y="466.0"/>
      <point x="1144.0" y="367.0" type="curve" smooth="yes"/>
      <point x="1144.0" y="265.5" type="line"/>
      <point x="1144.0" y="166.5"/>
      <point x="1107.5" y="115.0"/>
      <point x="1025.0" y="115.0" type="curve" smooth="yes"/>
      <point x="942.0" y="115.0"/>
      <point x="905.0" y="166.5"/>
      <point x="905.0" y="265.5" type="curve" smooth="yes"/>
      <point x="905.0" y="367.0" type="line"/>
      <point x="905.0" y="466.0"/>
      <point x="942.0" y="518.5"/>
    </contour>
    <contour>
      <point x="692.0" y="1355.0" type="curve" smooth="yes"/>
      <point x="503.0" y="1355.0"/>
      <point x="412.5" y="1247.0"/>
      <point x="412.5" y="1063.5" type="curve" smooth="yes"/>
      <point x="412.5" y="969.0" type="line"/>
      <point x="412.5" y="785.5"/>
      <point x="503.0" y="677.5"/>
      <point x="692.0" y="677.5" type="curve" smooth="yes"/>
      <point x="881.5" y="677.5"/>
      <point x="969.5" y="784.0"/>
      <point x="969.5" y="965.5" type="curve" smooth="yes"/>
      <point x="969.5" y="1067.0" type="line"/>
      <point x="969.5" y="1248.5"/>
      <point x="881.5" y="1355.0"/>
    </contour>
    <contour>
      <point x="692.0" y="1216.5" type="curve" smooth="yes"/>
      <point x="773.5" y="1216.5"/>
      <point x="811.0" y="1165.0"/>
      <point x="811.0" y="1066.5" type="curve" smooth="yes"/>
      <point x="811.0" y="966.0" type="line"/>
      <point x="811.0" y="867.5"/>
      <point x="773.5" y="815.5"/>
      <point x="692.0" y="815.5" type="curve" smooth="yes"/>
      <point x="609.0" y="815.5"/>
      <point x="571.5" y="867.5"/>
      <point x="571.5" y="966.0" type="curve" smooth="yes"/>
      <point x="571.5" y="1066.5" type="line"/>
      <point x="571.5" y="1165.0"/>
      <point x="609.0" y="1216.5"/>
    </contour>
  </outline>
</glyph>
<glyph name="VowelA.tm" format="2">
  <advance width="1892.0"/>
  <unicode hex="0B85"/>
  <note>
vowelA.tm
</note>
  <outline>
    <contour>
      <point x="899.0" y="1200.5" type="curve" smooth="yes"/>
      <point x="592.5" y="1200.5"/>
      <point x="429.5" y="1027.5"/>
      <point x="429.5" y="720.5" type="curve" smooth="yes"/>
      <point x="429.5" y="532.0" type="line" smooth="yes"/>
      <point x="429.5" y="336.5"/>
      <point x="523.5" y="220.0"/>
      <point x="719.0" y="220.0" type="curve" smooth="yes"/>
      <point x="909.5" y="220.0"/>
      <point x="993.5" y="330.5"/>
      <point x="993.5" y="513.0" type="curve" smooth="yes"/>
      <point x="993.5" y="656.0" type="line" smooth="yes"/>
      <point x="993.5" y="828.0"/>
      <point x="925.5" y="921.5"/>
      <point x="783.0" y="921.5" type="curve" smooth="yes"/>
      <point x="672.0" y="921.5"/>
      <point x="605.5" y="854.5"/>
      <point x="584.5" y="770.0" type="curve"/>
      <point x="573.0" y="770.0" type="line"/>
      <point x="579.0" y="660.5" type="line"/>
      <point x="596.0" y="735.0"/>
      <point x="649.0" y="785.5"/>
      <point x="721.0" y="785.5" type="curve" smooth="yes"/>
      <point x="799.5" y="785.5"/>
      <point x="835.5" y="735.5"/>
      <point x="835.5" y="639.5" type="curve" smooth="yes"/>
      <point x="835.5" y="510.5" type="line" smooth="yes"/>
      <point x="835.5" y="407.5"/>
      <point x="799.0" y="353.5"/>
      <point x="716.5" y="353.5" type="curve" smooth="yes"/>
      <point x="627.0" y="353.5"/>
      <point x="586.5" y="412.0"/>
      <point x="586.5" y="522.0" type="curve"/>
      <point x="586.5" y="770.0" type="line"/>
      <point x="580.0" y="770.0" type="line"/>
      <point x="586.5" y="944.0"/>
      <point x="684.5" y="1063.0"/>
      <point x="896.5" y="1063.0" type="curve" smooth="yes"/>
      <point x="1127.5" y="1063.0"/>
      <point x="1206.5" y="938.0"/>
      <point x="1206.5" y="712.0" type="curve" smooth="yes"/>
      <point x="1206.5" y="527.0" type="line" smooth="yes"/>
      <point x="1206.5" y="202.5"/>
      <point x="1066.5" y="53.5"/>
      <point x="734.5" y="53.5" type="curve" smooth="yes"/>
      <point x="732.0" y="53.5" type="line" smooth="yes"/>
      <point x="421.0" y="53.5"/>
      <point x="234.0" y="206.5"/>
      <point x="234.0" y="491.5" type="curve" smooth="yes"/>
      <point x="234.0" y="510.5" type="line" smooth="yes"/>
      <point x="234.0" y="527.0"/>
      <point x="234.0" y="542.5"/>
      <point x="234.5" y="559.0" type="curve"/>
      <point x="485.5" y="559.0" type="line"/>
      <point x="483.5" y="694.5" type="line"/>
      <point x="66.0" y="694.5" type="line"/>
      <point x="65.0" y="658.0"/>
      <point x="64.5" y="621.0"/>
      <point x="64.5" y="577.0" type="curve" smooth="yes"/>
      <point x="64.5" y="539.0" type="line" smooth="yes"/>
      <point x="64.5" y="118.0"/>
      <point x="319.0" y="-91.5"/>
      <point x="735.5" y="-91.5" type="curve" smooth="yes"/>
      <point x="739.5" y="-91.5" type="line" smooth="yes"/>
      <point x="1184.0" y="-91.5"/>
      <point x="1374.0" y="116.5"/>
      <point x="1374.0" y="531.5" type="curve" smooth="yes"/>
      <point x="1374.0" y="706.0" type="line" smooth="yes"/>
      <point x="1374.0" y="1022.5"/>
      <point x="1240.0" y="1200.5"/>
    </contour>
    <contour>
      <point x="871.5" y="690.5" type="line"/>
      <point x="871.5" y="556.5" type="line"/>
      <point x="1239.5" y="556.0" type="line"/>
      <point x="1239.5" y="690.0" type="line"/>
    </contour>
    <contour>
      <point x="1257.0" y="694.5" type="line"/>
      <point x="1257.0" y="552.5" type="line"/>
      <point x="1590.0" y="552.5" type="line"/>
      <point x="1590.0" y="694.5" type="line"/>
    </contour>
    <contour>
      <point x="1577.0" y="1159.5" type="line"/>
      <point x="1577.0" y="-53.0" type="line"/>
      <point x="1752.0" y="-53.0" type="line"/>
      <point x="1752.0" y="1159.5" type="line"/>
    </contour>
  </outline>
</glyph>
<glyph name="VowelAa.tm" format="2">
  <advance width="2265.5"/>
  <unicode hex="0B86"/>
  <note>
vowelAa.tm
</note>
  <outline>
    <contour>
      <point x="1965.5" y="614.5" type="curve" smooth="yes"/>
      <point x="1845.5" y="614.5"/>
      <point x="1777.0" y="539.0"/>
      <point x="1757.5" y="441.0" type="curve"/>
      <point x="1727.5" y="441.0" type="line"/>
      <point x="1727.5" y="293.5" type="line"/>
      <point x="1740.5" y="293.5" type="line"/>
      <point x="1757.5" y="393.0"/>
      <point x="1812.0" y="456.0"/>
      <point x="1894.0" y="456.0" type="curve" smooth="yes"/>
      <point x="1994.5" y="456.0"/>
      <point x="2028.5" y="385.0"/>
      <point x="2028.5" y="244.5" type="curve" smooth="yes"/>
      <point x="2028.5" y="95.0" type="line" smooth="yes"/>
      <point x="2028.5" y="-136.0"/>
      <point x="1954.0" y="-231.0"/>
      <point x="1742.0" y="-231.0" type="curve" smooth="yes"/>
      <point x="1617.0" y="-231.0"/>
      <point x="1503.0" y="-199.0"/>
      <point x="1405.0" y="-152.0" type="curve"/>
      <point x="1429.0" y="-308.0" type="line"/>
      <point x="1521.0" y="-350.0"/>
      <point x="1634.0" y="-380.5"/>
      <point x="1762.0" y="-380.5" type="curve" smooth="yes"/>
      <point x="2083.0" y="-380.5"/>
      <point x="2204.0" y="-233.0"/>
      <point x="2204.0" y="92.5" type="curve" smooth="yes"/>
      <point x="2204.0" y="270.5" type="line" smooth="yes"/>
      <point x="2204.0" y="498.0"/>
      <point x="2137.0" y="614.5"/>
    </contour>
    <component base="VowelA.tm"/>
  </outline>
</glyph>
